<svg width="251" height="83" viewBox="0 0 251 83" fill="none" xmlns="http://www.w3.org/2000/svg">
<rect x="1.65835" y="1.83913" width="248.185" height="79.8161" rx="11.7974" fill="black"/>
<rect x="1.65835" y="1.83913" width="248.185" height="79.8161" rx="11.7974" stroke="white" stroke-width="1.81498"/>
<path d="M58.7101 41.5857C58.7101 36.1922 63.174 33.4024 63.36 33.4024C60.9421 29.8688 56.8501 29.1248 55.5481 29.1248C52.2001 28.7529 49.0381 31.1707 47.5501 31.1707C45.6902 31.1707 43.2722 29.1248 40.2962 29.3108C36.7622 29.3108 33.4142 31.3566 31.5542 34.7043C27.8343 41.2137 30.6242 50.8848 34.1582 56.2783C36.0182 59.068 38.2502 61.6718 40.8542 61.6718C43.4582 61.4858 44.5742 59.812 47.7361 59.812C50.8981 59.812 52.0141 61.6718 54.6181 61.2998C57.5941 61.2998 59.2681 58.5101 61.1281 56.0923C63.174 53.1166 64.104 50.3268 64.104 49.9549C64.29 50.3268 58.7101 48.0951 58.7101 41.5857Z" fill="white"/>
<path d="M53.3161 25.7774C54.8041 23.9176 55.7341 21.4998 55.5481 19.082C53.5021 19.082 50.8981 20.5699 49.2241 22.2437C47.9221 23.7316 46.8061 26.5213 46.9921 28.7531C49.4101 28.9391 52.0141 27.6372 53.3161 25.7774Z" fill="white"/>
<path d="M100.14 53.0806H91.7265L89.666 59.0904H85.8884L94.1305 36.5964H97.9081L105.978 59.0904H102.201L100.14 53.0806ZM92.4134 50.1615H99.2818L96.0193 40.2023L92.4134 50.1615ZM123.493 51.0201C123.493 56.1713 120.746 59.2621 116.625 59.2621C114.392 59.2621 112.503 58.2319 111.473 56.3431V64.4134H108.211V42.6063H111.473V45.3536C112.503 43.6365 114.392 42.4346 116.625 42.4346C120.574 42.4346 123.493 45.6971 123.493 51.0201ZM120.059 51.0201C120.059 47.7576 118.342 45.3536 115.766 45.3536C113.362 45.3536 111.473 47.5859 111.473 51.0201C111.473 54.4543 113.19 56.6865 115.766 56.6865C118.342 56.3431 120.059 54.2825 120.059 51.0201ZM141.523 51.0201C141.523 56.1713 138.775 59.2621 134.654 59.2621C132.422 59.2621 130.533 58.2319 129.503 56.3431V64.4134H126.24V42.6063H129.331V45.3536C130.361 43.6365 132.25 42.4346 134.482 42.4346C138.603 42.4346 141.523 45.6971 141.523 51.0201ZM137.917 51.0201C137.917 47.7576 136.2 45.3536 133.624 45.3536C131.22 45.3536 129.331 47.5859 129.331 51.0201C129.331 54.4543 131.048 56.6865 133.624 56.6865C136.371 56.3431 137.917 54.2825 137.917 51.0201ZM153.199 52.7372C153.371 54.9694 155.603 56.5148 158.522 56.5148C161.441 56.5148 163.501 55.1411 163.501 52.9089C163.501 51.1918 162.299 50.1615 159.38 49.303L156.461 48.6161C152.34 47.5859 150.451 45.697 150.451 42.6063C150.451 38.6569 153.714 35.9096 158.522 35.9096C163.33 35.9096 166.592 38.6569 166.592 42.6063H163.33C163.158 40.374 161.269 39.0004 158.522 39.0004C155.774 39.0004 154.057 40.374 154.057 42.2629C154.057 43.9799 155.259 44.8385 158.178 45.5253L160.582 46.2122C165.047 47.2424 166.936 49.1312 166.936 52.3937C166.936 56.5148 163.673 59.2621 158.178 59.2621C153.199 59.2621 149.936 56.6865 149.765 52.5654C149.936 53.0806 153.199 52.7372 153.199 52.7372ZM174.319 38.8287V42.778H177.41V45.3536H174.319V54.4543C174.319 55.8279 175.006 56.5148 176.38 56.5148H177.41V59.2621C177.067 59.2621 176.38 59.4338 175.521 59.4338C172.259 59.4338 171.057 58.2319 171.057 55.1411V45.3536H168.653V42.6063H170.885V38.6569L174.319 38.8287ZM179.127 51.0201C179.127 45.8688 182.218 42.778 186.854 42.778C191.662 42.778 194.581 46.0405 194.581 51.0201C194.581 56.1713 191.49 59.2621 186.854 59.2621C182.218 59.2621 179.127 56.1713 179.127 51.0201ZM191.319 51.0201C191.319 47.4142 189.601 45.3536 187.026 45.3536C184.278 45.3536 182.733 47.4142 182.733 51.0201C182.733 54.626 184.45 56.6865 187.026 56.6865C189.601 56.5148 191.319 54.4543 191.319 51.0201ZM197.5 42.6063H200.591V45.3536C200.934 43.4648 202.651 42.4346 204.54 42.4346C204.884 42.4346 205.399 42.4346 205.742 42.6063V45.697C205.57 45.5253 204.884 45.5253 204.369 45.5253C202.308 45.5253 200.934 46.899 200.934 49.303V59.0904H197.672C197.5 59.0904 197.5 42.6063 197.5 42.6063ZM221.368 54.2825C221.024 57.2016 218.105 59.2621 214.328 59.2621C209.52 59.2621 206.601 56.1713 206.601 51.0201C206.601 45.8688 209.52 42.4346 214.328 42.4346C218.792 42.4346 221.711 45.5253 221.711 50.5049V51.7069H209.863V52.0503C209.863 54.9694 211.58 56.6865 214.156 56.6865C216.045 56.6865 217.418 55.8279 217.934 54.4543C217.934 54.2825 221.368 54.2825 221.368 54.2825ZM209.863 49.303H218.105C218.105 46.7273 216.388 45.1819 214.156 45.1819C211.752 45.1819 210.207 46.7273 209.863 49.303ZM92.07 19.5972C95.1608 19.5972 97.2213 21.486 97.2213 24.9202C97.2213 28.3544 95.3325 30.2432 92.07 30.2432H88.1206V19.4255H92.07V19.5972ZM90.0094 28.8695H92.07C94.3022 28.8695 95.5042 27.4958 95.5042 24.9202C95.5042 22.3445 94.3022 20.9708 92.07 20.9708H90.0094V28.8695ZM99.1101 26.4656C99.1101 23.7182 100.484 22.3445 103.059 22.3445C105.292 22.3445 107.009 24.0616 107.009 26.4656C107.009 29.2129 105.635 30.5866 103.059 30.5866C100.484 30.5866 99.1101 28.8695 99.1101 26.4656ZM105.12 26.4656C105.12 24.5767 104.261 23.5465 102.888 23.5465C101.514 23.5465 100.655 24.5767 100.655 26.4656C100.655 28.3544 101.514 29.3846 102.888 29.3846C104.261 29.0412 105.12 28.0109 105.12 26.4656ZM116.796 30.4149H115.079L113.362 24.405H113.19L111.473 30.4149H109.756L107.524 22.3445H109.241L110.615 28.5261H110.786L112.503 22.3445H113.877L115.594 28.5261H115.766L117.14 22.3445H118.857C119.2 22.3445 116.796 30.4149 116.796 30.4149ZM121.089 22.3445H122.463V23.5465H122.634C122.978 22.6879 123.836 22.1728 125.038 22.1728C126.927 22.1728 127.957 23.2031 127.957 25.2636V30.4149H126.24V25.4353C126.24 24.2333 125.553 23.5465 124.523 23.5465C123.321 23.5465 122.634 24.405 122.634 25.607V30.4149H120.746C121.089 30.4149 121.089 22.3445 121.089 22.3445ZM130.533 19.082H132.25V30.5866H130.533V19.082ZM134.311 26.4656C134.311 23.7182 135.684 22.3445 138.26 22.3445C140.492 22.3445 142.209 24.0616 142.209 26.4656C142.209 29.2129 140.836 30.5866 138.26 30.5866C135.856 30.5866 134.311 28.8695 134.311 26.4656ZM140.492 26.4656C140.492 24.5767 139.634 23.5465 138.26 23.5465C136.886 23.5465 136.028 24.5767 136.028 26.4656C136.028 28.3544 136.886 29.3846 138.26 29.3846C139.634 29.0412 140.492 28.0109 140.492 26.4656ZM143.755 28.0109C143.755 26.6373 144.785 25.7787 146.846 25.4353L149.078 25.2636V24.5767C149.078 23.7182 148.391 23.3748 147.361 23.3748C146.502 23.3748 145.987 23.7182 145.644 24.2333H143.926C144.098 22.8596 145.3 22.0011 147.189 22.0011C149.249 22.0011 150.28 23.0314 150.28 24.7485V30.4149H148.906V29.2129H148.734C148.391 30.0715 147.361 30.4149 146.33 30.4149C144.785 30.5866 143.755 29.5563 143.755 28.0109ZM148.906 27.4958V26.809L146.846 26.9807C145.815 26.9807 145.128 27.3241 145.128 28.1826C145.128 29.0412 145.815 29.3846 146.502 29.3846C148.048 29.0412 148.906 28.5261 148.906 27.4958ZM152.684 26.4656C152.684 23.8899 153.886 22.3445 155.946 22.3445C156.976 22.3445 158.007 23.0314 158.35 23.7182H158.522V19.082H160.239V30.5866H158.865V29.3846H158.694C158.35 30.2432 157.32 30.7583 156.29 30.7583C153.886 30.5866 152.684 28.8695 152.684 26.4656ZM154.229 26.4656C154.229 28.1826 155.088 29.2129 156.461 29.2129C157.835 29.2129 158.694 28.1826 158.694 26.4656C158.694 24.7485 157.835 23.7182 156.461 23.7182C155.088 23.5465 154.229 24.5767 154.229 26.4656ZM166.936 26.4656C166.936 23.7182 168.309 22.3445 170.885 22.3445C173.117 22.3445 174.834 24.0616 174.834 26.4656C174.834 29.2129 173.461 30.5866 170.885 30.5866C168.309 30.5866 166.936 28.8695 166.936 26.4656ZM172.946 26.4656C172.946 24.5767 172.087 23.5465 170.713 23.5465C169.34 23.5465 168.481 24.5767 168.481 26.4656C168.481 28.3544 169.34 29.3846 170.713 29.3846C172.087 29.0412 172.946 28.0109 172.946 26.4656ZM176.551 22.3445H177.925V23.5465H178.097C178.44 22.6879 179.299 22.1728 180.501 22.1728C182.39 22.1728 183.42 23.2031 183.42 25.2636V30.4149H181.703V25.4353C181.703 24.2333 181.016 23.5465 179.986 23.5465C178.784 23.5465 178.097 24.405 178.097 25.607V30.4149H176.38L176.551 22.3445ZM192.52 20.1123V22.1728H194.409V23.5465H192.52V27.6675C192.52 28.5261 192.864 28.8695 193.722 28.8695H194.409V30.0715H193.551C191.662 30.0715 191.147 29.3846 191.147 27.8392V23.5465H189.945V22.1728H191.147V20.1123H192.52ZM196.642 19.082H198.359V23.7182H198.53C198.874 22.8596 199.732 22.3445 200.934 22.3445C202.651 22.3445 203.853 23.3748 203.853 25.4353V30.5866H202.136V25.7787C202.136 24.5767 201.449 23.8899 200.419 23.8899C199.217 23.8899 198.359 24.7485 198.359 25.9504V30.7583H196.642C196.813 30.7583 196.642 19.082 196.642 19.082ZM212.954 28.3544C212.611 29.728 211.237 30.5866 209.52 30.5866C207.288 30.5866 205.742 28.8695 205.742 26.4656C205.742 23.7182 207.116 22.1728 209.52 22.1728C211.752 22.1728 213.297 23.5465 213.297 26.2938V26.9807H207.459C207.459 28.3544 208.318 29.2129 209.52 29.2129C210.55 29.2129 211.237 28.8695 211.409 28.1826C211.409 28.0109 212.954 28.3544 212.954 28.3544ZM207.288 25.607H211.409C211.409 24.405 210.55 23.5465 209.348 23.5465C208.318 23.5465 207.459 24.405 207.288 25.607Z" fill="white"/>
</svg>
