<svg width="138" height="45" viewBox="0 0 138 45" fill="none" xmlns="http://www.w3.org/2000/svg">
<rect x="0.5" y="0.5" width="136.742" height="43.9762" rx="6.5" stroke="white"/>
<path d="M31.9337 22.3987C31.9337 19.427 34.3932 17.89 34.4957 17.89C33.1635 15.943 30.9089 15.5332 30.1916 15.5332C28.3469 15.3282 26.6048 16.6603 25.7849 16.6603C24.7601 16.6603 23.4279 15.5332 21.7882 15.6356C19.8411 15.6356 17.9965 16.7628 16.9717 18.6073C14.9221 22.1937 16.4593 27.5222 18.4064 30.4939C19.4312 32.0309 20.661 33.4655 22.0957 33.4655C23.5304 33.363 24.1453 32.4408 25.8874 32.4408C27.6296 32.4408 28.2445 33.4655 29.6792 33.2606C31.3188 33.2606 32.2412 31.7235 33.266 30.3914C34.3932 28.7519 34.9056 27.2148 34.9056 27.0099C35.0081 27.2148 31.9337 25.9852 31.9337 22.3987Z" fill="white"/>
<path d="M28.9618 13.6889C29.7817 12.6642 30.2941 11.3321 30.1916 10C29.0643 10 27.6296 10.8198 26.7073 11.742C25.9899 12.5618 25.375 14.0988 25.4775 15.3285C26.8098 15.4309 28.2445 14.7136 28.9618 13.6889Z" fill="white"/>
<path d="M54.7605 28.7321H50.1248L48.9895 32.0434H46.9081L51.4493 19.6499H53.5306L57.9772 32.0434H55.8958L54.7605 28.7321ZM50.5032 27.1238H54.2875L52.49 21.6366L50.5032 27.1238ZM67.6271 27.5969C67.6271 30.4351 66.1134 32.138 63.8428 32.138C62.6129 32.138 61.5722 31.5703 61.0046 30.5297V34.9762H59.2071V22.9611H61.0046V24.4748C61.5722 23.5288 62.6129 22.8665 63.8428 22.8665C66.0188 22.8665 67.6271 24.664 67.6271 27.5969ZM65.7349 27.5969C65.7349 25.7993 64.7889 24.4748 63.3698 24.4748C62.0453 24.4748 61.0046 25.7047 61.0046 27.5969C61.0046 29.489 61.9507 30.7189 63.3698 30.7189C64.7889 30.5297 65.7349 29.3944 65.7349 27.5969ZM77.5608 27.5969C77.5608 30.4351 76.0471 32.138 73.7765 32.138C72.5466 32.138 71.506 31.5703 70.9383 30.5297V34.9762H69.1408V22.9611H70.8437V24.4748C71.4114 23.5288 72.452 22.8665 73.6819 22.8665C75.9525 22.8665 77.5608 24.664 77.5608 27.5969ZM75.5741 27.5969C75.5741 25.7993 74.628 24.4748 73.2089 24.4748C71.8844 24.4748 70.8437 25.7047 70.8437 27.5969C70.8437 29.489 71.7898 30.7189 73.2089 30.7189C74.7226 30.5297 75.5741 29.3944 75.5741 27.5969ZM83.9941 28.5429C84.0887 29.7728 85.3186 30.6243 86.9269 30.6243C88.5352 30.6243 89.6705 29.8674 89.6705 28.6375C89.6705 27.6915 89.0083 27.1238 87.3999 26.6508L85.7916 26.2724C83.5211 25.7047 82.4804 24.664 82.4804 22.9611C82.4804 20.7852 84.2779 19.2715 86.9269 19.2715C89.5759 19.2715 91.3734 20.7852 91.3734 22.9611H89.5759C89.4813 21.7312 88.4406 20.9744 86.9269 20.9744C85.4132 20.9744 84.4671 21.7312 84.4671 22.7719C84.4671 23.718 85.1294 24.191 86.7377 24.5694L88.0622 24.9479C90.522 25.5155 91.5626 26.5562 91.5626 28.3537C91.5626 30.6243 89.7651 32.138 86.7377 32.138C83.9941 32.138 82.1966 30.7189 82.102 28.4483C82.1966 28.7321 83.9941 28.5429 83.9941 28.5429ZM95.6308 20.8798V23.0557H97.3337V24.4748H95.6308V29.489C95.6308 30.2458 96.0092 30.6243 96.766 30.6243H97.3337V32.138C97.1445 32.138 96.766 32.2326 96.293 32.2326C94.4955 32.2326 93.8332 31.5703 93.8332 29.8674V24.4748H92.5087V22.9611H93.7386V20.7852L95.6308 20.8798ZM98.2797 27.5969C98.2797 24.7587 99.9827 23.0557 102.537 23.0557C105.186 23.0557 106.794 24.8533 106.794 27.5969C106.794 30.4351 105.091 32.138 102.537 32.138C99.9827 32.138 98.2797 30.4351 98.2797 27.5969ZM104.997 27.5969C104.997 25.6101 104.051 24.4748 102.632 24.4748C101.118 24.4748 100.266 25.6101 100.266 27.5969C100.266 29.5836 101.213 30.7189 102.632 30.7189C104.051 30.6243 104.997 29.489 104.997 27.5969ZM108.403 22.9611H110.106V24.4748C110.295 23.4342 111.241 22.8665 112.282 22.8665C112.471 22.8665 112.755 22.8665 112.944 22.9611V24.664C112.849 24.5694 112.471 24.5694 112.187 24.5694C111.052 24.5694 110.295 25.3263 110.295 26.6508V32.0434H108.497C108.403 32.0434 108.403 22.9611 108.403 22.9611ZM121.553 29.3944C121.364 31.0027 119.756 32.138 117.674 32.138C115.025 32.138 113.417 30.4351 113.417 27.5969C113.417 24.7587 115.025 22.8665 117.674 22.8665C120.134 22.8665 121.742 24.5694 121.742 27.313V27.9753H115.214V28.1645C115.214 29.7728 116.16 30.7189 117.58 30.7189C118.62 30.7189 119.377 30.2458 119.661 29.489C119.661 29.3944 121.553 29.3944 121.553 29.3944ZM115.214 26.6508H119.756C119.756 25.2317 118.809 24.3802 117.58 24.3802C116.255 24.3802 115.404 25.2317 115.214 26.6508ZM50.314 10.2838C52.0169 10.2838 53.1522 11.3245 53.1522 13.2166C53.1522 15.1088 52.1115 16.1494 50.314 16.1494H48.138V10.1892H50.314V10.2838ZM49.1787 15.3926H50.314C51.5439 15.3926 52.2061 14.6357 52.2061 13.2166C52.2061 11.7975 51.5439 11.0407 50.314 11.0407H49.1787V15.3926ZM54.1929 14.0681C54.1929 12.5544 54.9497 11.7975 56.3688 11.7975C57.5987 11.7975 58.5448 12.7436 58.5448 14.0681C58.5448 15.5818 57.7879 16.3387 56.3688 16.3387C54.9497 16.3387 54.1929 15.3926 54.1929 14.0681ZM57.5041 14.0681C57.5041 13.0274 57.0311 12.4598 56.2742 12.4598C55.5174 12.4598 55.0443 13.0274 55.0443 14.0681C55.0443 15.1088 55.5174 15.6764 56.2742 15.6764C57.0311 15.4872 57.5041 14.9195 57.5041 14.0681ZM63.9374 16.244H62.9913L62.0453 12.9328H61.9507L61.0046 16.244H60.0585L58.8286 11.7975H59.7747L60.5315 15.2034H60.6262L61.5722 11.7975H62.3291L63.2752 15.2034H63.3698L64.1266 11.7975H65.0727C65.2619 11.7975 63.9374 16.244 63.9374 16.244ZM66.3026 11.7975H67.0594V12.4598H67.154C67.3433 11.9867 67.8163 11.7029 68.4785 11.7029C69.5192 11.7029 70.0869 12.2706 70.0869 13.4058V16.244H69.1408V13.5004C69.1408 12.8382 68.7624 12.4598 68.1947 12.4598C67.5325 12.4598 67.154 12.9328 67.154 13.5951V16.244H66.1134C66.3026 16.244 66.3026 11.7975 66.3026 11.7975ZM71.506 10H72.452V16.3387H71.506V10ZM73.5873 14.0681C73.5873 12.5544 74.3442 11.7975 75.7633 11.7975C76.9932 11.7975 77.9392 12.7436 77.9392 14.0681C77.9392 15.5818 77.1824 16.3387 75.7633 16.3387C74.4388 16.3387 73.5873 15.3926 73.5873 14.0681ZM76.9932 14.0681C76.9932 13.0274 76.5201 12.4598 75.7633 12.4598C75.0064 12.4598 74.5334 13.0274 74.5334 14.0681C74.5334 15.1088 75.0064 15.6764 75.7633 15.6764C76.5201 15.4872 76.9932 14.9195 76.9932 14.0681ZM78.7907 14.9196C78.7907 14.1627 79.3583 13.6897 80.4936 13.5004L81.7235 13.4058V13.0274C81.7235 12.5544 81.3451 12.3652 80.7774 12.3652C80.3044 12.3652 80.0206 12.5544 79.8314 12.8382H78.8853C78.9799 12.0813 79.6422 11.6083 80.6828 11.6083C81.8181 11.6083 82.3858 12.176 82.3858 13.122V16.244H81.6289V15.5818H81.5343C81.3451 16.0548 80.7774 16.244 80.2098 16.244C79.3583 16.3387 78.7907 15.771 78.7907 14.9196ZM81.6289 14.6357V14.2573L80.4936 14.3519C79.926 14.3519 79.5476 14.5411 79.5476 15.0142C79.5476 15.4872 79.926 15.6764 80.3044 15.6764C81.1559 15.4872 81.6289 15.2034 81.6289 14.6357ZM83.7103 14.0681C83.7103 12.649 84.3725 11.7975 85.5078 11.7975C86.0754 11.7975 86.6431 12.176 86.8323 12.5544H86.9269V10H87.873V16.3387H87.1161V15.6764H87.0215C86.8323 16.1494 86.2647 16.4333 85.697 16.4333C84.3725 16.3386 83.7103 15.3926 83.7103 14.0681ZM84.5617 14.0681C84.5617 15.0142 85.0348 15.5818 85.7916 15.5818C86.5485 15.5818 87.0215 15.0142 87.0215 14.0681C87.0215 13.122 86.5485 12.5544 85.7916 12.5544C85.0348 12.4598 84.5617 13.0274 84.5617 14.0681ZM91.5626 14.0681C91.5626 12.5544 92.3195 11.7975 93.7386 11.7975C94.9685 11.7975 95.9146 12.7436 95.9146 14.0681C95.9146 15.5818 95.1577 16.3387 93.7386 16.3387C92.3195 16.3387 91.5626 15.3926 91.5626 14.0681ZM94.8739 14.0681C94.8739 13.0274 94.4009 12.4598 93.644 12.4598C92.8871 12.4598 92.4141 13.0274 92.4141 14.0681C92.4141 15.1088 92.8871 15.6764 93.644 15.6764C94.4009 15.4872 94.8739 14.9195 94.8739 14.0681ZM96.8606 11.7975H97.6175V12.4598H97.7121C97.9013 11.9867 98.3744 11.7029 99.0366 11.7029C100.077 11.7029 100.645 12.2706 100.645 13.4058V16.244H99.6989V13.5004C99.6989 12.8382 99.3204 12.4598 98.7528 12.4598C98.0905 12.4598 97.7121 12.9328 97.7121 13.5951V16.244H96.766L96.8606 11.7975ZM105.659 10.5676V11.7029H106.7V12.4598H105.659V14.7303C105.659 15.2034 105.848 15.3926 106.321 15.3926H106.7V16.0548H106.227C105.186 16.0548 104.902 15.6764 104.902 14.8249V12.4598H104.24V11.7029H104.902V10.5676H105.659ZM107.93 10H108.876V12.5544H108.97C109.16 12.0813 109.633 11.7975 110.295 11.7975C111.241 11.7975 111.903 12.3652 111.903 13.5004V16.3387H110.957V13.6897C110.957 13.0274 110.579 12.649 110.011 12.649C109.349 12.649 108.876 13.122 108.876 13.7843V16.4333H107.93C108.024 16.4333 107.93 10 107.93 10ZM116.917 15.1088C116.728 15.8656 115.971 16.3387 115.025 16.3387C113.795 16.3387 112.944 15.3926 112.944 14.0681C112.944 12.5544 113.701 11.7029 115.025 11.7029C116.255 11.7029 117.107 12.4598 117.107 13.9735V14.3519H113.89C113.89 15.1088 114.363 15.5818 115.025 15.5818C115.593 15.5818 115.971 15.3926 116.066 15.0142C116.066 14.9195 116.917 15.1088 116.917 15.1088ZM113.795 13.5951H116.066C116.066 12.9328 115.593 12.4598 114.931 12.4598C114.363 12.4598 113.89 12.9328 113.795 13.5951Z" fill="white"/>
</svg>
