<svg width="40" height="40" viewBox="0 0 40 40" fill="none" xmlns="http://www.w3.org/2000/svg">
<rect x="0.714286" y="0.714286" width="38.5714" height="38.5714" rx="19.2857" fill="#00034A"/>
<rect x="0.714286" y="0.714286" width="38.5714" height="38.5714" rx="19.2857" stroke="white" stroke-width="1.42857"/>
<path d="M16.3958 28.5725C16.7663 28.5725 17.0891 28.441 17.3521 28.178L24.5249 21.089C24.8596 20.7662 25.003 20.4195 25.003 20.0011C25.003 19.5827 24.8476 19.236 24.5249 18.9132L17.3521 11.8242C17.0891 11.5612 16.7783 11.4297 16.3958 11.4297C15.6187 11.4297 14.9971 12.0394 14.9971 12.8045C14.9971 13.187 15.1644 13.5337 15.4394 13.8086L21.7155 20.0011L15.4394 26.1936C15.1644 26.4685 14.9971 26.8152 14.9971 27.1978C14.9971 27.9629 15.6187 28.5725 16.3958 28.5725Z" fill="white"/>
</svg>
