<svg width="1358" height="1466" viewBox="0 0 1358 1466" fill="none" xmlns="http://www.w3.org/2000/svg">
<path d="M1317.56 1174.43C1073.96 1497.46 614.627 1561.84 291.612 1318.22C-31.4202 1074.62 -95.7992 615.285 147.819 292.27C391.419 -30.7277 850.736 -95.1244 1173.75 148.493C1262.41 215.34 1280.31 343.276 1213.48 431.915C1146.64 520.572 1018.7 538.478 930.063 471.649C785.534 362.653 579.97 391.464 470.973 535.993C361.96 680.539 390.789 886.086 535.318 995.082C679.847 1104.08 885.393 1075.28 994.407 930.738C1061.25 842.081 1189.21 824.192 1277.83 891.004C1366.48 957.851 1384.39 1085.79 1317.56 1174.43Z" fill="url(#paint0_linear_2166_9728)"/>
<defs>
<linearGradient id="paint0_linear_2166_9728" x1="1198.98" y1="1206.11" x2="1114.28" y2="-423.094" gradientUnits="userSpaceOnUse">
<stop stop-color="#6B22FF"/>
<stop offset="1" stop-color="#6B22FF" stop-opacity="0.64"/>
</linearGradient>
</defs>
</svg>
