<svg width="40" height="40" viewBox="0 0 40 40" fill="none" xmlns="http://www.w3.org/2000/svg">
<rect x="39.2857" y="39.2857" width="38.5714" height="38.5714" rx="19.2857" transform="rotate(-180 39.2857 39.2857)" fill="#00034A"/>
<rect x="39.2857" y="39.2857" width="38.5714" height="38.5714" rx="19.2857" transform="rotate(-180 39.2857 39.2857)" stroke="white" stroke-width="1.42857"/>
<path d="M23.6042 11.4275C23.2337 11.4275 22.9109 11.559 22.6479 11.822L15.4751 18.911C15.1404 19.2338 14.997 19.5805 14.997 19.9989C14.997 20.4173 15.1524 20.764 15.4751 21.0868L22.6479 28.1758C22.9109 28.4388 23.2217 28.5703 23.6042 28.5703C24.3813 28.5703 25.0029 27.9606 25.0029 27.1955C25.0029 26.813 24.8356 26.4663 24.5606 26.1914L18.2845 19.9989L24.5606 13.8064C24.8356 13.5315 25.0029 13.1848 25.0029 12.8022C25.0029 12.0371 24.3813 11.4275 23.6042 11.4275Z" fill="white"/>
</svg>
