<svg width="876" height="892" viewBox="0 0 876 892" fill="none" xmlns="http://www.w3.org/2000/svg">
<path d="M424.729 885.86C135.757 926.369 -131.327 724.949 -171.818 435.977C-212.327 147.005 -10.9075 -120.079 278.065 -160.57C567.019 -201.061 834.103 0.340652 874.594 289.313C885.717 368.617 829.604 442.993 750.318 454.116C671.014 465.238 596.637 409.125 585.515 329.839C567.394 200.546 447.866 110.406 318.573 128.527C189.263 146.648 99.14 266.175 117.261 395.468C135.382 524.761 254.891 614.902 384.202 596.781C463.506 585.658 537.882 641.788 549.005 721.057C560.127 800.361 504.015 874.737 424.729 885.86Z" fill="url(#paint0_linear_2119_38845)"/>
<defs>
<linearGradient id="paint0_linear_2119_38845" x1="348.096" y1="841.548" x2="1135.77" y2="-32.5134" gradientUnits="userSpaceOnUse">
<stop stop-color="#6B22FF"/>
<stop offset="1" stop-color="#6B22FF" stop-opacity="0.64"/>
</linearGradient>
</defs>
</svg>
