<svg width="1013" height="1017" viewBox="0 0 1013 1017" fill="none" xmlns="http://www.w3.org/2000/svg">
<path d="M1140.34 1139.49C879.468 1400.17 456.525 1400.17 195.654 1139.49C-65.2179 878.808 -65.2179 456.175 195.654 195.494C456.503 -65.1646 879.445 -65.1646 1140.32 195.494C1211.89 267.019 1211.89 384.739 1140.32 456.265C1068.74 527.79 950.933 527.79 879.355 456.265C762.632 339.627 573.361 339.627 456.638 456.265C339.892 572.925 339.915 762.035 456.638 878.673C573.361 995.311 762.61 995.333 879.355 878.673C950.933 807.148 1068.76 807.148 1140.32 878.673C1211.89 950.198 1211.89 1067.92 1140.32 1139.44L1140.34 1139.49Z" fill="url(#paint0_linear_1888_9625)"/>
<defs>
<linearGradient id="paint0_linear_1888_9625" x1="595.408" y1="1272.48" x2="1595.83" y2="276.012" gradientUnits="userSpaceOnUse">
<stop stop-color="#6B22FF"/>
<stop offset="1" stop-color="#6B22FF" stop-opacity="0.64"/>
</linearGradient>
</defs>
</svg>
