<svg width="80" height="80" viewBox="0 0 80 80" fill="none" xmlns="http://www.w3.org/2000/svg">
<path fill-rule="evenodd" clip-rule="evenodd" d="M10 21C10 16.3056 13.8056 12.5 18.5 12.5H62.5C67.1944 12.5 71 16.3056 71 21V49C71 53.6944 67.1944 57.5 62.5 57.5H50.5369C50.057 57.5 49.6061 57.7296 49.3238 58.1177L44.1393 65.2464C42.3422 67.7174 38.6578 67.7174 36.8607 65.2464L31.6762 58.1177C31.3939 57.7296 30.943 57.5 30.4631 57.5H18.5C13.8056 57.5 10 53.6944 10 49V21ZM18.5 17.5C16.567 17.5 15 19.067 15 21V49C15 50.933 16.567 52.5 18.5 52.5H30.4631C32.5427 52.5 34.4967 53.495 35.7199 55.1769L40.5 61.7495L45.2801 55.1769C46.5033 53.495 48.4573 52.5 50.5369 52.5H62.5C64.433 52.5 66 50.933 66 49V21C66 19.067 64.433 17.5 62.5 17.5H18.5Z" fill="#00034A"/>
<path fill-rule="evenodd" clip-rule="evenodd" d="M28.0005 31C28.0005 29.6193 29.1198 28.5 30.5005 28.5H50.5005C51.8812 28.5 53.0005 29.6193 53.0005 31C53.0005 32.3807 51.8812 33.5 50.5005 33.5H30.5005C29.1198 33.5 28.0005 32.3807 28.0005 31Z" fill="#343A40"/>
<path fill-rule="evenodd" clip-rule="evenodd" d="M28.0005 39C28.0005 37.6193 29.1198 36.5 30.5005 36.5H50.5005C51.8812 36.5 53.0005 37.6193 53.0005 39C53.0005 40.3807 51.8812 41.5 50.5005 41.5H30.5005C29.1198 41.5 28.0005 40.3807 28.0005 39Z" fill="#343A40"/>
</svg>
