<svg width="80" height="80" viewBox="0 0 80 80" fill="none" xmlns="http://www.w3.org/2000/svg">
<path fill-rule="evenodd" clip-rule="evenodd" d="M10 25.1938C10 20.3082 13.9606 16.3477 18.8462 16.3477H61.1538C66.0394 16.3477 70 20.3082 70 25.1938V61.1553C70 66.0409 66.0394 70.0015 61.1538 70.0015H18.8462C13.9606 70.0015 10 66.0409 10 61.1553V25.1938ZM18.8462 21.3477C16.722 21.3477 15 23.0696 15 25.1938V61.1553C15 63.2795 16.722 65.0015 18.8462 65.0015H61.1538C63.278 65.0015 65 63.2795 65 61.1553V25.1938C65 23.0696 63.278 21.3477 61.1538 21.3477H18.8462Z" fill="#00034A"/>
<path fill-rule="evenodd" clip-rule="evenodd" d="M10 33.6523C10 32.2716 11.1193 31.1523 12.5 31.1523H67.5C68.8807 31.1523 70 32.2716 70 33.6523C70 35.0331 68.8807 36.1523 67.5 36.1523H12.5C11.1193 36.1523 10 35.0331 10 33.6523Z" fill="#00034A"/>
<path fill-rule="evenodd" clip-rule="evenodd" d="M25.1935 10C26.5742 10 27.6935 11.1193 27.6935 12.5V25.1923C27.6935 26.573 26.5742 27.6923 25.1935 27.6923C23.8128 27.6923 22.6935 26.573 22.6935 25.1923V12.5C22.6935 11.1193 23.8128 10 25.1935 10Z" fill="#00034A"/>
<path fill-rule="evenodd" clip-rule="evenodd" d="M54.8065 10C56.1872 10 57.3065 11.1193 57.3065 12.5V25.1923C57.3065 26.573 56.1872 27.6923 54.8065 27.6923C53.4258 27.6923 52.3065 26.573 52.3065 25.1923V12.5C52.3065 11.1193 53.4258 10 54.8065 10Z" fill="#00034A"/>
<path fill-rule="evenodd" clip-rule="evenodd" d="M24.1339 48.4594C25.8863 48.4594 27.307 47.0388 27.307 45.2864C27.307 43.5339 25.8863 42.1133 24.1339 42.1133C22.3814 42.1133 20.9608 43.5339 20.9608 45.2864C20.9608 47.0388 22.3814 48.4594 24.1339 48.4594ZM27.3059 55.8632C27.3059 57.6157 25.8852 59.0363 24.1328 59.0363C22.3804 59.0363 20.9597 57.6157 20.9597 55.8632C20.9597 54.1108 22.3804 52.6902 24.1328 52.6902C25.8852 52.6902 27.3059 54.1108 27.3059 55.8632ZM37.8828 55.8632C37.8828 57.6157 36.4622 59.0363 34.7097 59.0363C32.9573 59.0363 31.5366 57.6157 31.5366 55.8632C31.5366 54.1108 32.9573 52.6902 34.7097 52.6902C36.4622 52.6902 37.8828 54.1108 37.8828 55.8632ZM45.2866 59.0363C47.0391 59.0363 48.4597 57.6157 48.4597 55.8632C48.4597 54.1108 47.0391 52.6902 45.2866 52.6902C43.5342 52.6902 42.1136 54.1108 42.1136 55.8632C42.1136 57.6157 43.5342 59.0363 45.2866 59.0363ZM59.0366 55.8632C59.0366 57.6157 57.616 59.0363 55.8636 59.0363C54.1111 59.0363 52.6905 57.6157 52.6905 55.8632C52.6905 54.1108 54.1111 52.6902 55.8636 52.6902C57.616 52.6902 59.0366 54.1108 59.0366 55.8632ZM37.8839 45.2864C37.8839 47.0388 36.4632 48.4594 34.7108 48.4594C32.9584 48.4594 31.5377 47.0388 31.5377 45.2864C31.5377 43.5339 32.9584 42.1133 34.7108 42.1133C36.4632 42.1133 37.8839 43.5339 37.8839 45.2864ZM45.2877 48.4594C47.0402 48.4594 48.4608 47.0388 48.4608 45.2864C48.4608 43.5339 47.0402 42.1133 45.2877 42.1133C43.5353 42.1133 42.1146 43.5339 42.1146 45.2864C42.1146 47.0388 43.5353 48.4594 45.2877 48.4594ZM59.0377 45.2864C59.0377 47.0388 57.6171 48.4594 55.8646 48.4594C54.1122 48.4594 52.6916 47.0388 52.6916 45.2864C52.6916 43.5339 54.1122 42.1133 55.8646 42.1133C57.6171 42.1133 59.0377 43.5339 59.0377 45.2864Z" fill="#00034A"/>
</svg>
