<svg width="80" height="80" viewBox="0 0 80 80" fill="none" xmlns="http://www.w3.org/2000/svg">
<path d="M60.0002 42.5006C58.6195 42.5006 57.5002 43.6199 57.5002 45.0006C57.5002 46.3813 58.6195 47.5006 60.0002 47.5006H60.8335C62.2142 47.5006 63.3335 46.3813 63.3335 45.0006C63.3335 43.6199 62.2142 42.5006 60.8335 42.5006H60.0002Z" fill="#00034A"/>
<path fill-rule="evenodd" clip-rule="evenodd" d="M54.0386 14.21C53.6113 12.9281 52.2427 12.2178 50.9485 12.606L17.9388 22.5089C13.0593 22.7157 9.16687 26.7369 9.16687 31.6673L9.16687 58.3339C9.16687 63.3965 13.2709 67.5006 18.3335 67.5006H58.3335C63.3961 67.5006 67.5002 63.3965 67.5002 58.3339V53.6059C69.471 52.6697 70.8335 50.6609 70.8335 48.3339V41.6673C70.8335 39.3403 69.471 37.3315 67.5002 36.3953V31.6673C67.5002 26.6046 63.3961 22.5006 58.3335 22.5006H56.8021L54.0386 14.21ZM55.0002 54.1673H62.5002V58.3339C62.5002 60.6351 60.6347 62.5006 58.3335 62.5006L18.3335 62.5006C16.0324 62.5006 14.1669 60.6351 14.1669 58.3339L14.1669 31.6673C14.1669 29.3814 16.0075 27.5255 18.2875 27.5008C18.3215 27.5015 18.3555 27.5014 18.3897 27.5006L54.9418 27.5006C54.9804 27.5015 55.0191 27.5015 55.0579 27.5006H58.3335C60.6347 27.5006 62.5002 29.3661 62.5002 31.6673L62.5002 35.8339H55.0002C51.7785 35.8339 49.1669 38.4456 49.1669 41.6673V48.3339C49.1669 51.5556 51.7785 54.1673 55.0002 54.1673ZM51.5316 22.5006L50.0621 18.0921L35.3671 22.5006L51.5316 22.5006ZM55.0002 40.8339C54.54 40.8339 54.1669 41.207 54.1669 41.6673V48.3339C54.1669 48.7942 54.54 49.1673 55.0002 49.1673H65.0002C65.4604 49.1673 65.8335 48.7942 65.8335 48.3339V41.6673C65.8335 41.207 65.4604 40.8339 65.0002 40.8339L55.0002 40.8339Z" fill="#00034A"/>
</svg>
