<svg width="30" height="12" viewBox="0 0 30 12" fill="none" xmlns="http://www.w3.org/2000/svg">
<path fill-rule="evenodd" clip-rule="evenodd" d="M2.5 0.5H27.5C28.6046 0.5 29.5 1.39543 29.5 2.5V9.5C29.5 10.6046 28.6046 11.5 27.5 11.5H2.5C1.39543 11.5 0.5 10.6046 0.5 9.5V2.5C0.5 1.39543 1.39543 0.5 2.5 0.5ZM2.5 2C2.22386 2 2 2.22386 2 2.5V9.5C2 9.77614 2.22386 10 2.5 10H27.5C27.7761 10 28 9.77614 28 9.5V2.5C28 2.22386 27.7761 2 27.5 2H2.5Z" fill="#343A40"/>
<path d="M24.6244 7.69981C24.1726 7.69981 23.8296 7.55647 23.5954 7.2698C23.3645 6.98314 23.249 6.5598 23.249 5.9998C23.249 5.4398 23.3645 5.01647 23.5954 4.7298C23.8296 4.44314 24.1726 4.2998 24.6244 4.2998C25.0761 4.2998 25.4174 4.44314 25.6483 4.7298C25.8826 5.01647 25.9997 5.4398 25.9997 5.9998C25.9997 6.5598 25.8826 6.98314 25.6483 7.2698C25.4174 7.55647 25.0761 7.69981 24.6244 7.69981ZM24.6244 7.0298C24.7482 7.0298 24.8486 6.99647 24.9255 6.9298C25.0025 6.8598 25.0577 6.7498 25.0912 6.5998C25.128 6.44647 25.1464 6.24647 25.1464 5.9998C25.1464 5.75314 25.128 5.5548 25.0912 5.4048C25.0577 5.25147 25.0025 5.14147 24.9255 5.0748C24.8486 5.0048 24.7482 4.9698 24.6244 4.9698C24.5039 4.9698 24.4035 5.0048 24.3232 5.0748C24.2462 5.14147 24.1893 5.25147 24.1525 5.4048C24.1191 5.5548 24.1023 5.75314 24.1023 5.9998C24.1023 6.24647 24.1191 6.44647 24.1525 6.5998C24.1893 6.7498 24.2462 6.8598 24.3232 6.9298C24.4035 6.99647 24.5039 7.0298 24.6244 7.0298Z" fill="#343A40"/>
<path d="M21.1439 7.69981C20.6921 7.69981 20.3491 7.55647 20.1149 7.2698C19.884 6.98314 19.7686 6.5598 19.7686 5.9998C19.7686 5.4398 19.884 5.01647 20.1149 4.7298C20.3491 4.44314 20.6921 4.2998 21.1439 4.2998C21.5956 4.2998 21.937 4.44314 22.1678 4.7298C22.4021 5.01647 22.5192 5.4398 22.5192 5.9998C22.5192 6.5598 22.4021 6.98314 22.1678 7.2698C21.937 7.55647 21.5956 7.69981 21.1439 7.69981ZM21.1439 7.0298C21.2677 7.0298 21.3681 6.99647 21.445 6.9298C21.522 6.8598 21.5772 6.7498 21.6107 6.5998C21.6475 6.44647 21.6659 6.24647 21.6659 5.9998C21.6659 5.75314 21.6475 5.5548 21.6107 5.4048C21.5772 5.25147 21.522 5.14147 21.445 5.0748C21.3681 5.0048 21.2677 4.9698 21.1439 4.9698C21.0234 4.9698 20.923 5.0048 20.8427 5.0748C20.7657 5.14147 20.7089 5.25147 20.6721 5.4048C20.6386 5.5548 20.6219 5.75314 20.6219 5.9998C20.6219 6.24647 20.6386 6.44647 20.6721 6.5998C20.7089 6.7498 20.7657 6.8598 20.8427 6.9298C20.923 6.99647 21.0234 7.0298 21.1439 7.0298Z" fill="#343A40"/>
<path d="M17.6624 7.69981C17.2107 7.69981 16.8677 7.55647 16.6335 7.2698C16.4026 6.98314 16.2871 6.5598 16.2871 5.9998C16.2871 5.4398 16.4026 5.01647 16.6335 4.7298C16.8677 4.44314 17.2107 4.2998 17.6624 4.2998C18.1142 4.2998 18.4555 4.44314 18.6864 4.7298C18.9206 5.01647 19.0378 5.4398 19.0378 5.9998C19.0378 6.5598 18.9206 6.98314 18.6864 7.2698C18.4555 7.55647 18.1142 7.69981 17.6624 7.69981ZM17.6624 7.0298C17.7862 7.0298 17.8866 6.99647 17.9636 6.9298C18.0406 6.8598 18.0958 6.7498 18.1292 6.5998C18.1661 6.44647 18.1845 6.24647 18.1845 5.9998C18.1845 5.75314 18.1661 5.5548 18.1292 5.4048C18.0958 5.25147 18.0406 5.14147 17.9636 5.0748C17.8866 5.0048 17.7862 4.9698 17.6624 4.9698C17.542 4.9698 17.4416 5.0048 17.3613 5.0748C17.2843 5.14147 17.2274 5.25147 17.1906 5.4048C17.1571 5.5548 17.1404 5.75314 17.1404 5.9998C17.1404 6.24647 17.1571 6.44647 17.1906 6.5998C17.2274 6.7498 17.2843 6.8598 17.3613 6.9298C17.4416 6.99647 17.542 7.0298 17.6624 7.0298Z" fill="#343A40"/>
<path d="M11.7902 7.28961L11.6396 6.99961H13.9536V7.64961H11.1125V7.02961L13.2257 4.70961L13.3763 4.99961H11.1477V4.34961H13.8933V4.96961L11.7902 7.28961Z" fill="#343A40"/>
<path d="M10.6836 4.34961L9.51407 6.44461V7.64961H8.65073V6.44461L7.4812 4.34961H8.37466L8.84147 5.25461L9.08742 5.80461L9.33839 5.25461L9.8052 4.34961H10.6836Z" fill="#343A40"/>
<path d="M7.23252 7.64961H6.20353L5.58112 6.59461L4.97879 7.64961H4L5.12435 5.98961L4.06525 4.34961H5.0842L5.65139 5.35961L6.22361 4.34961H7.16225L6.10314 5.96461L7.23252 7.64961Z" fill="#343A40"/>
</svg>
