<svg width="19" height="24" viewBox="0 0 19 24" fill="none" xmlns="http://www.w3.org/2000/svg">
<path fill-rule="evenodd" clip-rule="evenodd" d="M9.20826 5.04381C6.75345 5.04381 4.76342 7.03383 4.76342 9.48865C4.76342 11.9435 6.75345 13.9335 9.20826 13.9335C11.6631 13.9335 13.6531 11.9435 13.6531 9.48865C13.6531 7.03383 11.6631 5.04381 9.20826 5.04381ZM6.54136 9.48865C6.54136 8.01576 7.73537 6.82174 9.20826 6.82174C10.6812 6.82174 11.8752 8.01576 11.8752 9.48865C11.8752 10.9615 10.6812 12.1556 9.20826 12.1556C7.73537 12.1556 6.54136 10.9615 6.54136 9.48865Z" fill="#00034A"/>
<path fill-rule="evenodd" clip-rule="evenodd" d="M14.0679 1.38696C11.092 -0.462322 7.32446 -0.46232 4.3486 1.38697C-0.13832 4.17528 -1.36392 10.1592 1.66553 14.487L7.81793 23.2761C8.49355 24.2413 9.92297 24.2413 10.5986 23.2761L16.751 14.487C19.7804 10.1592 18.5548 4.17527 14.0679 1.38696ZM5.28703 2.89707C7.68823 1.40489 10.7282 1.40489 13.1295 2.89706C16.7499 5.14694 17.7389 9.97535 15.2944 13.4674L9.20826 22.162L3.12207 13.4674C0.677626 9.97533 1.66655 5.14694 5.28703 2.89707Z" fill="#00034A"/>
</svg>
