<svg width="150" height="38" viewBox="0 0 150 38" fill="none" xmlns="http://www.w3.org/2000/svg">
<path d="M22.882 33.661C17.6474 38.8956 9.16062 38.8956 3.92598 33.661C-1.30866 28.4263 -1.30866 19.9396 3.92598 14.7049C9.16017 9.47075 17.6469 9.47075 22.8816 14.7049C24.3178 16.1412 24.3178 18.5051 22.8816 19.9414C21.4453 21.3777 19.0814 21.3777 17.6451 19.9414C15.303 17.5992 11.505 17.5992 9.16288 19.9414C6.82027 22.284 6.82073 26.0815 9.16288 28.4236C11.505 30.7658 15.3025 30.7662 17.6451 28.4236C19.0814 26.9873 21.4457 26.9873 22.8816 28.4236C24.3178 29.8599 24.3178 32.2238 22.8816 33.6601L22.882 33.661Z" fill="#00034A"/>
<path d="M39.6436 10.7793C32.2408 10.7793 26.2397 16.7803 26.2397 24.1827C26.2397 31.5851 32.2408 37.5866 39.6436 37.5866C42.0347 37.5866 44.279 36.9606 46.2226 35.8636C46.8825 36.8959 48.0394 37.5862 49.3443 37.5862C51.3753 37.5862 53.0466 35.9153 53.0471 33.8843H53.0475V24.1827C53.0475 16.7803 47.0465 10.7793 39.6436 10.7793ZM39.6436 30.1806C36.3313 30.1806 33.6458 27.4955 33.6458 24.1827C33.6458 20.8699 36.3313 18.1849 39.6436 18.1849C42.956 18.1849 45.6415 20.8704 45.6415 24.1827C45.6415 27.4951 42.956 30.1806 39.6436 30.1806Z" fill="#00034A"/>
<path d="M68.732 10.7801C66.576 10.7801 64.5387 11.2892 62.7342 12.1937V4.11686H62.7337C62.7337 2.08587 61.0619 0.414062 59.0309 0.414062C56.9999 0.414062 55.3281 2.08587 55.3281 4.11686V24.1844C55.3286 31.5868 61.3296 37.5874 68.732 37.5874C76.1344 37.5874 82.1359 31.5864 82.1359 24.1835C82.1359 16.7806 76.1349 10.7801 68.732 10.7801ZM68.732 30.1814C65.4197 30.1814 62.7346 27.4968 62.7342 24.184C62.7342 20.8711 65.4197 18.1857 68.732 18.1857C72.0444 18.1857 74.7299 20.8711 74.7299 24.1835C74.7299 27.4959 72.0444 30.1814 68.732 30.1814Z" fill="#00034A"/>
<path d="M97.8209 10.7796C95.6649 10.7796 93.6275 11.2887 91.823 12.1932V4.11686H91.8226C91.8226 2.08542 90.1508 0.414062 88.1198 0.414062C86.0888 0.414062 84.417 2.08542 84.417 4.11686V24.1844C84.4179 31.5868 90.4185 37.5869 97.8209 37.5869C105.223 37.5869 111.225 31.5859 111.225 24.183C111.225 16.7802 105.224 10.7796 97.8209 10.7796ZM97.8209 30.1809C94.509 30.1809 91.8235 27.4963 91.823 24.184V24.183C91.823 20.8707 94.5085 18.1852 97.8209 18.1852C101.133 18.1852 103.819 20.8707 103.819 24.183C103.819 27.4954 101.133 30.1809 97.8209 30.1809Z" fill="#00034A"/>
<path d="M120.912 4.11686V33.9616H120.911C120.869 35.9582 119.214 37.5874 117.209 37.5874C115.203 37.5874 113.548 35.9582 113.507 33.9616C113.506 33.9358 113.506 33.9104 113.506 33.8846V4.11686C113.506 2.08542 115.178 0.414062 117.209 0.414062C119.24 0.414062 120.911 2.08542 120.911 4.11686H120.912Z" fill="#00034A"/>
<path d="M150 24.1832C150 26.2146 148.329 27.886 146.297 27.886H136.592C134.561 27.8851 132.89 26.2142 132.89 24.1827C132.89 22.1513 134.561 20.4804 136.592 20.4799H141.315C140.217 19.0826 138.511 18.1853 136.597 18.1853C133.284 18.1853 130.599 20.8708 130.599 24.1832C130.599 27.4955 133.284 30.181 136.597 30.181C138.628 30.181 140.3 31.8528 140.3 33.8838C140.3 35.9148 138.628 37.5866 136.597 37.5866C129.194 37.5871 123.193 31.586 123.193 24.1832C123.193 16.7803 129.194 10.7793 136.597 10.7793C144 10.7793 150 16.7803 150 24.1832Z" fill="#00034A"/>
</svg>
