<svg width="100" height="28" viewBox="0 0 100 28" fill="none" xmlns="http://www.w3.org/2000/svg">
<path d="M26.4352 7.55469C21.0408 7.55469 16.668 11.9275 16.668 17.3215C16.668 22.7155 21.0408 27.0887 26.4352 27.0887C31.8296 27.0887 36.2025 22.7158 36.2025 17.3215C36.2025 11.9272 31.8296 7.55469 26.4352 7.55469ZM26.4352 21.692C24.0216 21.692 22.0647 19.7355 22.0647 17.3215C22.0647 14.9075 24.0216 12.951 26.4352 12.951C28.8489 12.951 30.8058 14.9079 30.8058 17.3215C30.8058 19.7352 28.8489 21.692 26.4352 21.692Z" fill="white"/>
<path d="M45.9743 7.55469C40.5799 7.55469 36.207 11.9275 36.207 17.3215C36.207 22.7155 40.5799 27.0886 45.9743 27.0886C51.3687 27.0886 55.7416 22.7158 55.7416 17.3215C55.7416 11.9272 51.3687 7.55469 45.9743 7.55469ZM45.9743 21.692C43.5606 21.692 41.6037 19.7355 41.6037 17.3215C41.6037 14.9075 43.5606 12.951 45.9743 12.951C48.388 12.951 50.3449 14.9079 50.3449 17.3215C50.3449 19.7352 48.388 21.692 45.9743 21.692Z" fill="white"/>
<path d="M41.6037 2.69815V17.3207H41.6034C41.6034 18.8009 40.3852 20.0185 38.9052 20.0185C37.4253 20.0185 36.2074 18.8009 36.207 17.3207V2.69815C36.207 1.21821 37.4249 0 38.9052 0C40.3855 0 41.6034 1.21821 41.6034 2.69815H41.6037Z" fill="white"/>
<path d="M36.1907 17.3427V24.6539H36.1903C36.1903 26.1342 34.9721 27.3518 33.4921 27.3518C32.0122 27.3518 30.7943 26.1342 30.7939 24.6539L30.7943 17.3427C30.7943 15.8627 32.0122 14.6445 33.4925 14.6445C34.9728 14.6445 36.1907 15.8628 36.1907 17.3427Z" fill="white"/>
<path d="M16.6739 24.2633C12.8595 28.0776 6.67525 28.0776 2.86082 24.2633C-0.953607 20.4489 -0.953607 14.2648 2.86082 10.4504C6.67492 6.63633 12.8591 6.63633 16.6736 10.4504C17.7202 11.497 17.7202 13.2195 16.6736 14.2661C15.627 15.3127 13.9044 15.3127 12.8578 14.2661C11.1511 12.5594 8.38361 12.5594 6.6769 14.2661C4.96986 15.9731 4.97019 18.7402 6.6769 20.4469C8.38361 22.1536 11.1508 22.1539 12.8578 20.4469C13.9044 19.4003 15.6273 19.4003 16.6736 20.4469C17.7202 21.4935 17.7202 23.216 16.6736 24.2626L16.6739 24.2633Z" fill="white"/>
<path d="M91.6574 27.0307C86.3152 27.7796 81.3776 24.056 80.629 18.7138C79.8801 13.3717 83.6038 8.43412 88.946 7.68556C94.2879 6.93701 99.2255 10.6603 99.9741 16.0025C100.18 17.4686 99.1424 18.8435 97.6766 19.0492C96.2105 19.2548 94.8355 18.2174 94.6299 16.7517C94.2949 14.3615 92.0852 12.6951 89.6949 13.0301C87.3043 13.3651 85.6382 15.5747 85.9732 17.9649C86.3082 20.3552 88.5176 22.0216 90.9082 21.6866C92.3743 21.481 93.7493 22.5186 93.9549 23.9841C94.1605 25.4501 93.1232 26.8251 91.6574 27.0307Z" fill="white"/>
<path d="M90.267 20.0565C91.7572 20.0565 92.9652 18.8485 92.9652 17.3583C92.9652 15.8682 91.7572 14.6602 90.267 14.6602C88.7769 14.6602 87.5688 15.8682 87.5688 17.3583C87.5688 18.8485 88.7769 20.0565 90.267 20.0565Z" fill="white"/>
<path d="M65.3483 7.58594C59.9539 7.58594 55.5811 11.9588 55.5811 17.3528C55.5811 22.7467 59.9539 27.1199 65.3483 27.1199C70.7427 27.1199 75.1156 22.7471 75.1156 17.3528C75.1156 11.9584 70.7427 7.58594 65.3483 7.58594ZM65.3483 21.7233C62.9346 21.7233 60.9778 19.7667 60.9778 17.3528C60.9778 14.9388 62.9346 12.9822 65.3483 12.9822C67.762 12.9822 69.7189 14.9391 69.7189 17.3528C69.7189 19.7664 67.762 21.7233 65.3483 21.7233Z" fill="white"/>
<path d="M60.9778 2.7294V17.3519H60.9774C60.9774 18.8318 59.7589 20.0494 58.2792 20.0494C56.7996 20.0494 55.5814 18.8318 55.5811 17.3519V2.7294C55.5811 1.24913 56.799 0.03125 58.2792 0.03125C59.7595 0.03125 60.9774 1.24913 60.9774 2.7294H60.9778Z" fill="white"/>
<path d="M80.5168 2.7294V24.4767H80.5158C80.4858 25.9315 79.2798 27.1187 77.8183 27.1187C76.3568 27.1187 75.1511 25.9315 75.1208 24.4767C75.1204 24.4579 75.1201 24.4394 75.1201 24.4206V2.7294C75.1201 1.24913 76.3383 0.03125 77.8183 0.03125C79.2983 0.03125 80.5165 1.24913 80.5165 2.7294H80.5168Z" fill="white"/>
<path d="M79.6261 23.8686H79.6255V23.8125C79.6255 23.8313 79.6258 23.8498 79.6261 23.8686Z" fill="white"/>
</svg>
