<svg width="1015" height="304" viewBox="0 0 1015 304" fill="none" xmlns="http://www.w3.org/2000/svg">
<path d="M1140.34 108.489C879.468 369.17 456.525 369.17 195.654 108.489C-65.2179 -152.192 -65.2179 -574.825 195.654 -835.506C456.503 -1096.16 879.445 -1096.16 1140.32 -835.506C1211.89 -763.981 1211.89 -646.261 1140.32 -574.735C1068.74 -503.21 950.933 -503.21 879.355 -574.735C762.632 -691.373 573.361 -691.373 456.638 -574.735C339.893 -458.075 339.915 -268.965 456.638 -152.327C573.361 -35.6894 762.61 -35.6668 879.355 -152.327C950.933 -223.852 1068.76 -223.852 1140.32 -152.327C1211.89 -80.8016 1211.89 36.9187 1140.32 108.444L1140.34 108.489Z" fill="url(#paint0_linear_2049_12651)"/>
<defs>
<linearGradient id="paint0_linear_2049_12651" x1="595.408" y1="241.477" x2="1595.83" y2="-754.988" gradientUnits="userSpaceOnUse">
<stop stop-color="#6B22FF"/>
<stop offset="1" stop-color="#6B22FF" stop-opacity="0.64"/>
</linearGradient>
</defs>
</svg>
