<svg width="102" height="26" viewBox="0 0 102 26" fill="none" xmlns="http://www.w3.org/2000/svg">
<path d="M15.5598 23.3271C12.0002 26.8867 6.22921 26.8867 2.66966 23.3271C-0.889888 19.7676 -0.889888 13.9966 2.66966 10.437C6.22891 6.87777 11.9999 6.87777 15.5594 10.437C16.5361 11.4137 16.5361 13.0211 15.5594 13.9978C14.5828 14.9745 12.9753 14.9745 11.9987 13.9978C10.406 12.4051 7.82342 12.4051 6.23075 13.9978C4.63778 15.5908 4.63809 18.173 6.23075 19.7657C7.82342 21.3584 10.4057 21.3587 11.9987 19.7657C12.9753 18.789 14.5831 18.789 15.5594 19.7657C16.5361 20.7424 16.5361 22.3498 15.5594 23.3265L15.5598 23.3271Z" fill="white"/>
<path d="M26.9574 7.76953C21.9235 7.76953 17.8428 11.8502 17.8428 16.8839C17.8428 21.9175 21.9235 25.9985 26.9574 25.9985C28.5833 25.9985 30.1095 25.5728 31.4311 24.8269C31.8799 25.5288 32.6665 25.9982 33.5538 25.9982C34.9349 25.9982 36.0714 24.862 36.0717 23.4809H36.072V16.8839C36.072 11.8502 31.9914 7.76953 26.9574 7.76953ZM26.9574 20.9624C24.705 20.9624 22.8789 19.1366 22.8789 16.8839C22.8789 14.6311 24.705 12.8053 26.9574 12.8053C29.2098 12.8053 31.0359 14.6315 31.0359 16.8839C31.0359 19.1363 29.2098 20.9624 26.9574 20.9624Z" fill="white"/>
<path d="M46.7377 7.76958C45.2716 7.76958 43.8862 8.11577 42.6591 8.73085V3.2386H42.6588C42.6588 1.85753 41.522 0.720703 40.1409 0.720703C38.7599 0.720703 37.623 1.85753 37.623 3.2386V16.8845C37.6234 21.9182 41.704 25.9985 46.7377 25.9985C51.7713 25.9985 55.8523 21.9179 55.8523 16.8839C55.8523 11.85 51.7716 7.76958 46.7377 7.76958ZM46.7377 20.9624C44.4853 20.9624 42.6595 19.1369 42.6591 16.8842C42.6591 14.6315 44.4853 12.8054 46.7377 12.8054C48.9901 12.8054 50.8162 14.6315 50.8162 16.8839C50.8162 19.1363 48.9901 20.9624 46.7377 20.9624Z" fill="white"/>
<path d="M66.518 7.76927C65.0519 7.76927 63.6665 8.11546 62.4394 8.73054V3.2386H62.4391C62.4391 1.85722 61.3023 0.720703 59.9212 0.720703C58.5401 0.720703 57.4033 1.85722 57.4033 3.2386V16.8845C57.4039 21.9182 61.4843 25.9982 66.518 25.9982C71.5516 25.9982 75.6326 21.9175 75.6326 16.8836C75.6326 11.8497 71.5519 7.76927 66.518 7.76927ZM66.518 20.9621C64.2659 20.9621 62.4397 19.1366 62.4394 16.8842V16.8836C62.4394 14.6312 64.2655 12.8051 66.518 12.8051C68.7704 12.8051 70.5965 14.6312 70.5965 16.8836C70.5965 19.136 68.7704 20.9621 66.518 20.9621Z" fill="white"/>
<path d="M82.2202 3.2386V23.533H82.2193C82.1912 24.8907 81.0658 25.9985 79.702 25.9985C78.3382 25.9985 77.213 24.8907 77.1847 23.533C77.1844 23.5154 77.1841 23.4982 77.1841 23.4806V3.2386C77.1841 1.85722 78.3209 0.720703 79.702 0.720703C81.083 0.720703 82.2199 1.85722 82.2199 3.2386H82.2202Z" fill="white"/>
<path d="M102 16.8842C102 18.2655 100.864 19.4021 99.4825 19.4021H92.883C91.502 19.4014 90.3654 18.2652 90.3654 16.8839C90.3654 15.5025 91.502 14.3663 92.883 14.366H96.0942C95.3476 13.4158 94.188 12.8056 92.8861 12.8056C90.6334 12.8056 88.8076 14.6318 88.8076 16.8842C88.8076 19.1366 90.6334 20.9627 92.8861 20.9627C94.2675 20.9627 95.404 22.0995 95.404 23.4806C95.404 24.8617 94.2675 25.9985 92.8861 25.9985C87.8522 25.9988 83.7715 21.9181 83.7715 16.8842C83.7715 11.8502 87.8522 7.76953 92.8861 7.76953C97.9201 7.76953 102 11.8502 102 16.8842Z" fill="white"/>
</svg>
