<svg width="251" height="83" viewBox="0 0 251 83" fill="none" xmlns="http://www.w3.org/2000/svg">
<rect x="1.12817" y="1.81091" width="248.242" height="79.8725" rx="11.4305" fill="black"/>
<rect x="1.12817" y="1.81091" width="248.242" height="79.8725" rx="11.4305" stroke="white" stroke-width="1.75854"/>
<path d="M29.1434 20.6445C28.8403 20.9476 28.3857 21.8568 28.3857 22.766V57.9218C28.3857 58.831 28.6888 59.7402 29.1434 60.0432L29.2949 60.1948L48.9943 40.4954V40.1924L29.1434 20.6445Z" fill="url(#paint0_linear_1824_34034)"/>
<path d="M55.6616 47.1631L49.1456 40.6471V40.3441L55.6616 33.8281H55.8131L63.6929 38.2226C65.8144 39.4349 65.8144 41.5563 63.6929 42.7686L55.6616 47.1631Z" fill="url(#paint1_linear_1824_34034)"/>
<path d="M55.8134 47.0006L48.9944 40.1816L29.1434 60.0325C29.9011 60.7902 31.1134 60.9417 32.4772 60.1841L55.8134 47.0006Z" fill="url(#paint2_linear_1824_34034)"/>
<path d="M55.8134 33.6687L32.4772 20.3338C31.2649 19.5761 29.9011 19.5761 29.1434 20.4853L48.9944 40.3362L55.8134 33.6687Z" fill="url(#paint3_linear_1824_34034)"/>
<path opacity="0.2" d="M55.662 47.002L32.4773 60.1854C31.265 60.943 30.0527 60.943 29.4466 60.1854L29.2951 60.3369L29.4466 60.4884C30.2043 61.2461 31.265 61.2461 32.4773 60.4884L55.662 47.002Z" fill="black"/>
<path opacity="0.12" d="M29.1433 60.0431C28.8402 59.437 28.3856 58.8308 28.3856 57.9216V58.0732C28.3856 58.9824 28.6887 59.8916 29.1433 60.1946V60.0431ZM63.693 42.4652L55.6617 47.0112L55.8133 47.1628L63.693 42.7683C64.7537 42.1621 65.3599 41.253 65.3599 40.3438C65.2084 41.253 64.6022 41.8591 63.693 42.4652Z" fill="black"/>
<path opacity="0.25" d="M32.4772 20.7889L63.5417 38.5183C64.6024 39.1245 65.2086 39.7306 65.2086 40.4883C65.2086 39.5791 64.6024 38.8214 63.5417 38.0637L32.4772 20.3343C30.3557 19.122 28.5373 20.1828 28.5373 22.7588V22.9104C28.3858 20.3343 30.3557 19.4251 32.4772 20.7889Z" fill="white"/>
<path d="M89.3898 25.4002C89.3898 26.6841 89.0688 27.968 88.1059 28.7704C87.1429 29.7334 86.0195 30.3753 84.4147 30.3753C82.8098 30.3753 81.6864 29.7334 80.7235 28.7704C79.7605 27.8075 79.1186 26.5236 79.1186 25.0792C79.1186 23.4744 79.7605 22.351 80.7235 21.3881C81.6864 20.4251 82.9703 19.7832 84.4147 19.7832C85.2171 19.7832 85.6986 19.9437 86.501 20.1042C87.1429 20.2647 87.6244 20.7461 88.1059 21.2276L87.1429 22.1905C86.501 21.3881 85.5381 21.0671 84.4147 21.0671C83.2912 21.0671 82.4888 21.3881 81.6864 22.1905C80.8839 22.9929 80.563 23.9558 80.563 25.0792C80.563 26.2027 80.8839 27.1656 81.6864 27.968C82.4888 28.7704 83.4517 29.0914 84.4147 29.0914C85.5381 29.0914 86.501 28.7704 87.3034 27.968C87.9454 27.3261 88.1059 26.8446 88.1059 25.8817H84.4147V24.5978H89.2293C89.3897 25.0793 89.3898 25.2397 89.3898 25.4002ZM97.0931 21.3881H92.439V24.7583H96.7722V25.7212H92.439V28.9309H97.0931V30.0543H91.1551V19.9437H97.0931V21.3881ZM102.71 30.0543H101.426V21.3881H98.5375V20.1042H105.438V21.2276H102.55V30.2148H102.71V30.0543ZM110.414 30.0543V19.9437H111.697V30.0543H110.414ZM117.635 30.0543H116.352V21.3881H113.623V20.1042H120.524V21.2276H117.635V30.0543ZM133.684 28.9309C132.721 29.8938 131.437 30.5358 129.993 30.5358C128.388 30.5358 127.265 29.8938 126.302 28.9309C125.339 27.968 124.697 26.6841 124.697 25.2397C124.697 23.9558 125.339 22.5115 126.302 21.5486C127.104 20.4251 128.388 19.7832 129.832 19.7832C131.437 19.7832 132.561 20.4251 133.524 21.3881C134.487 22.351 135.129 23.6349 135.129 25.0792C135.129 26.5236 134.647 27.647 133.684 28.9309ZM127.104 27.968C127.907 28.7704 128.87 29.0914 129.832 29.0914C130.795 29.0914 131.758 28.7704 132.561 27.968C133.363 27.1656 133.684 26.2027 133.684 25.0792C133.684 23.9558 133.363 22.9929 132.561 22.1905C131.758 21.3881 130.795 21.0671 129.832 21.0671C128.87 21.0671 127.907 21.3881 127.104 22.1905C126.302 22.9929 125.981 23.9558 125.981 25.0792C125.981 26.2027 126.302 27.1656 127.104 27.968ZM137.054 30.0543V19.9437H138.659L143.474 27.968V19.9437H144.758V30.0543H143.474L138.178 21.709V30.0543H137.054Z" fill="white"/>
<path d="M125.018 42.6884C121.006 42.6884 117.796 45.7376 117.796 49.9103C117.796 53.9224 121.006 57.1322 125.018 57.1322C129.03 57.1322 132.24 54.0829 132.24 49.9103C132.24 45.5771 128.87 42.6884 125.018 42.6884ZM125.018 54.0829C122.932 54.0829 121.006 52.3176 121.006 49.7498C121.006 47.182 122.932 45.4166 125.018 45.4166C127.104 45.4166 129.03 47.182 129.03 49.7498C129.19 52.3176 127.104 54.0829 125.018 54.0829ZM109.451 42.6884C105.438 42.6884 102.229 45.7376 102.229 49.9103C102.229 53.9224 105.438 57.1322 109.451 57.1322C113.463 57.1322 116.673 54.0829 116.673 49.9103C116.512 45.5771 113.302 42.6884 109.451 42.6884ZM109.451 54.0829C107.364 54.0829 105.438 52.3176 105.438 49.7498C105.438 47.182 107.364 45.4166 109.451 45.4166C111.537 45.4166 113.463 47.182 113.463 49.7498C113.463 52.3176 111.537 54.0829 109.451 54.0829ZM90.6736 44.7747V47.8239H98.056C97.8956 49.5893 97.2536 50.7127 96.2907 51.6756C95.3278 52.6385 93.5624 53.9224 90.6736 53.9224C86.18 53.9224 82.8098 50.2312 82.8098 45.7376C82.8098 41.244 86.3405 37.5528 90.6736 37.5528C93.2414 37.5528 95.0068 38.5157 96.1302 39.6391L98.2165 37.5528C96.4512 36.1084 93.8834 34.6641 90.3527 34.6641C84.0937 34.6641 79.1186 39.6391 79.1186 45.8981C79.1186 52.1571 84.4147 57.1322 90.3527 57.1322C93.5624 57.1322 96.1302 56.0087 98.056 54.0829C99.9819 52.1571 100.784 49.2683 100.784 46.861C100.784 46.0586 100.784 45.5771 100.624 44.9352L90.6736 44.7747ZM167.065 47.182C166.423 45.5771 164.819 42.6884 161.127 42.6884C157.436 42.6884 154.387 45.5771 154.387 49.9103C154.387 53.9224 157.436 57.1322 161.609 57.1322C164.819 57.1322 166.905 55.2063 167.547 54.0829L164.979 52.478C164.177 53.6015 163.053 54.4039 161.448 54.4039C159.843 54.4039 158.72 53.6015 157.918 52.3176L167.547 48.3054L167.065 47.182ZM157.436 49.5893C157.436 46.861 159.523 45.2562 161.127 45.2562C162.251 45.2562 163.374 45.8981 163.856 46.861L157.436 49.5893ZM149.412 56.6507H152.461V35.4665H149.412V56.6507ZM144.437 44.2932C143.634 43.4908 142.35 42.6884 140.585 42.6884C136.894 42.6884 133.684 45.7376 133.684 49.9103C133.684 53.9224 136.894 57.1322 140.585 57.1322C142.35 57.1322 143.634 56.3297 144.437 55.5273H144.597V56.4902C144.597 59.2185 142.992 60.8233 140.746 60.8233C138.82 60.8233 137.696 59.5394 137.054 58.2556L134.326 59.379C135.129 61.3048 137.215 63.7121 140.746 63.7121C144.437 63.7121 147.486 61.6258 147.486 56.1692V43.1698H144.597L144.437 44.2932ZM140.746 54.0829C138.659 54.0829 136.733 52.3176 136.733 49.7498C136.733 47.182 138.499 45.2562 140.746 45.2562C142.832 45.2562 144.597 47.182 144.597 49.7498C144.597 52.3176 142.832 54.0829 140.746 54.0829ZM181.991 35.4665H174.448V56.6507H177.497V48.4659H181.991C185.521 48.4659 188.892 45.8981 188.892 41.886C188.892 37.8738 185.361 35.4665 181.991 35.4665ZM181.991 45.5771H177.497V38.3553H181.991C184.238 38.3553 185.682 40.2811 185.682 42.0464C185.521 43.6513 184.238 45.5771 181.991 45.5771ZM201.41 42.6884C199.163 42.6884 196.755 43.6513 195.793 46.0586L198.521 47.182C199.163 46.0586 200.286 45.5771 201.41 45.5771C203.014 45.5771 204.619 46.5401 204.619 48.3054V48.4659C203.977 48.1449 202.854 47.6635 201.41 47.6635C198.36 47.6635 195.472 49.4288 195.472 52.478C195.472 55.3668 198.039 57.1322 200.768 57.1322C202.854 57.1322 203.977 56.1692 204.78 55.0458H204.94V56.6507H207.99V48.4659C207.829 44.6142 204.94 42.6884 201.41 42.6884ZM201.089 54.0829C200.126 54.0829 198.521 53.441 198.521 52.3176C198.521 50.7127 200.286 50.0708 201.731 50.0708C203.014 50.0708 203.817 50.3917 204.619 50.8732C204.619 52.799 202.854 54.0829 201.089 54.0829ZM218.903 43.0093L215.211 52.1571H215.051L211.36 43.0093H207.829L213.446 55.8483L210.236 63.0701H213.446L222.112 43.1698H218.903V43.0093ZM190.657 56.6507H193.706V35.4665H190.657V56.6507Z" fill="white"/>
<defs>
<linearGradient id="paint0_linear_1824_34034" x1="47.3429" y1="22.4063" x2="20.6148" y2="49.1346" gradientUnits="userSpaceOnUse">
<stop stop-color="#00A0FF"/>
<stop offset="0.007" stop-color="#00A1FF"/>
<stop offset="0.26" stop-color="#00BEFF"/>
<stop offset="0.512" stop-color="#00D2FF"/>
<stop offset="0.76" stop-color="#00DFFF"/>
<stop offset="1" stop-color="#00E3FF"/>
</linearGradient>
<linearGradient id="paint1_linear_1824_34034" x1="66.5108" y1="40.4723" x2="27.9759" y2="40.4723" gradientUnits="userSpaceOnUse">
<stop stop-color="#FFE000"/>
<stop offset="0.409" stop-color="#FFBD00"/>
<stop offset="0.775" stop-color="#FFA500"/>
<stop offset="1" stop-color="#FF9C00"/>
</linearGradient>
<linearGradient id="paint2_linear_1824_34034" x1="52.1186" y1="43.9888" x2="15.874" y2="80.2334" gradientUnits="userSpaceOnUse">
<stop stop-color="#FF3A44"/>
<stop offset="1" stop-color="#C31162"/>
</linearGradient>
<linearGradient id="paint3_linear_1824_34034" x1="24.2125" y1="8.84651" x2="40.3969" y2="25.0328" gradientUnits="userSpaceOnUse">
<stop stop-color="#32A071"/>
<stop offset="0.069" stop-color="#2DA771"/>
<stop offset="0.476" stop-color="#15CF74"/>
<stop offset="0.801" stop-color="#06E775"/>
<stop offset="1" stop-color="#00F076"/>
</linearGradient>
</defs>
</svg>
