<svg width="143" height="45" viewBox="0 0 143 45" fill="none" xmlns="http://www.w3.org/2000/svg">
<rect x="0.740143" y="0.5" width="141.163" height="43.9799" rx="6.5" stroke="white"/>
<path d="M16.671 10.4893C16.4987 10.6616 16.2401 11.1786 16.2401 11.6956V31.687C16.2401 32.2041 16.4125 32.7211 16.671 32.8934L16.7572 32.9796L27.9593 21.7775V21.6052L16.671 10.4893Z" fill="url(#paint0_linear_1824_30336)"/>
<path d="M31.7508 25.5693L28.0454 21.864V21.6916L31.7508 17.9863H31.8369L36.3178 20.4852C37.5242 21.1746 37.5242 22.381 36.3178 23.0703L31.7508 25.5693Z" fill="url(#paint1_linear_1824_30336)"/>
<path d="M31.8369 25.4782L27.9593 21.6006L16.671 32.8888C17.1018 33.3197 17.7912 33.4059 18.5667 32.975L31.8369 25.4782Z" fill="url(#paint2_linear_1824_30336)"/>
<path d="M31.8369 17.896L18.5667 10.3131C17.8774 9.88225 17.1018 9.88225 16.671 10.3993L27.9593 21.6875L31.8369 17.896Z" fill="url(#paint3_linear_1824_30336)"/>
<path opacity="0.2" d="M31.7508 25.4795L18.5667 32.9763C17.8774 33.4071 17.188 33.4071 16.8433 32.9763L16.7572 33.0624L16.8433 33.1486C17.2742 33.5795 17.8774 33.5795 18.5667 33.1486L31.7508 25.4795Z" fill="black"/>
<path opacity="0.12" d="M16.671 32.8925C16.4987 32.5478 16.2401 32.2032 16.2401 31.6861V31.7723C16.2401 32.2893 16.4125 32.8063 16.671 32.9787V32.8925ZM36.3178 22.8968L31.7508 25.4819L31.8369 25.5681L36.3178 23.0691C36.921 22.7245 37.2657 22.2074 37.2657 21.6904C37.1795 22.2074 36.8348 22.5521 36.3178 22.8968Z" fill="black"/>
<path opacity="0.25" d="M18.5667 10.5733L36.2316 20.6552C36.8348 20.9999 37.1795 21.3445 37.1795 21.7754C37.1795 21.2584 36.8348 20.8275 36.2316 20.3967L18.5667 10.3148C17.3603 9.62543 16.3263 10.2286 16.3263 11.6935V11.7797C16.2401 10.3148 17.3603 9.79776 18.5667 10.5733Z" fill="white"/>
<path d="M50.9303 13.1941C50.9303 13.9242 50.7478 14.6543 50.2002 15.1106C49.6526 15.6582 49.0138 16.0232 48.1012 16.0232C47.1886 16.0232 46.5497 15.6582 46.0022 15.1106C45.4546 14.563 45.0896 13.833 45.0896 13.0116C45.0896 12.099 45.4546 11.4602 46.0022 10.9126C46.5497 10.365 47.2798 10 48.1012 10C48.5575 10 48.8313 10.0913 49.2876 10.1825C49.6526 10.2738 49.9264 10.5476 50.2002 10.8213L49.6526 11.3689C49.2876 10.9126 48.74 10.7301 48.1012 10.7301C47.4624 10.7301 47.0061 10.9126 46.5497 11.3689C46.0934 11.8252 45.9109 12.3728 45.9109 13.0116C45.9109 13.6504 46.0934 14.198 46.5497 14.6543C47.0061 15.1106 47.5536 15.2931 48.1012 15.2931C48.74 15.2931 49.2876 15.1106 49.7439 14.6543C50.1089 14.2893 50.2002 14.0155 50.2002 13.4679H48.1012V12.7378H50.839C50.9303 13.0116 50.9303 13.1029 50.9303 13.1941ZM55.3108 10.9126H52.6643V12.8291H55.1283V13.3767H52.6643V15.2019H55.3108V15.8407H51.9342V10.0913H55.3108V10.9126ZM58.505 15.8407H57.7749V10.9126H56.1322V10.1825H60.0564V10.8213H58.4137V15.932H58.505V15.8407ZM62.8855 15.8407V10.0913H63.6156V15.8407H62.8855ZM66.9923 15.8407H66.2622V10.9126H64.7107V10.1825H68.635V10.8213H66.9923V15.8407ZM76.1184 15.2019C75.5708 15.7494 74.8407 16.1145 74.0194 16.1145C73.1068 16.1145 72.468 15.7494 71.9204 15.2019C71.3728 14.6543 71.0078 13.9242 71.0078 13.1029C71.0078 12.3728 71.3728 11.5514 71.9204 11.0039C72.3767 10.365 73.1068 10 73.9281 10C74.8407 10 75.4796 10.365 76.0271 10.9126C76.5747 11.4602 76.9398 12.1903 76.9398 13.0116C76.9398 13.833 76.666 14.4718 76.1184 15.2019ZM72.3767 14.6543C72.833 15.1106 73.3806 15.2931 73.9281 15.2931C74.4757 15.2931 75.0233 15.1106 75.4796 14.6543C75.9359 14.198 76.1184 13.6504 76.1184 13.0116C76.1184 12.3728 75.9359 11.8252 75.4796 11.3689C75.0233 10.9126 74.4757 10.7301 73.9281 10.7301C73.3806 10.7301 72.833 10.9126 72.3767 11.3689C71.9204 11.8252 71.7379 12.3728 71.7379 13.0116C71.7379 13.6504 71.9204 14.198 72.3767 14.6543ZM78.0349 15.8407V10.0913H78.9475L81.6853 14.6543V10.0913H82.4154V15.8407H81.6853L78.6737 11.0951V15.8407H78.0349Z" fill="white"/>
<path d="M71.1903 23.025C68.9088 23.025 67.0835 24.7589 67.0835 27.1317C67.0835 29.4132 68.9088 31.2384 71.1903 31.2384C73.4718 31.2384 75.297 29.5045 75.297 27.1317C75.297 24.6677 73.3806 23.025 71.1903 23.025ZM71.1903 29.5045C70.0039 29.5045 68.9088 28.5006 68.9088 27.0404C68.9088 25.5803 70.0039 24.5764 71.1903 24.5764C72.3767 24.5764 73.4718 25.5803 73.4718 27.0404C73.5631 28.5006 72.3767 29.5045 71.1903 29.5045ZM62.3379 23.025C60.0564 23.025 58.2312 24.7589 58.2312 27.1317C58.2312 29.4132 60.0564 31.2384 62.3379 31.2384C64.6195 31.2384 66.4447 29.5045 66.4447 27.1317C66.3534 24.6677 64.5282 23.025 62.3379 23.025ZM62.3379 29.5045C61.1515 29.5045 60.0564 28.5006 60.0564 27.0404C60.0564 25.5803 61.1515 24.5764 62.3379 24.5764C63.5243 24.5764 64.6195 25.5803 64.6195 27.0404C64.6195 28.5006 63.5243 29.5045 62.3379 29.5045ZM51.6604 24.2114V25.9453H55.8584C55.7671 26.9492 55.4021 27.588 54.8545 28.1356C54.307 28.6831 53.3031 29.4132 51.6604 29.4132C49.1051 29.4132 47.1886 27.3142 47.1886 24.7589C47.1886 22.2036 49.1963 20.1046 51.6604 20.1046C53.1206 20.1046 54.1244 20.6522 54.7633 21.291L55.9497 20.1046C54.9458 19.2833 53.4856 18.4619 51.4779 18.4619C47.9187 18.4619 45.0896 21.291 45.0896 24.8502C45.0896 28.4094 48.1012 31.2384 51.4779 31.2384C53.3031 31.2384 54.7633 30.5996 55.8584 29.5045C56.9535 28.4094 57.4098 26.7667 57.4098 25.3977C57.4098 24.9414 57.4098 24.6677 57.3186 24.3026L51.6604 24.2114ZM95.1007 25.5803C94.7357 24.6677 93.8231 23.025 91.7241 23.025C89.6251 23.025 87.8911 24.6677 87.8911 27.1317C87.8911 29.4132 89.6251 31.2384 91.9978 31.2384C93.8231 31.2384 95.0095 30.1433 95.3745 29.5045L93.9143 28.5919C93.458 29.2307 92.8192 29.687 91.9066 29.687C90.994 29.687 90.3551 29.2307 89.8988 28.5006L95.3745 26.2191L95.1007 25.5803ZM89.6251 26.9492C89.6251 25.3977 90.8115 24.4851 91.7241 24.4851C92.3629 24.4851 93.0017 24.8502 93.2755 25.3977L89.6251 26.9492ZM85.062 30.9647H86.796V18.9182H85.062V30.9647ZM82.2329 23.9376C81.7766 23.4813 81.0465 23.025 80.0426 23.025C77.9436 23.025 76.1184 24.7589 76.1184 27.1317C76.1184 29.4132 77.9436 31.2384 80.0426 31.2384C81.0465 31.2384 81.7766 30.7821 82.2329 30.3258H82.3242V30.8734C82.3242 32.4248 81.4115 33.3375 80.1339 33.3375C79.0388 33.3375 78.3999 32.6074 78.0349 31.8773L76.4834 32.5161C76.9397 33.6112 78.1261 34.9801 80.1339 34.9801C82.2329 34.9801 83.9669 33.7938 83.9669 30.6909V23.2987H82.3242L82.2329 23.9376ZM80.1339 29.5045C78.9475 29.5045 77.8524 28.5006 77.8524 27.0404C77.8524 25.5803 78.8562 24.4851 80.1339 24.4851C81.3203 24.4851 82.3242 25.5803 82.3242 27.0404C82.3242 28.5006 81.3203 29.5045 80.1339 29.5045ZM103.588 18.9182H99.2987V30.9647H101.033V26.3104H103.588C105.596 26.3104 107.512 24.8502 107.512 22.5687C107.512 20.2871 105.505 18.9182 103.588 18.9182ZM103.588 24.6677H101.033V20.5609H103.588C104.866 20.5609 105.687 21.656 105.687 22.6599C105.596 23.5725 104.866 24.6677 103.588 24.6677ZM114.631 23.025C113.353 23.025 111.984 23.5725 111.436 24.9414L112.988 25.5803C113.353 24.9414 113.992 24.6677 114.631 24.6677C115.543 24.6677 116.456 25.2152 116.456 26.2191V26.3104C116.091 26.1278 115.452 25.8541 114.631 25.8541C112.897 25.8541 111.254 26.8579 111.254 28.5919C111.254 30.2346 112.714 31.2384 114.266 31.2384C115.452 31.2384 116.091 30.6909 116.547 30.0521H116.638V30.9647H118.372V26.3104C118.281 24.1201 116.638 23.025 114.631 23.025ZM114.448 29.5045C113.901 29.5045 112.988 29.1394 112.988 28.5006C112.988 27.588 113.992 27.223 114.813 27.223C115.543 27.223 116 27.4055 116.456 27.6793C116.456 28.7744 115.452 29.5045 114.448 29.5045ZM124.578 23.2075L122.479 28.4094H122.388L120.289 23.2075H118.281L121.475 30.5084L119.65 34.6151H121.475L126.403 23.2987H124.578V23.2075ZM108.516 30.9647H110.25V18.9182H108.516V30.9647Z" fill="white"/>
<defs>
<linearGradient id="paint0_linear_1824_30336" x1="27.0202" y1="11.4911" x2="11.8212" y2="26.6902" gradientUnits="userSpaceOnUse">
<stop stop-color="#00A0FF"/>
<stop offset="0.007" stop-color="#00A1FF"/>
<stop offset="0.26" stop-color="#00BEFF"/>
<stop offset="0.512" stop-color="#00D2FF"/>
<stop offset="0.76" stop-color="#00DFFF"/>
<stop offset="1" stop-color="#00E3FF"/>
</linearGradient>
<linearGradient id="paint1_linear_1824_30336" x1="37.9202" y1="21.7645" x2="16.0072" y2="21.7645" gradientUnits="userSpaceOnUse">
<stop stop-color="#FFE000"/>
<stop offset="0.409" stop-color="#FFBD00"/>
<stop offset="0.775" stop-color="#FFA500"/>
<stop offset="1" stop-color="#FF9C00"/>
</linearGradient>
<linearGradient id="paint2_linear_1824_30336" x1="29.7359" y1="23.7655" x2="9.12531" y2="44.3761" gradientUnits="userSpaceOnUse">
<stop stop-color="#FF3A44"/>
<stop offset="1" stop-color="#C31162"/>
</linearGradient>
<linearGradient id="paint3_linear_1824_30336" x1="13.867" y1="3.78082" x2="23.0703" y2="12.9852" gradientUnits="userSpaceOnUse">
<stop stop-color="#32A071"/>
<stop offset="0.069" stop-color="#2DA771"/>
<stop offset="0.476" stop-color="#15CF74"/>
<stop offset="0.801" stop-color="#06E775"/>
<stop offset="1" stop-color="#00F076"/>
</linearGradient>
</defs>
</svg>
