<svg width="1240" height="739" viewBox="0 0 1240 739" fill="none" xmlns="http://www.w3.org/2000/svg">
<g clip-path="url(#clip0_2187_9942)">
<path d="M312.223 129.547C312.223 129.547 350.064 128.986 346.197 153.3C342.396 177.614 297.516 162.682 297.516 162.682C297.516 162.682 301.317 204.306 278.48 204.306C255.643 204.306 258.221 162.979 258.221 162.979C241.631 165.754 183.498 156.57 195.495 124.592C207.558 92.6137 274.646 121.982 274.646 121.982C274.646 121.982 265.161 44.1178 307.199 48.4454C350.328 52.8061 312.223 129.547 312.223 129.547Z" fill="#6B22FF"/>
<path d="M958.722 91.3252C987.342 74.0477 1003.93 59.9746 1011.4 67.9362C1019.33 76.4262 1000.13 102.062 986.516 126.277C972.9 150.492 956.673 182.569 941.636 184.848C928.417 186.897 911.066 167.835 904.423 160.402C896.227 151.152 900.028 143.719 906.604 150.756C913.181 157.792 928.582 175.367 938.695 174.971C948.808 174.508 964.208 147.684 975.643 128.094C985.855 110.519 1006.74 79.4325 1004.06 75.0388C1001.49 70.7442 986.153 82.0753 959.317 100.542C932.481 119.009 896.194 125.583 895.203 117.82C894.641 113.459 904.357 113.954 911.429 111.84C939.785 103.35 946.659 98.56 958.755 91.2591L958.722 91.3252Z" fill="black"/>
<path d="M916.717 455.408C915.362 445.762 861.757 232.552 858.684 219.833C855.544 207.048 849.86 193.9 852.933 193.008C856.007 192.116 874.911 186.864 885.023 182.47C895.136 178.076 894.674 175.004 894.674 168.397C894.674 161.79 895.136 114.351 888.097 114.351C872.3 114.351 763.702 110.783 702.991 116.961C642.314 123.139 595.715 137.212 587.816 189.936C579.951 242.727 592.212 335.886 592.212 335.886C592.674 341.139 563.625 347.383 556.552 349.992C549.48 352.602 547.728 353.065 547.299 363.174C546.836 373.282 545.944 440.509 546.406 449.297C546.869 458.117 545.117 461.619 551.694 464.691C605.663 489.864 673.908 480.482 715.285 432.151C756.629 383.788 776.888 321.351 779.961 327.099C787.893 349.53 826.164 449.231 833.203 465.055C840.242 480.912 845.497 477.839 875.836 472.091C906.208 466.409 918.072 465.055 916.75 455.408H916.717ZM611.215 345.5C605.233 341.701 639.802 297.202 657.318 270.972C668.653 253.893 707.882 196.675 716.144 200.838C722.291 203.976 691.854 235.492 664.787 275.597C654.409 290.925 616.965 349.166 611.215 345.5ZM779.201 266.38C768.725 282.501 763.503 295.88 755.439 320.558C746.054 349.398 727.91 362.777 707.122 363.339C685.74 363.966 672.685 431.226 650.708 433.407C628.731 435.653 629.392 380.847 636.2 380.253C644.131 379.46 636.299 426.601 651.931 424.256C666.01 422.01 677.147 357.359 705.569 355.807C731.975 354.287 741.394 336.613 746.021 324.456C751.672 309.788 762.776 281.378 769.783 268.164C776.855 254.95 789.413 238.102 793.545 240.877C797.114 243.222 790.801 248.475 779.201 266.38ZM754.878 190.465C740.799 190.2 722.523 191.918 723.25 186.401C723.812 181.71 749.491 183.098 756.497 182.833C765.42 182.569 812.647 181.71 819.95 181.38C827.32 181.116 837.863 181.116 837.863 183.725C837.863 186.335 832.575 187.789 819.95 188.681C807.326 189.573 768.956 190.795 754.878 190.465ZM860.931 408.432C854.288 410.612 842.919 367.534 838.061 347.746C833.269 327.991 820.711 291.52 827.519 290.165C834.095 288.811 839.813 317.849 845.993 340.776C852.14 363.603 867.541 406.285 860.964 408.432H860.931Z" fill="black"/>
<path d="M873.06 474.766C866.483 475.657 873.556 487.22 863.74 501.425C854.817 514.408 849.298 522.667 853.693 524.583C857.924 526.367 865.921 515.267 872.961 502.614C877.918 493.563 878.943 473.94 873.06 474.766Z" fill="black"/>
<path d="M975.379 572.618C978.353 581.702 972.405 584.048 967.745 574.071C963.052 564.128 941.636 546.52 931.688 532.744C908.29 500.402 902.936 461.222 902.936 461.222L910.868 458.877C914.933 476.154 919.56 492.474 928.45 509.851C946.296 545.066 970.091 556.529 975.379 572.618Z" fill="black"/>
<path d="M317.048 371.332C313.413 370.836 310.009 369.316 307.233 367.037C302.474 363.007 298.541 355.673 306.44 343.318C320.056 322.241 306.902 307.739 298.971 301.528C298.971 301.528 286.577 294.557 275.209 301.99C266.385 307.739 271.706 312.991 260.238 320.457C250.191 327.031 237.467 344.177 250.125 364.857C252.306 368.358 288.395 373.049 315.032 376.948C341.604 380.846 358.624 388.114 360.408 383.753C362.193 379.458 344.016 375.725 335.589 374.371C328.715 373.314 321.51 371.926 317.048 371.299V371.332Z" fill="black"/>
<path d="M275.275 124.13C275.275 124.13 269.26 126.145 280.232 143.323C290.18 158.817 292.956 161.228 296.36 158.817C299.698 156.471 295.963 149.17 289.056 137.112C282.149 125.187 278.447 122.214 275.275 124.13Z" fill="#6B22FF"/>
<path d="M477.533 57.3975C471.848 61.5269 463.189 68.8277 463.189 78.2758C463.189 92.6132 479.317 91.4569 486.951 89.4418C494.586 87.3936 505.426 82.1409 503.079 78.6062C500.733 75.0714 476.508 87.0963 472.873 80.3901C467.188 69.9509 488.042 64.3679 489.661 55.9109C491.611 45.769 470.46 22.1157 483.019 11.7756C500.997 -3.12333 510.35 47.7181 517.72 47.0244C523.966 46.4628 510.515 -10.4242 481.498 2.55876C462.066 11.247 473.798 38.5343 479.978 49.7002C482.391 54.0609 482.721 53.5654 477.466 57.3975H477.533Z" fill="black"/>
<path d="M1028.46 613.317C1078.39 640.637 1205.2 711.498 1216.93 718.799C1228.66 726.099 1242.45 734.292 1239.47 737.265C1236.5 740.206 1230.09 736.704 1211.05 725.208C1186.39 710.408 1009.19 610.905 933.01 574.401C849.463 534.395 720.937 494.852 699.224 489.599C677.511 484.314 665.911 482.794 666.406 478.929C666.572 477.475 667.034 474.7 682.27 477.244C710.956 482.166 868.797 525.938 1028.46 613.251V613.317Z" fill="black"/>
<path d="M284.396 374.041C280.1 372.323 276.464 390.261 272.102 402.616C267.707 414.905 265.063 422.867 268.136 425.047C271.21 427.228 276.96 414.046 279.968 402.187C283.041 390.294 288.792 375.858 284.363 374.074L284.396 374.041Z" fill="black"/>
<path d="M371.017 378.897C376.536 386.33 407.404 352.403 453.506 352.337C509.359 352.238 536.327 370.341 537.682 364.097C539.565 355.013 491.083 343.748 454.531 344.64C411.964 345.631 366.853 373.248 371.05 378.897H371.017Z" fill="black"/>
<path d="M307.728 304.601C307.001 308.994 320.915 308.73 326.203 317.782C330.73 325.545 335.291 326.272 341.769 323.959C348.18 321.614 350.659 321.614 351.254 327.758C352.212 337.14 362.986 340.807 365.101 353.526C367.282 366.707 357.07 377.278 362.127 379.459C367.547 381.738 373.561 364.064 371.512 352.799C369.067 339.288 357.731 334.894 356.541 324.686C355.385 314.412 351.848 315.304 341.306 317.385C330.697 319.433 334.564 314.775 325.178 307.739C315.759 300.669 308.158 301.892 307.695 304.601H307.728Z" fill="black"/>
<path d="M352.245 355.144C347.155 359.538 334.564 357.919 336.117 351.345C337.274 346.489 340.182 346.225 345.767 347.282C351.419 348.273 356.64 351.345 352.245 355.144Z" fill="black"/>
<path d="M521.52 50.1626C517.621 48.5439 513.589 55.1179 510.35 63.3437C507.111 71.5695 505.954 78.3087 508.896 79.7292C511.837 81.1498 516.431 71.6356 519.339 64.566C522.314 57.5295 525.024 51.6162 521.52 50.1626Z" fill="black"/>
<path d="M509.788 83.9251C505.096 85.8742 512.036 118.348 531.039 112.831C546.671 108.305 540.821 76.0627 534.542 79.6305C529.915 82.2403 538.442 105.002 526.511 105.794C519.141 106.356 516.861 81.018 509.755 83.9251H509.788Z" fill="black"/>
<path d="M524.66 49.766C527.238 56.5052 560.32 32.918 572.25 41.5072C581.802 48.3785 573.605 62.4847 559.758 66.548C548.158 70.0167 540.292 70.4131 540.061 73.3533C539.797 76.822 547.86 77.0202 556.85 75.3024C565.839 73.5185 582.132 67.2087 583.917 51.9794C585.701 36.7501 574.134 30.2752 560.749 31.1011C547.794 31.9269 522.116 43.0268 524.627 49.733L524.66 49.766Z" fill="black"/>
<path d="M8.24093 493.233C-6.26746 501.095 4.27508 509.453 10.8518 513.484C17.4285 517.448 22.6832 517.679 23.6416 514.772C25.4263 509.519 3.21752 504.498 14.7185 499.047C77.7424 468.523 301.912 455.474 375.346 456.366C448.78 457.258 561.807 466.904 561.807 466.904L560.022 458.975C511.705 451.509 331.358 449.725 312.719 447.248C279.968 442.887 190.505 406.813 196.354 384.547C202.204 362.281 237.996 371.035 237.368 362.281C237.037 358.217 224.578 356.202 207.558 362.38C189.579 368.921 188.687 382.796 188.687 382.796C188.687 382.796 182.507 378.105 173.187 379.856C156.398 383.027 168.23 402.386 168.23 402.386C157.39 402.947 146.252 410.876 145.36 419.961C144.468 429.045 155.01 429.607 151.21 434.034C151.21 434.034 136.701 446.125 149.987 462.444C67.3321 472.024 22.5841 485.437 8.24093 493.233Z" fill="black"/>
<path d="M165.057 404.401C165.057 404.401 161.819 397.662 148.93 397.662C136.041 397.662 127.844 404.798 121.962 411.735C117.269 417.318 117.93 421.778 120.508 422.439C126.093 423.892 127.481 410.282 140.932 405.987C158.745 400.338 158.216 413.123 165.057 404.434V404.401Z" fill="black"/>
<path d="M459.389 218.908C451.028 222.872 458.596 242.33 480.64 259.508C486.886 264.365 491.48 292.874 495.875 310.878C500.27 328.883 506.649 354.617 512.267 353.659C517.852 352.701 507.739 327.958 501.328 298.754C494.917 269.617 491.38 258.815 484.374 253.166C477.335 247.483 460.612 228.554 465.007 221.98L459.356 218.842L459.389 218.908Z" fill="black"/>
<path d="M442.204 181.975C443.889 189.936 467.321 180.521 483.713 203.679C500.105 226.837 500.006 246.922 513.027 266.38C527.106 287.457 541.449 315.305 547.629 325.844C553.809 336.382 557.907 344.641 561.41 342.527C565.806 339.917 549.116 309.392 536.525 288.91C524.231 268.891 514.25 256.106 509.854 242.595C505.459 229.083 502.418 217.323 489.596 198.36C475.583 177.647 440.419 173.584 442.204 181.975Z" fill="black"/>
<path d="M398.744 167.967C392.994 173.715 403.702 177.911 428.224 196.543C449.474 212.73 457.637 217.751 466.494 224.656C481.465 236.383 482.721 235.194 485.398 230.833C488.009 226.44 477.202 220.295 448.02 198.293C410.113 169.718 404.032 162.582 398.744 167.934V167.967Z" fill="black"/>
</g>
<defs>
<clipPath id="clip0_2187_9942">
<rect width="1240" height="739" fill="white"/>
</clipPath>
</defs>
</svg>
