<svg width="1026" height="1066" viewBox="0 0 1026 1066" fill="none" xmlns="http://www.w3.org/2000/svg">
<g clip-path="url(#clip0_2187_9760)">
<path d="M765.947 867.773C769.675 841.926 755.336 809.961 748.198 814.806C742.239 818.853 761.932 840.142 757.407 867.868C754.061 888.583 744.438 908.916 726.944 926.476C721.304 932.117 721.845 934.666 723.279 935.782C726.402 938.3 729.844 935.527 734.91 931.543C741.634 926.285 760.753 904.263 765.947 867.773Z" fill="black"/>
<path d="M779.075 866.498C772.447 871.247 796.824 895.563 821.424 901.523C846.024 907.482 859.472 904.646 859.312 900.025C859.153 893.842 840.639 900.025 816.804 891.516C790.547 882.146 785.002 862.228 779.075 866.498Z" fill="black"/>
<path d="M903.701 859.709C893.95 860.187 905.008 913.568 915.109 939.893C925.274 966.217 949.874 1011.22 958.541 1007.26C965.106 1004.24 937.383 974.439 924.414 939.032C902.012 877.524 911.763 859.263 903.701 859.709Z" fill="black"/>
<path d="M856.222 888.137C850.9 891.579 860.906 918.222 885.856 958.951C907.493 994.135 934.069 1009.97 936.586 1006.31C940.792 1000.22 924.413 1002.55 893.918 955.987C860.109 904.391 863.423 883.484 856.19 888.137H856.222Z" fill="black"/>
<path d="M874.894 931.767C870.433 928.644 854.564 950.857 846.471 969.054C838.409 987.283 830.761 1009.69 837.963 1010.23C843.443 1010.61 839.269 1002.9 854.373 970.679C865.462 946.937 880.248 935.655 874.863 931.767H874.894Z" fill="black"/>
<path d="M843.093 920.102C836.306 916.979 827.288 940.754 821.935 961.851C817.473 979.73 815.147 1001.4 821.839 1000.99C826.619 1000.67 825.185 978.551 831.367 957.39C837.612 936.069 847.013 921.855 843.093 920.102Z" fill="black"/>
<path d="M977.851 852.507C977.405 855.853 972.371 860.633 957.139 863.055C947.388 864.617 939.071 863.852 934.26 863.151C937.382 867.294 945.413 880.871 947.707 896.359C948.567 902 948.727 906.525 946.942 907.545C945.54 908.406 933.495 906.047 919.761 890.049C907.11 875.198 908.736 860.187 908.608 858.179C908.162 850.977 909.564 847.726 904.944 846.292C840.034 826.055 800.393 768.371 804.6 756.994C807.34 749.664 831.558 758.938 852.398 760.914C888.023 764.292 891.082 760.468 896.085 782.968C900.323 802.057 906.154 823.506 913.452 838.07C914.949 841.034 918.295 838.771 931.36 838.516C931.36 838.516 946.209 849.925 949.587 848.587C952.168 847.567 953.952 843.328 955.131 839.982C968.865 842.723 978.202 848.874 977.788 852.475L977.851 852.507Z" fill="#6B22FF"/>
<path d="M450.607 282.777C440.283 292.243 436.332 295.366 419.921 294.824C403.511 294.282 386.558 325.929 373.844 325.674C364.157 325.45 367.057 312.448 358.294 313.085C337.358 314.647 326.906 348.811 319.991 346.548C313.363 344.381 341.309 302.25 362.022 306.233C369.924 308.878 368.809 318.28 374.736 318.025C383.722 317.547 398.571 289.247 418.328 289.024C436.682 288.864 434.037 288.227 445.764 280.037C448.281 277.774 450.289 277.614 451.309 278.634C452.328 279.495 452.328 281.152 450.607 282.777Z" fill="black"/>
<path d="M640.398 215.884C628.066 298.553 606.079 367.805 568.35 370.387C537.855 372.427 513.287 325.451 519.182 320.766C525.523 315.667 540.595 365.224 568.796 361.081C603.115 355.982 623.031 283.192 634.503 210.562C636.223 199.79 638.422 202.69 650.595 187.648C668.662 165.307 661.907 135.764 669.268 136.465C675.45 137.007 671.53 176.876 654.833 193.83C641.8 207.12 641.864 206.419 640.398 215.884Z" fill="black"/>
<path d="M608.66 201.193C602 198.293 581.638 239.245 572.333 256.423C557.038 284.564 550.283 293.328 556.082 295.75C560.83 297.694 573.895 271.37 582.817 254.575C602.255 217.988 613.758 203.456 608.66 201.193Z" fill="black"/>
<path d="M532.724 244.408C526.542 243.93 531.004 262.063 525.204 280.293C520.52 294.921 508.411 307.095 512.554 310.282C517.779 314.329 528.741 292.562 532.151 282.014C535.592 271.465 538.779 244.886 532.756 244.408H532.724Z" fill="black"/>
<path d="M525.396 204.315C509.909 210.817 481.868 230.48 462.398 241.507C443.406 252.215 418.073 260.724 396.532 267.927C342.552 285.996 326.779 286.347 328.086 293.39C328.946 297.916 338.537 295.111 374.673 284.084C400.452 276.213 433.91 262.923 456.344 253.394C486.743 240.519 512.076 214.258 536.899 207.215C542.858 205.494 527.148 221.365 519.086 227.293C511.12 233.157 513.128 234.655 513.446 250.43C513.765 266.237 503.536 275.989 490.312 281.312C488.049 282.268 487.285 284.052 487.795 285.455C488.273 286.793 491.013 287.781 493.562 287.176C499.489 285.678 509.877 280.834 516.314 269.297C522.815 257.665 521.412 250.717 520.839 239.148C520.743 235.229 519.883 235.165 527.626 228.982C538.078 220.632 548.626 208.968 545.12 203.263C542.093 198.037 534.159 200.618 525.428 204.283L525.396 204.315Z" fill="black"/>
<path d="M433.911 153.738C433.273 150.392 429.163 150.998 421.26 150.998C405.71 150.998 403.384 139.907 404.085 127.637C404.85 114.443 398.636 117.567 397.043 113.647C395.481 109.918 401.09 106.54 405.646 100.134C409.183 95.0349 407.144 88.8203 408.673 80.3431C410.203 71.8658 414.154 68.3283 411.541 66.7667C405.359 63.0061 400.612 79.6419 400.229 93.1227C399.974 102.907 386.463 106.157 389.044 115.176C390.542 120.435 397.234 120.116 396.724 126.586C395.959 137.039 398.445 163.873 429.928 157.977C433.305 157.276 434.293 155.619 433.911 153.738Z" fill="black"/>
<path d="M415.747 123.304C409.947 128.053 408.577 133.088 414.44 134.235C420.24 135.351 428.589 132.929 427.824 125.025C427.027 117.121 419.635 120.117 415.715 123.304H415.747Z" fill="black"/>
<path d="M565.61 222.896C563.252 215.949 543.495 175.156 493.084 167.157C482.473 165.436 480.019 182.486 461.059 187.649C454.113 189.529 432.381 193.13 414.982 179.586C404.498 171.363 404.594 169.133 388.502 171.236C358.421 175.156 327.321 195.839 308.966 225.796C292.078 253.3 292.81 254.638 311.484 263.084C333.216 272.995 358.517 279.592 358.517 279.592L358.58 283.639C367.566 280.675 381.842 276.118 396.245 271.975C419.921 265.155 476.323 238.449 481.421 235.07C486.52 231.724 536.963 198.197 541.647 205.846C546.267 213.431 516.633 236.345 516.633 236.345C517.493 260.948 512.426 271.115 502.198 278.317C484.99 290.428 467.815 280.357 458.064 289.726C452.456 295.112 442.354 302.761 434.707 308.338L512.299 307.414L526.734 285.934L531.832 257.156C531.832 257.156 557.165 245.906 562.774 242.719C570.581 238.321 569.656 234.911 565.578 222.864L565.61 222.896ZM369.096 271.115C365.591 271.178 362.787 262.51 361.671 253.555C360.269 242.082 361.608 230.099 366.133 229.175C370.753 228.218 369.51 235.357 369.956 248.073C370.403 260.789 374.864 271.051 369.096 271.115Z" fill="black"/>
<path d="M310.146 268.181C299.821 271.304 263.112 347.95 304.601 364.905C346.153 381.859 444.522 317.451 437.734 308.496C430.947 299.541 366.802 367.869 309.986 357.638C286.247 352.954 290.612 307.221 312.663 276.69C316.009 272.069 315.34 266.619 310.146 268.181Z" fill="black"/>
<path d="M461.506 138.378C455.738 137.613 454.336 150.425 463.768 161.834C472.372 172.287 485.469 173.244 485.947 169.037C486.488 164.511 477.343 165.117 469.536 157.309C462.366 150.106 466.636 139.016 461.506 138.378Z" fill="black"/>
<path d="M465.776 133.087C460.454 139.557 448.6 134.171 458.797 120.754C468.994 107.337 470.428 93.0275 456.981 91.7846C447.007 91.4022 448.696 98.9871 440.73 97.3299C429.8 95.0672 440.284 77.9533 429.003 73.1729C425.084 71.5157 423.522 71.7069 417.691 69.5716C411.923 67.2452 409.788 61.8911 415.174 57.9393C418.615 55.4216 434.102 44.6498 464.629 54.5611C489.006 62.3692 496.271 95.9914 465.808 133.119L465.776 133.087Z" fill="black"/>
<path d="M671.594 788.449C651.997 788.354 641.258 784.083 632.049 777.295C625.485 772.451 620.195 763.24 616.116 756.962C613.153 752.373 610.731 749.377 608.915 750.556C607.799 751.258 606.652 753.425 609.393 759.32C615.575 772.706 631.507 798.01 668.853 796.512C675.864 796.193 658.306 819.426 670.479 854.738C682.651 890.049 684.914 901.331 681.249 928.26H688.897C688.897 928.26 694.282 903.944 686.921 879.659C679.56 855.343 671.116 837.528 675.896 815.251C680.58 792.847 684.181 788.513 671.658 788.449H671.594Z" fill="black"/>
<path d="M872.919 835.267C874.863 837.785 872.6 840.494 864.251 845.274C850.103 853.464 818.843 867.997 773.531 868.634C652.283 870.291 573.416 794.856 516.569 656.639C459.753 518.421 451.627 374.244 451.309 354.708C450.767 321.819 450.384 316.879 455.547 316.56C461.505 316.178 458.606 330.328 459.785 354.453C461.505 389.541 472.658 508.542 505.416 601.792C538.173 695.073 587.947 805.342 689.119 847.154C735.93 866.467 806.002 858.34 827.511 851.52C839.619 847.696 851.824 842.469 861.415 838.231C867.661 835.426 871.039 832.781 872.887 835.267H872.919Z" fill="black"/>
<path d="M649.925 80.4387C631.635 80.4387 621.502 78.7178 616.244 97.7757C612.038 113.073 597.571 163.49 595.468 173.274C593.364 183.026 591.644 193.607 615.383 193.607C639.123 193.607 643.361 196.125 650.149 174.517C656.936 152.91 669.682 107.082 672.645 98.19C675.609 89.2665 674.143 80.4387 649.925 80.4387ZM662.958 104.118C660.632 112.244 651.009 143.508 645.942 161.323C639.601 183.664 641.003 185.926 620.386 185.926C595.213 185.926 602.669 176.716 604.836 166.136C606.939 155.523 619.303 117.12 623.509 101.568C627.429 86.9719 632.4 88.1192 645.56 88.1192C664.615 88.183 666.973 89.8402 662.926 104.15L662.958 104.118Z" fill="black"/>
<path d="M631.125 841.48C626.887 829.21 595.946 734.207 588.713 710.433C581.511 686.69 537.855 544.202 532.311 523.837C527.627 510.261 532.311 505.608 534.032 489.514C535.752 473.42 544.26 404.805 527.69 346.197C520.903 322.2 512.395 307.508 512.395 307.508L437.766 308.464C437.766 308.464 390.128 341.226 355.108 354.26C355.044 354.26 347.842 353.814 345.325 364.044C345.325 364.044 329.233 436.961 359.76 525.176C362.277 532.825 366.547 538.752 362.277 564.184C358.039 589.648 320.725 829.624 316.487 859.263C312.249 888.902 316.933 884.727 378.433 895.754C434.134 905.761 431.871 907.609 437.798 882.177C443.757 856.713 453.89 785.039 458.128 784.593C462.366 784.147 475.782 819.681 487.763 846.101C509.4 893.554 510.674 905.474 524.663 902.064C538.716 898.685 599.292 886.416 631.093 858.371C635.778 854.992 635.331 853.686 631.093 841.416L631.125 841.48ZM496.494 406.239C501.338 404.996 503.696 419.146 509.623 446.968C517.812 485.084 525.077 502.772 519.405 504.397C513.224 506.214 511.343 494.804 502.517 451.558C494.997 414.908 490.312 407.801 496.494 406.239ZM402.587 761.328C401.727 767.67 399.146 782.968 397.043 793.134C394.939 803.364 389.841 827.521 387.738 833.449C385.635 839.376 385.221 847.025 381.397 846.579C377.573 846.133 376.712 844.476 378.433 836.413C380.154 828.35 383.117 819.044 387.355 797.819C391.562 776.626 393.059 751.258 400.07 752.022C403.83 752.469 403.416 754.986 402.587 761.328ZM456.981 776.116C453.604 778.378 450.736 775.51 446.816 765.949C442.833 756.325 434.93 739.944 420.241 703.198C405.551 666.453 375.024 583.879 373.303 577.697C371.582 571.514 366.133 561.348 371.582 560.2C375.82 559.404 376.681 563.865 380.09 574.828C383.277 585.059 423.045 686.786 428.143 699.215C433.242 711.644 450.194 752.373 453.604 760.85C456.981 769.359 459.53 774.427 456.981 776.148V776.116ZM538.939 826.119C534.733 827.84 533.076 823.442 529.156 813.307C524.568 801.643 505.385 754.221 495.57 722.416C485.788 690.674 458.479 615.271 450.799 587.162C443.12 559.053 426.486 491.841 423.045 474.854C419.603 457.836 414.473 442.666 420.718 441.582C425.116 440.818 425.626 452.673 429.45 470.552C433.178 488.59 457.873 579.959 461.347 592.293C464.852 604.626 496.813 701.637 502.612 718.432C508.412 735.227 532.152 798.998 535.434 808.622C538.716 818.247 543.113 824.398 538.939 826.119Z" fill="black"/>
<path d="M630.71 679.903C622.362 676.079 612.643 715.948 622.362 714.386C626.982 713.685 623.604 703.582 627.747 692.492C630.392 685.289 633.451 681.178 630.71 679.903Z" fill="black"/>
<path d="M802.369 760.374C803.867 768.022 758.554 755.275 732.839 762.095C707.123 768.883 698.615 779.91 680.006 774.524C647.567 765.154 652.411 713.43 663.117 692.938C671.498 676.94 678.572 670.056 677.871 667.793C676.469 663.331 660.855 667.156 649.033 681.401C635.841 697.209 638.071 707.502 633.961 707.502C629.85 707.502 628.575 694.786 642.469 677.003C656.298 659.188 681.759 655.268 685.136 663.427C688.514 671.617 666.4 690.07 663.181 716.713C661.46 730.64 663.946 764.931 682.619 769.17C696.194 772.293 709.258 762.541 729.015 756.454C743.705 751.928 768.241 753.968 779.044 755.052C790.547 756.071 801.859 757.474 802.401 760.31L802.369 760.374Z" fill="black"/>
<path d="M615.957 715.629C609.393 714.514 610.349 730.703 612.229 738.989C614.109 747.275 621.438 761.043 626.919 758.589C632.4 756.103 621.98 750.144 618.634 735.229C615.766 722.895 619.175 716.298 615.957 715.629Z" fill="black"/>
<path d="M904.976 761.011C897.647 761.967 905.294 807.572 917.69 829.052C930.117 850.532 953.57 852.986 952.869 846.867C952.487 843.648 934.834 844.827 923.33 824.112C913.165 805.819 910.042 783.734 909.341 772.229C908.704 761.202 906.378 760.82 904.976 761.043V761.011Z" fill="black"/>
<path d="M983.268 770.252C980.751 768.149 977.086 775.192 971.86 780.705C965.615 787.27 961.918 789.756 964.659 791.477C966.475 792.592 971.159 792.178 977.373 784.976C983.332 777.964 984.543 771.304 983.3 770.284L983.268 770.252Z" fill="black"/>
<path d="M622.681 126.554C617.614 130.856 615.097 132.737 614.714 135.764C614.332 138.792 619.016 143.509 622.075 147.014C624.911 150.233 627.843 153.197 630.042 153.42C633.642 153.739 636.223 150.934 641.003 146.632C645.942 142.106 648.97 139.971 649.352 137.167C649.671 135.063 647.791 133.565 642.851 127.924C636.606 120.754 635.363 119.957 632.75 119.957C630.074 120.021 625.071 124.642 622.681 126.586V126.554Z" fill="black"/>
<path d="M33.7131 589.075C10.7382 584.932 6.30896 568.36 9.4955 543.852C15.1357 499.713 17.1432 477.437 23.0701 477.723C29.0289 478.042 21.9548 504.589 17.1113 544.713C15.5499 557.684 14.1478 574.32 31.8012 580.885C39.4489 583.753 46.9691 583.466 47.6064 586.526C48.0844 588.31 47.2878 591.465 33.7131 589.043V589.075Z" fill="black"/>
<path d="M182.525 222.131C166.879 227.453 162.195 206.833 158.785 208.299C155.567 209.638 149.735 213.526 144.095 211.423C136.926 208.746 132.783 201.511 135.906 186.564C139.029 171.618 151.552 158.966 154.643 162.949C156.969 165.977 146.262 176.844 143.84 188.285C142.183 196.189 142.725 201.734 146.103 202.977C151.329 204.953 157.734 198.197 162.513 199.758C167.261 201.256 169.301 218.529 179.466 215.151C186.253 212.889 181.633 200.236 184.405 198.643C190.874 194.723 194.697 218.083 182.525 222.163V222.131Z" fill="black"/>
<path d="M218.565 161.1C208.878 174.166 199.477 171.872 194.666 169.004C189.217 165.785 178.032 168.079 177.299 179.17C176.534 190.324 183.64 195.105 190.746 195.742C194.984 196.125 194.506 202.307 189.822 201.925C171.946 200.809 167.708 183.345 170.99 172.924C174.75 160.813 189.344 156.83 198.713 162.757C208.081 168.685 217.449 148.862 218.501 139.015C219.266 131.844 223.982 135.828 235.294 125.629C241.062 120.467 246.447 109.822 235.676 103.576C224.906 97.3931 214.04 114.762 209.101 114.379C201.294 113.838 214.709 90.7642 204.863 87.641C188.771 82.5738 170.798 113.646 168.122 121.454C165.381 129.262 164.457 130.505 161.175 131.047C141.196 134.553 128.354 141.532 128.513 150.742C128.673 159.953 135.874 162.152 139.857 163.713C143.777 165.275 143.076 169.482 138.901 169.8C131.7 170.278 121.089 164.701 120.547 152.75C120.642 127.733 156.427 125.183 159.55 124.068C162.673 122.952 178.287 70.7821 208.081 81.0122C219.043 84.7728 213.689 104.851 213.689 104.851C213.689 104.851 233.478 83.3705 246.606 103.894C249.123 107.814 254.668 126.809 225.957 140.066C223.536 141.373 226.212 150.838 218.596 161.164L218.565 161.1Z" fill="black"/>
<path d="M222.994 198.674C216.812 203.455 226.913 212.251 230.642 209.988C235.23 207.12 231.247 192.268 222.994 198.674Z" fill="black"/>
<path d="M26.0977 528.141C23.3573 532.826 45.6949 548.219 69.7851 551.055C98.0496 554.401 123.478 554.019 152.507 545.733C176.63 538.849 187.177 530.882 183.608 527.217C180.485 524.094 157.606 536.427 142.502 539.869C132.05 542.195 116.404 548.378 71.3783 543.247C45.1213 540.283 29.9853 521.544 26.1296 528.109L26.0977 528.141Z" fill="black"/>
<path d="M297.017 402.702C295.296 373.701 277.866 309.165 259.129 277.36C256.165 272.292 246.415 275.702 236.951 280.387C223.981 286.729 217.417 290.554 217.417 290.554C214.836 292.37 213.338 287.175 211.012 281.981C202.09 261.999 181.409 230.002 170.862 228.854C140.176 225.572 92.282 265.345 65.7063 302.377C39.7042 338.581 -16.8886 448.435 38.5889 473.133C69.6258 486.965 153.623 472.592 183.289 458.187C198.585 451.399 201.198 449.263 202.823 425.521C203.301 418.477 201.962 415.418 207.22 415.29C215.123 415.067 218.15 414.685 218.15 418.828C218.15 465.485 208.718 525.112 203.683 553.954C198.617 582.796 185.934 584.453 166.401 585.346C146.867 586.238 96.0103 586.844 73.0991 586.206C52.769 585.601 49.8055 586.461 48.9452 592.548C48.3078 596.85 41.7436 636.241 40.4371 648.957C39.1306 661.705 37.9198 663.808 46.7783 663.808C55.6369 663.808 140.048 665.529 175.642 665.529C211.235 665.529 226.563 664.669 236.728 664.669C246.893 664.669 251.577 662.948 251.577 650.678C251.577 638.408 246.096 523.933 244.789 498.47C243.483 473.07 242.113 453.852 241.189 447.542C240.488 442.22 242.145 443.176 244.057 445.056C245.968 446.937 258.587 458.027 277.802 454.49C297.017 450.889 297.941 418.318 297.017 402.67V402.702ZM219.648 295.493C222.611 293.517 230.45 306.679 234.784 319.491C240.042 335.043 242.846 347.377 240.169 348.492C236.122 350.149 233.86 336.764 228.857 321.786C223.918 306.775 217.003 297.182 219.648 295.461V295.493ZM139.857 344.254C144.955 330.677 148.588 307.221 154.547 307.667C159.932 308.05 154.292 329.849 150.882 339.154C147.505 348.524 141.833 374.784 135.077 374.243C129.31 373.765 134.758 357.83 139.857 344.254ZM178 385.269C167.835 386.385 136.734 389.508 118.921 390.655C101.109 391.771 77.6877 395.723 77.1141 388.934C76.5724 382.688 108.501 381.573 118.667 381.031C128.832 380.489 170.639 376.792 178.032 376.25C185.424 375.709 194.984 375.167 194.697 379.119C194.442 383.039 188.197 384.186 178.032 385.301L178 385.269ZM194.187 309.165C182.716 271.878 160.219 249.378 163.565 245.235C170.193 237.013 193.901 282.809 198.744 297.692C204.448 315.667 215.951 355.121 210.948 356.842C205.563 358.659 205.563 346.453 194.155 309.165H194.187ZM253.967 398.814C252.565 405.602 246.064 408.821 235.899 408.502C225.798 408.184 211.458 407.578 206.264 405.857C201.166 404.2 202.058 395.245 202.6 384.919C203.046 376.728 204.575 374.147 207.666 371.629C210.789 369.112 228.283 358.053 238.161 354.133C248.072 350.213 254.253 353.018 255.974 362.897C257.631 372.809 255.369 392.026 253.999 398.782L253.967 398.814Z" fill="black"/>
<path d="M232.489 232.233C244.917 228.185 248.199 223.66 250.143 216.489C252.469 207.885 249.346 198.802 250.621 191.44C251.704 185.225 258.014 183.027 254.253 174.454C250.493 165.881 244.598 162.821 242.272 166.231C240.01 170.693 248.932 174.167 247.976 180.063C247.275 184.269 241.348 184.142 242.431 196.475C244.535 210.275 244.439 218.306 234.624 223.118C220.317 228.217 212 232.902 206.742 246.829C203.396 255.657 204.002 257.792 206.041 258.525C209.037 259.609 211.14 254.637 213.912 248.518C217.959 239.563 221.815 236.121 232.521 232.297L232.489 232.233Z" fill="black"/>
<path d="M901.502 752.979C907.302 753.298 912.974 728.121 930.468 730.065C945.763 731.786 951.403 736.567 959.593 730.065C967.782 723.564 990.438 708.267 993.497 705.685C997.257 702.498 997.735 712.856 1003.66 710.593C1009.62 708.33 1013.89 701.988 1010.7 692.236C1007.96 683.632 999.456 687.998 992.35 694.754C984.989 701.765 957.744 720.473 952.965 723.532C948.185 726.655 943.277 721.747 930.531 722.034C917.785 722.289 907.811 731.468 902.713 739.69C897.646 747.912 898.124 752.82 901.534 752.979H901.502Z" fill="black"/>
<path d="M941.844 747.18C937.702 750.208 933.177 753.203 936.586 755.849C940.346 758.749 952.041 748.041 948.695 744.662C946.528 742.559 944.712 745.109 941.876 747.18H941.844Z" fill="black"/>
<path d="M998.245 754.127C992.7 753.489 993.147 765.058 987.602 772.802C981.803 780.929 988.908 785.454 995.345 775.83C998.181 771.591 1004.94 754.892 998.245 754.127Z" fill="black"/>
<path d="M1014.02 705.367C1008.92 708.426 1019.28 724.584 1018.16 739.117C1017.05 753.585 1003.09 763.274 1006.69 767.895C1010.29 772.58 1024.57 760.724 1025.75 739.627C1026.83 718.465 1020.58 701.32 1014.02 705.335V705.367Z" fill="black"/>
<path d="M71.9839 652.942C67.5227 647.779 46.5235 685.194 47.6706 732.711C48.6903 775.161 16.7294 790.235 2.99545 835.076C-2.103 852.572 0.509953 856.396 3.85581 855.408C8.22136 854.165 5.57654 846.58 15.168 825.164C30.4634 790.936 50.6341 774.747 54.458 748.901C57.995 724.744 53.0559 709.765 62.1056 681.529C70.7093 654.79 75.3935 656.894 72.0158 652.942H71.9839Z" fill="black"/>
<path d="M125.167 683.472C119.017 681.974 105.952 739.435 100.312 758.11C94.6721 776.786 81.6392 821.977 77.7197 834.437C73.8003 846.898 71.5379 854.228 75.999 855.376C80.5239 856.491 84.5071 841.226 90.1472 821.467C95.7874 801.676 109.936 754.19 113.281 741.697C116.627 729.268 122.873 708.936 125.135 700.427C127.462 691.981 129.724 684.619 125.199 683.472H125.167Z" fill="black"/>
<path d="M3.44134 860.635C0.31854 865.543 12.1087 872.49 22.7199 876.729C33.331 880.967 84.8573 899.324 118.411 901.491C124.37 902.352 125.358 898.368 127.875 888.202C130.393 878.035 169.045 758.876 172.423 751.227C175.801 743.578 205.468 670.247 209.706 660.495C211.809 654.153 200.815 654.153 197.852 660.495C194.888 666.837 172.837 723.692 166.464 742.718C160.123 761.808 134.217 839.442 129.182 854.675C124.115 869.909 120.26 883.103 118.571 887.724C116.914 892.408 118.093 893.428 107.163 891.102C70.6772 883.453 39.3536 873.733 26.9898 869.048C14.6261 864.363 6.1499 856.332 3.40948 860.667L3.44134 860.635Z" fill="black"/>
<path d="M215.601 891.515C232.617 890.209 292.715 880.17 296.794 879.086C301.892 877.78 299.279 873.828 297.399 855.089C295.902 839.441 279.172 723.181 274.902 692.65C270.664 662.151 257.09 567.563 254.987 549.748C252.883 531.933 248.199 509.879 252.469 509.019C256.707 508.158 256.707 514.564 260.531 534.036C264.355 553.508 278.758 659.538 281.722 679.074C284.685 698.61 304.218 842.373 306.322 865.223C308.425 888.137 307.724 884.918 296.157 887.277C283.952 889.763 234.21 898.303 218.469 899.801C204.321 901.14 195.717 902.128 191.447 896.2C176.311 875.039 177.872 829.625 181.696 805.022C185.52 780.419 170.671 758.365 177.012 754.987C184.214 751.162 191.001 782.554 189.28 804.607C187.559 826.661 182.971 860.953 196.482 888.998C198.999 894.097 205.946 892.216 215.569 891.483L215.601 891.515Z" fill="black"/>
<path d="M216.907 691.376C211.299 692.491 217.513 718.72 219.425 735.515C221.942 757.537 228.347 799.509 230.832 815.698C233.35 831.856 235.517 855.567 243.101 853.846C248.645 852.539 240.997 827.968 237.556 801.708C234.178 775.383 226.945 729.205 224.427 713.079C221.942 696.921 221.942 690.356 216.907 691.376Z" fill="black"/>
<path d="M261.678 199.471C258.332 201.638 264.801 213.908 262.22 224.074C259.702 234.304 245.905 250.43 251.577 269.393C252.692 273.536 258.587 274.141 257.982 266.206C257.376 258.27 258.842 248.709 264.482 237.937C270.122 227.166 271.269 221.525 269.581 211.072C267.86 200.618 264.641 197.623 261.678 199.439V199.471Z" fill="black"/>
<path d="M233.095 239.627C228.028 237.11 220.221 258.94 228.347 275.799C230.833 280.898 236.473 278.827 234.752 274.078C233.031 269.33 230.386 261.203 232.107 253.745C233.892 246.256 236.887 241.571 233.063 239.659L233.095 239.627Z" fill="black"/>
<path d="M240.296 167.666C240.201 156.639 240.838 152.814 235.931 152.814C232.011 152.814 232.394 158.073 232.553 168.112V168.207C228.188 168.813 220.508 169.865 214.262 170.534C205.659 171.49 202.632 171.649 202.6 174.677C202.504 177.545 208.75 177.163 215.123 176.557C220.189 176.079 227.933 175.378 232.617 174.836C232.617 183.823 232.681 187.17 237.301 186.883C240.838 186.724 240.488 181.784 240.328 167.666H240.296Z" fill="black"/>
<path d="M119.336 120.212C120.197 125.152 132.21 119.097 143.235 120.754C154.261 122.475 158.562 130.665 161.59 128.658C165.254 126.236 159.168 116.93 144.637 114.38C130.107 111.831 118.635 116.197 119.336 120.18V120.212Z" fill="black"/>
<path d="M943.565 773.662C938.626 776.084 948.568 787.334 950.894 809.547C953.379 833.481 948.695 842.755 954.24 842.755C959.784 842.755 959.019 818.598 957.139 805.946C955.419 794.855 949.555 770.698 943.565 773.662Z" fill="black"/>
<path d="M567.203 896.041C562.105 897.157 569.466 909.873 571.123 921.218C572.843 932.532 573.449 937.886 576.508 938.491C580.332 939.193 580.332 928.58 575.966 912.773C572.939 901.905 570.358 895.34 567.203 896.041Z" fill="black"/>
<path d="M599.833 873.606C599.833 873.606 603.752 890.178 612.483 904.487C621.214 918.797 625.357 921.442 628.129 918.797C630.965 916.151 622.871 907.483 618.697 900.727C614.523 893.97 607.926 880.012 606.046 871.279L599.801 873.606H599.833Z" fill="black"/>
<path d="M49.9327 1007.46H945.349C988.558 1007.46 1013.41 1004.59 1012.87 1010.83C1012.33 1017.08 991.936 1015.36 944.807 1015.36H48.7856C36.3581 1015.36 25.6514 1015.9 25.6514 1010.99C25.6514 1006.47 37.3141 1007.46 49.9327 1007.46Z" fill="black"/>
<path d="M702.694 1008.19C691.446 997.577 686.538 981.451 684.403 969.118C683.862 965.899 683.479 962.871 683.288 960.354C685.71 959.047 687.909 957.772 690.012 956.625C690.267 959.302 690.617 962.425 691.095 965.676C691.732 969.755 692.593 973.962 693.836 977.723C699.858 995.219 704.001 997.195 707.41 1003.5C710.788 1009.85 705.53 1010.99 702.726 1008.19H702.694Z" fill="black"/>
<path d="M634.471 924.565C639.251 927.783 628.066 942.38 612.42 947.065C601.491 950.283 577.432 947.383 581.479 941.105C584.538 936.356 596.711 944.61 610.923 939.926C623.032 936.038 629.596 921.314 634.503 924.597L634.471 924.565Z" fill="black"/>
<path d="M572.27 939.033C566.885 940.117 568.605 967.62 571.155 982.312C573.672 997.004 575.679 1010.9 580.746 1009.18C585.844 1007.46 579.886 988.526 577.91 974.408C574.946 952.769 579.153 937.695 572.302 939.065L572.27 939.033Z" fill="black"/>
<path d="M691.095 965.611C688.992 966.727 686.793 967.938 684.467 969.117C675.704 973.706 665.38 978.901 653.526 984.765C615.925 1003.7 586.959 1009.37 585.494 1004.21C585.111 1002.9 584.378 1001.02 595.085 998.947C605.855 996.843 630.965 986.358 653.462 975.586C665.571 969.786 675.322 964.655 683.225 960.289C685.646 958.982 687.845 957.708 689.948 956.56C709.736 945.31 715.09 940.689 717.926 943.908C721.463 947.956 711.744 954.616 691.063 965.611H691.095Z" fill="black"/>
<path d="M590.783 981.93C591.708 987.698 605.091 983.237 630.711 974.186C642.182 970.138 664.775 957.677 662.353 953.247C659.326 947.766 653.303 956.116 627.269 967.397C606.174 976.64 589.859 975.747 590.783 981.93Z" fill="black"/>
<path d="M712.891 929.025C702.185 922.46 682.396 927.464 672.582 926.762C647.727 925.041 637.721 912.294 634.12 918.094C630.998 923.161 651.997 933.551 674.048 933.901C696.098 934.22 697.469 930.364 706.646 934.061C710.788 935.781 713.656 936.005 714.771 934.22C715.791 932.754 715.377 930.491 712.891 928.993V929.025Z" fill="black"/>
<path d="M715.345 957.071C710.182 958.409 714.803 976.862 717.32 987.06C719.838 997.258 725.223 1009.24 729.174 1008.54C734.719 1007.58 728.059 1001.91 722.833 979.762C720.156 968.416 720.666 955.7 715.345 957.103V957.071Z" fill="black"/>
<path d="M256.899 898.845C249.538 899.961 258.619 918.7 261.997 945.789C264.26 963.859 263.112 966.982 267.956 966.727C272.799 966.472 270.473 942.411 266.841 926.572C263.08 910.796 261.583 898.208 256.899 898.845Z" fill="black"/>
<path d="M298.801 882.209C293.257 883.229 300.267 917.839 304.983 930.523C311.165 947.382 336.02 961.246 358.963 958.792C363.743 958.25 367.949 954.425 360.27 954.266C349.467 954.011 321.426 948.083 311.834 927.942C302.084 907.928 304.888 881.062 298.801 882.209Z" fill="black"/>
<path d="M79.632 891.516C75.5851 890.656 70.4867 909.873 62.2654 924.565C56.6571 934.572 47.3206 949.009 49.9973 951.526C53.0245 954.395 55.9242 950.825 67.4913 929.791C77.1147 912.423 84.0613 892.44 79.6639 891.516H79.632Z" fill="black"/>
<path d="M117.838 898.304C113.09 897.985 105.411 921.218 110.796 942.985C116.181 964.72 134.058 981.292 139.061 975.237C143.108 970.329 123.351 963.764 118.762 939.224C113.441 910.478 126.569 898.846 117.838 898.336V898.304Z" fill="black"/>
<path d="M399.209 959.748C396.246 953.406 371.104 953.247 366.006 953.407C355.554 953.725 353.291 961.31 323.593 965.039C309.508 966.76 286.852 969.564 274.425 969.564C261.997 969.564 261.296 971.381 261.392 985.977C261.487 999.012 259.129 1014.76 273.819 1012.56C288.509 1010.29 349.053 999.171 382.353 980.91C398.349 972.082 402.109 966.154 399.209 959.748ZM380.982 974.058C371.072 979.157 332.929 992.988 315.722 996.398C298.451 999.776 270.505 1009.11 269.932 997.705C269.549 990.056 269.613 980.336 269.613 980.336C269.932 974.695 274.935 979.03 314.288 974.154C350.774 969.628 355.235 961.438 364.859 960.577C374.45 959.717 391.721 959.717 392.263 963.445C392.868 966.983 390.861 969.054 381.014 974.09L380.982 974.058Z" fill="black"/>
<path d="M666.336 885.493C666.336 885.493 657.828 895.5 652.953 904.71C648.045 913.921 649.894 915.865 651.232 916.375C654.419 917.681 657.414 910.734 665.699 899.579C673.984 888.425 678.891 884.123 682.269 881.701L679.783 873.191C679.783 873.191 672.964 878.099 666.336 885.461V885.493Z" fill="black"/>
<path d="M363.17 897.762C357.211 894.16 352.399 916.979 346.759 929.408C341.119 941.837 341.661 946.362 344.497 946.904C347.333 947.446 355.809 928.834 359.792 916.405C363.775 903.976 365.974 899.451 363.17 897.793V897.762Z" fill="black"/>
<path d="M407.653 905.091C402.65 904.295 393.664 931.416 399.145 949.231C404.371 966.121 439.168 982.343 462.334 990.087C467.432 991.808 473.359 996.716 475.462 1001.4C477.565 1006.09 484.703 1003.5 481.549 995.632C478.426 987.824 470.937 985.466 457.235 980.239C437.001 972.495 410.521 958.759 406.378 947.573C400.196 930.842 414.886 906.239 407.685 905.123L407.653 905.091Z" fill="black"/>
<path d="M412.879 989.291C392.549 989.291 380.122 985.371 378.975 991.012C377.827 996.652 392.007 996.652 403.83 996.652C415.652 996.652 429.29 997.768 429.29 993.274C429.29 988.781 421.387 989.291 412.879 989.291Z" fill="black"/>
<path d="M173.698 999.968C173.857 992.956 151.36 981.675 146.74 979.508C137.212 975.142 131.827 980.974 103.594 971.126C90.1471 966.377 68.6698 958.92 57.517 953.375C46.3641 947.829 44.9302 949.168 38.6208 962.298C32.9807 973.962 23.7716 987.093 37.9835 991.618C52.1955 996.143 111.338 1012.97 149.257 1011.41C167.484 1010.55 173.539 1006.95 173.698 999.936V999.968ZM151.042 1004.65C139.889 1004.81 99.6111 1000.29 82.595 995.665C65.6426 991.076 36.4221 986.997 41.0107 976.512C44.0698 969.501 48.4991 960.8 48.4991 960.8C51.2395 955.861 53.8843 961.916 91.2942 975.078C125.964 987.188 133.643 981.866 142.693 985.372C151.679 988.877 167.134 996.526 166.05 1000.06C164.967 1003.6 162.226 1004.53 151.105 1004.68L151.042 1004.65Z" fill="black"/>
<path d="M201.93 204.762C204.992 204.762 207.475 202.28 207.475 199.217C207.475 196.155 204.992 193.672 201.93 193.672C198.868 193.672 196.386 196.155 196.386 199.217C196.386 202.28 198.868 204.762 201.93 204.762Z" fill="black"/>
</g>
<defs>
<clipPath id="clip0_2187_9760">
<rect width="1026" height="1066" fill="white"/>
</clipPath>
</defs>
</svg>
