<svg width="990" height="957" viewBox="0 0 990 957" fill="none" xmlns="http://www.w3.org/2000/svg">
<g clip-path="url(#clip0_2187_9834)">
<path d="M438.025 343.015C437.224 347.764 445.582 347.821 453.625 347.821H636.872L637.187 339.467H453.94C443.664 339.467 438.683 339.152 438.025 343.015Z" fill="black"/>
<path fill-rule="evenodd" clip-rule="evenodd" d="M128.891 423.955C129.693 422.324 129.721 419.234 129.55 412.911C129.235 402.154 127.145 370.482 126.487 364.073C125.914 358.322 125.771 355.547 124.283 354.832L124.34 354.431L185.738 371.683C186.11 369.366 186.31 367.106 186.396 364.903C187.34 339.697 173.63 301.301 123.596 299.355C80.8039 297.725 59.8515 339.01 62.6852 366.791C65.519 395.259 85.1833 423.011 125.485 423.955C126.63 423.955 127.775 423.955 128.891 423.955Z" fill="#6B22FF"/>
<path d="M446.383 406.329C445.582 411.079 453.94 411.136 461.983 411.136H542.672L542.987 402.782H462.298C452.022 402.782 447.041 402.467 446.383 406.329Z" fill="black"/>
<path d="M562.795 314.089H540.297C535.574 314.089 533.599 314.089 532.54 326.506C531.481 338.923 522.292 406.845 522.292 406.845L589.157 403.212C589.157 403.212 581.858 357.578 580.57 346.219C579.282 334.861 577.421 323.474 576.505 318.81C575.332 312.916 571.353 314.089 562.795 314.089Z" fill="black"/>
<path d="M572.24 756.238C567.661 756.553 569.349 762.99 568.376 773.92C567.403 784.849 561.936 800.9 548.769 812.802C535.602 824.704 520.146 833.373 510.185 837.55C500.224 841.727 497.476 844.302 498.678 846.877C500.166 850.081 507.523 848.737 515.222 845.275C523.638 841.498 540.697 832.429 554.837 818.61C567.231 806.507 574.759 790.342 576.047 774.921C577.335 759.5 575.188 756.067 572.183 756.295L572.24 756.238Z" fill="black"/>
<path d="M648.322 360.782C644.486 359.837 640.164 369.365 638.676 380.265C637.187 391.195 637.731 394.371 638.046 400.608C638.361 407.56 640.193 420.75 644.686 421.608C649.18 422.466 645.316 407.045 645.116 396.974C644.915 386.903 645.975 380.037 647.463 373.828C648.951 367.619 650.898 361.411 648.322 360.753V360.782Z" fill="black"/>
<path d="M436.565 688.118C432.501 686.945 431.098 694.87 427.892 703.854C424.687 712.837 414.382 729.575 400.9 743.365C387.39 757.184 376.456 766.511 370.044 771.003C363.633 775.495 359.425 779.987 361.057 783.849C362.688 787.712 372.306 788.999 388.392 785.451C404.478 781.904 435.02 773.893 444.322 771.003C453.654 768.113 459.435 766.282 458.777 762.42C458.119 758.557 450.963 760.703 443.034 762.963C436.079 764.937 397.065 775.81 390.31 777.412C383.555 779.014 371.533 781.846 370.903 779.872C370.273 777.898 380.664 773.549 394.804 760.045C403.391 751.862 421.967 735.068 434.333 708.002C437.71 700.621 440.315 689.148 436.594 688.089L436.565 688.118Z" fill="black"/>
<path d="M729.24 288.426C729.24 288.426 730.557 289.513 732.217 291.344C733.419 290.772 734.135 290.429 734.221 290.371L729.24 288.426Z" fill="black"/>
<path d="M864.601 346.219C840.986 335.605 791.496 310.513 771.059 306.221C760.354 303.961 743.008 314.805 738.285 301.071C736.911 297.066 734.278 293.633 732.217 291.344C723.544 295.492 689.797 311.371 689.797 311.371C688.824 318.61 673.396 316.178 661.259 316.664C640.049 317.494 627.341 336.034 617.866 346.877C606.617 359.723 580.255 390.251 580.255 390.251L552.118 417.574L628.8 442.637L737.885 468.072C736.396 462.865 736.024 454.453 735.738 447.358C735.308 436.228 734.879 420.807 736.367 409.878C737.856 398.949 743.237 384.987 750.078 385.673C754.372 386.102 756.518 398.748 756.948 407.103C757.377 415.457 756.518 423.811 752.883 440.091C750.221 451.964 748.132 464.153 745.298 469.817L750.107 470.933C750.107 470.933 768.397 470.762 780.963 470.504C791.668 470.304 789.75 467.3 792.269 450.362C794.33 436.457 796.133 421.923 796.133 421.923C796.133 421.923 825.558 423.382 855.928 420.95C886.297 418.547 901.267 409.878 903.185 391.052C905.103 372.255 888.244 356.834 864.601 346.219ZM766.165 353.944C752.568 355.146 735.566 351.169 716.846 365.789C698.126 380.409 683.786 385.874 674.255 381.324C667.442 378.063 666.784 368.65 668.558 363.557C669.56 360.639 671.507 359.866 672.995 360.238C674.512 360.61 674.827 362.556 674.226 365.159C673.339 369.108 673.94 373.914 677.317 375.745C680.695 377.576 694.606 375.974 713.927 359.981C733.247 343.987 753.112 349.595 766.021 347.993C774.98 346.877 781.936 339.467 784.712 342.671C787.489 345.876 779.761 352.714 766.136 353.915L766.165 353.944Z" fill="black"/>
<path d="M603.526 748.114C600.206 748.972 600.75 756.039 601.379 766.739C602.009 777.44 603.955 795.865 605.014 808.082C606.074 820.298 607.161 825.219 608.22 832.715C609.279 840.211 610.997 845.133 614.432 844.503C617.866 843.874 615.491 834.232 615.061 827.165C614.632 820.098 610.338 787.968 609.48 777.468C608.621 766.968 608.192 763.764 607.991 758.843C607.791 753.922 607.562 747.055 603.497 748.142L603.526 748.114Z" fill="black"/>
<path d="M403.591 854.489C403.591 857.865 400.385 858.352 390.739 858.352H41.3035C32.7165 858.352 27.965 858.266 28.2798 854.003C28.5088 850.798 32.4589 851.056 41.3608 851.056H390.195C399.183 851.056 403.591 850.855 403.591 854.489Z" fill="black"/>
<path d="M781.449 730.547H790.666C795.16 730.547 797.307 730.747 797.536 735.697C797.765 740.647 798.824 769.544 798.824 778.956C798.824 788.369 798.624 796.523 802.259 796.724C805.894 796.924 806.323 787.94 806.753 778.956C807.182 769.973 807.182 744.681 807.611 734.41C808.041 724.138 808.041 717.071 795.818 717.272C783.596 717.472 778.244 717.272 778.244 717.272L781.449 730.547Z" fill="black"/>
<path d="M739.401 698.101L734.564 698.273C734.564 698.273 727.007 678.675 725.576 675.299C724.145 671.923 725.09 670.32 729.755 670.32H738.743C738.743 670.32 742.435 670.492 745.985 670.492C749.534 670.492 750.965 671.779 749.248 676.271C747.531 680.763 739.401 698.13 739.401 698.13V698.101Z" fill="black"/>
<path d="M703.393 718.33C703.278 721.478 707.372 721.706 712.037 721.706H762.1C766.021 721.706 769.284 720.877 769.399 718.388C769.513 715.898 766.45 715.412 762.443 715.412H712.18C708.373 715.412 703.507 715.412 703.422 718.33H703.393Z" fill="black"/>
<path d="M759.753 420.778C759.753 424.44 764.905 425.069 775.61 425.069C786.316 425.069 802.402 424.869 809.701 424.869C817 424.869 820.979 424.24 821.064 421.293C821.15 418.489 817.63 417.373 809.701 417.373H775.21C767.052 417.373 759.782 416.744 759.782 420.806L759.753 420.778Z" fill="black"/>
<path d="M862.683 361.325C862.941 364.529 853.352 365.502 845.165 367.419C836.979 369.336 811.418 374.486 798.71 377.69C786.001 380.894 774.923 384.27 767.997 386.216C761.07 388.161 755.459 389.134 754.83 385.73C754.028 381.552 762.873 379.779 767.997 378.348C773.12 376.917 803.203 369.021 813.164 366.789C823.125 364.558 844.364 360.838 851.749 359.408C857.817 358.235 862.425 358.12 862.683 361.325Z" fill="black"/>
<path d="M565.8 313.231C560.82 313.116 565.371 299.526 572.241 291.372C579.11 283.218 586.81 278.097 593.451 271.03C600.091 263.963 600.75 253.034 584.864 252.605C557.872 251.746 551.431 289.656 550.773 295.464C550.115 301.272 550.115 309.74 546.05 309.168C543.045 308.739 543.474 303.818 544.132 296.951C544.791 290.085 546.708 278.326 551.632 268.455C555.353 260.988 564.054 243.821 587.411 245.738C610.768 247.655 606.703 267.94 599.204 276.151C592.621 283.39 583.661 286.222 576.477 297.466C569.292 308.71 569.951 313.317 565.772 313.202L565.8 313.231Z" fill="black"/>
<path d="M307.015 581.457C307.015 581.457 325.334 667.575 328.225 686.544C331.116 705.513 348.491 790.344 353.614 817.639C358.738 844.933 361.972 856.52 361.972 856.52L369.357 856.206C369.357 856.206 354.902 783.277 352.011 766.54C349.12 749.803 327.91 638.965 325.649 627.721C323.388 616.477 316.661 584.661 316.661 584.661L307.015 581.457Z" fill="black"/>
<path d="M72.1597 840.87C73.6481 835.005 75.0221 827.28 76.8253 817.639C81.9776 790.315 99.3234 705.485 102.214 686.544C105.105 667.604 123.424 581.457 123.424 581.457L113.778 584.661C113.778 584.661 107.023 616.477 104.79 627.721C102.529 638.965 81.3192 749.831 78.4283 766.54C76.2529 779.071 68.7535 816.523 64.7176 837.866C63.2292 845.792 64.2883 847.279 66.8644 847.937C69.4405 848.595 71.0148 845.334 72.1597 840.842V840.87Z" fill="black"/>
<path d="M8.55842 580.97V531.531V258.385C8.55842 254.093 10.0468 254.751 13.911 254.751H419.849C424.343 254.751 423.713 256.267 423.713 261.188V576.164C423.713 581.772 423.255 588.495 428.694 588.037C433.13 587.665 432.701 581.142 432.701 573.904V256.096C432.701 246.769 426.433 246.311 421.137 246.311H7.87146C0.973198 246.282 0 248.371 0 253.521V579.511C0 586.263 1.60291 588.209 6.75514 588.209H402.16C413.724 588.209 420.593 588.753 420.708 584.461C420.822 580.112 411.806 580.97 402.646 580.97H8.55842Z" fill="black"/>
<path d="M66.9789 464.897C66.5495 469.389 72.3315 469.389 82.7218 469.389H168.02C172.256 469.389 174.66 468.044 174.66 465.269C174.66 462.207 170.796 461.463 166.073 461.463H83.5805C74.4782 461.463 67.351 461.034 66.9789 464.897Z" fill="black"/>
<path d="M66.9789 488.699C66.5495 493.191 72.3315 493.191 82.7218 493.191H168.02C172.256 493.191 174.66 491.847 174.66 489.071C174.66 486.01 170.796 485.266 166.073 485.266H83.5805C74.4782 485.266 67.351 484.837 66.9789 488.699Z" fill="black"/>
<path d="M66.9788 512.791C66.5495 517.283 72.3314 517.283 82.7217 517.283H126.115C130.351 517.283 132.756 515.938 132.756 513.163C132.756 510.102 128.891 509.358 124.169 509.358H91.1657C91.1657 509.358 93.1979 509.358 83.5518 509.358C74.4495 509.358 67.3223 508.929 66.9502 512.791H66.9788Z" fill="black"/>
<path d="M786 840.441C781.506 826.622 767.366 786.424 766.393 779.071C766.078 776.668 778.787 740.762 782.05 731.52C782.05 731.52 784.312 725.426 784.827 722.937C785.371 720.477 786.315 718.016 782.48 716.414C776.955 714.125 752.053 702.051 744.754 699.076C737.455 696.1 734.249 697.359 726.979 700.563C719.708 703.768 708.975 708.288 701.905 711.064C694.835 713.839 692.487 715.441 688.824 715.441H682.498C678.319 715.441 677.832 716.557 681.525 724.768C684.731 731.835 694.692 753.264 701.246 765.681C705.282 773.349 708.545 779.386 708.545 779.386C708.545 779.386 701.79 799.299 695.378 814.091C688.938 828.883 685.417 838.181 683.156 843.331C680.895 848.481 682.183 853.602 687.65 854.26C693.117 854.89 784.083 854.26 784.083 854.26C784.083 854.26 790.523 854.26 786 840.441ZM714.928 728.659C718.22 727.801 719.365 732.522 720.224 735.984C721.082 739.417 724.231 751.319 725.233 756.211C726.235 761.075 726.95 765.395 724.088 766.111C721.225 766.826 720.224 762.677 719.079 758.5C717.934 754.323 715.358 743.737 714.07 738.73C712.782 733.723 711.379 729.603 714.928 728.688V728.659ZM724.603 807.568C723.258 812.546 720.767 824.963 718.478 832.03C716.188 839.097 714.47 849.625 710.835 848.481C707.2 847.336 708.975 841.843 710.492 835.921C712.009 829.998 716.56 812.746 717.905 807.596C719.25 802.446 721.369 793.548 724.803 794.407C727.866 795.179 725.948 802.618 724.603 807.596V807.568ZM750.393 784.393H724.231C719.136 784.393 714.671 784.164 714.814 781.017C714.928 778.127 720.224 778.098 724.374 778.098H750.765C755.144 778.098 758.465 778.585 758.35 781.074C758.236 783.563 754.686 784.393 750.393 784.393ZM759.924 739.302C758.636 744.309 756.06 754.924 754.915 759.072C753.77 763.221 752.768 767.398 749.906 766.683C747.044 765.968 747.759 761.676 748.761 756.784C749.763 751.891 752.912 740.018 753.77 736.556C754.629 733.122 755.774 728.373 759.066 729.231C762.615 730.147 761.212 734.238 759.924 739.274V739.302Z" fill="black"/>
<path d="M750.622 795.693C747.444 796.036 748.189 802.102 749.191 808.396C750.192 814.69 751.595 821.5 752.454 827.594C753.198 832.887 754.658 840.354 757.806 839.639C760.955 838.924 759.81 832.458 758.951 826.163C758.092 819.869 755.803 808.682 755.087 804.505C754.371 800.328 753.427 795.378 750.65 795.664L750.622 795.693Z" fill="black"/>
<path fill-rule="evenodd" clip-rule="evenodd" d="M121.135 422.781L119.589 417.545C119.589 417.545 126.115 418.175 141.887 414.541C158.889 410.622 165.902 401.266 171.254 393.97C176.607 386.674 179.297 378.692 182.818 378.978C185.079 379.178 185.308 381.267 184.221 384.328C183.247 387.046 181.33 391.195 175.977 398.691C167.762 410.192 155.683 418.604 145.321 421.179C139.74 422.581 137.937 423.525 128.605 423.868L121.135 422.781Z" fill="black"/>
<path d="M233.396 478.4C229.102 478.4 229.102 483.322 229.102 490.617V522.547H237.46V490.617C237.46 484.609 238.376 478.372 233.396 478.4Z" fill="black"/>
<path d="M352.011 461.262C347.718 461.262 347.718 466.183 347.718 473.479V522.546H356.076V473.479C356.076 467.47 356.992 461.233 352.011 461.262Z" fill="black"/>
<path d="M315.059 491.16C310.765 491.16 310.765 496.081 310.765 503.377V522.546H319.123V503.377C319.123 497.369 320.039 491.132 315.059 491.16Z" fill="black"/>
<path d="M273.898 449.045C269.604 449.045 269.604 453.966 269.604 461.262V522.517H277.963V461.262C277.963 455.254 278.878 449.016 273.898 449.045Z" fill="black"/>
<path d="M253.318 489.529C249.024 489.529 249.024 494.45 249.024 501.746V522.518H257.382V501.746C257.382 495.738 258.298 489.501 253.318 489.529Z" fill="black"/>
<path d="M294.793 469.303C290.5 469.303 290.5 474.224 290.5 481.52V522.547H298.858V481.52C298.858 475.511 299.774 469.274 294.793 469.303Z" fill="black"/>
<path d="M369.386 486.326C365.092 486.326 365.092 491.247 365.092 498.543V522.547H373.45V498.543C373.45 492.535 374.366 486.298 369.386 486.326Z" fill="black"/>
<path d="M333.378 438.459C329.084 438.459 329.084 443.38 329.084 450.676V522.546H337.442V450.676C337.442 444.668 338.358 438.43 333.378 438.459Z" fill="black"/>
<path d="M928.746 484.093C925.855 471.562 914.978 443.065 911.4 434.282C904.96 418.546 892.423 419.175 871.871 419.977C858.389 420.492 852.579 419.977 842.933 419.977C828.793 419.977 816.828 428.674 810.789 448.416C802.86 474.337 793.328 495.023 807.153 495.023H913.032C922.019 495.023 931.666 496.625 928.775 484.093H928.746ZM890.476 478.943C876.594 484.551 873.045 475.367 864.286 469.473C854.955 463.207 831.655 486.182 821.036 481.204C813.737 477.77 822.639 465.124 829.394 455.168C836.149 445.211 845.566 435.112 849.316 437.83C852.207 439.918 848.829 444.267 845.623 447.958C842.418 451.649 831.168 465.296 828.106 471.247C825.043 477.198 835.348 471.419 843.362 467.385C851.405 463.379 859.191 459.688 865.545 462.578C874.39 466.583 878.369 478.571 889.818 472.334C894.541 469.759 899.979 466.24 901.926 468.586C904.702 471.905 894.97 477.141 890.448 478.972L890.476 478.943Z" fill="black"/>
<path d="M639.105 654.701C638.99 659.421 646.49 659.507 653.903 659.507H909.797C921.361 659.507 921.533 656.789 921.533 655.101C921.533 651.239 915.264 651.153 908.509 651.153H654.218C646.833 651.153 639.219 650.609 639.105 654.701Z" fill="black"/>
<path d="M617.351 298.238C641.252 298.238 640.708 266.223 640.822 257.954C640.937 248.97 639.649 248.427 633.094 248.541C627.083 248.627 596.656 248.541 596.656 248.541V255.293H632.35C634.926 255.293 634.64 256.781 634.496 262.475C634.382 266.652 633.838 290.685 618.038 291.457C611.283 291.772 607.276 286.307 605.014 282.617C602.753 278.926 598.316 281.386 599.862 285.735C600.921 288.739 605.329 298.267 617.322 298.267L617.351 298.238Z" fill="black"/>
<path d="M197.702 740.016C177.924 731.834 156.714 716.87 149.472 703.395C149.472 703.395 148.499 747.741 148.499 777.153C148.499 824.704 146.094 849.452 158.631 852.828C171.169 856.204 248.795 852.828 260.875 852.828C272.954 852.828 278.22 842.7 278.22 831.628C278.22 820.555 278.707 761.245 278.707 761.245C278.707 761.245 217.453 748.228 197.702 740.045V740.016ZM171.97 756.897C171.655 766.224 171.97 796.408 171.655 809.283C171.34 822.129 171.97 834.346 167.161 834.661C162.353 834.975 162.667 826.306 162.982 816.35C163.297 806.393 163.297 764.622 163.297 757.869C163.297 751.117 163.297 743.507 167.791 743.078C171.34 742.763 172.285 747.569 171.97 756.897Z" fill="black"/>
<path d="M942.056 777.126C942.056 747.714 941.083 703.367 941.083 703.367C933.841 716.871 912.631 731.806 892.852 739.989C873.073 748.172 811.848 761.79 811.848 761.79C811.848 761.79 812.306 820.471 812.306 831.572C812.306 842.673 817.601 852.772 829.651 852.772C841.702 852.772 919.357 856.148 931.895 852.772C944.432 849.396 942.027 824.648 942.027 777.097L942.056 777.126ZM923.422 834.633C918.613 834.318 919.243 822.102 918.928 809.256C918.613 796.409 918.928 766.196 918.613 756.869C918.298 747.542 919.243 742.736 922.792 743.05C927.286 743.451 927.286 751.09 927.286 757.842C927.286 764.594 927.286 806.366 927.601 816.322C927.916 826.279 928.231 834.948 923.422 834.633Z" fill="black"/>
<path d="M575.761 709.174H528.876C518.6 709.174 516.883 709.975 516.654 711.892C516.425 713.809 518.142 715.754 529.305 715.754H662.261C668.902 715.754 673.625 715.125 673.825 712.321C674.026 709.517 669.331 708.688 662.032 708.688C654.733 708.688 575.761 709.174 575.761 709.174Z" fill="black"/>
<path d="M482.22 762.189C473.375 762.189 471.658 762.991 471.457 764.908C471.257 766.824 473.547 768.77 482.649 768.77H549.399C556.039 768.77 560.276 768.141 560.476 765.337C560.676 762.533 556.469 761.703 549.17 761.703L482.191 762.189H482.22Z" fill="black"/>
<path d="M613.687 762.189C604.843 762.189 603.125 762.991 602.925 764.908C602.725 766.824 605.014 768.77 614.117 768.77H680.867C687.507 768.77 691.744 768.141 691.944 765.337C692.144 762.533 687.937 761.703 680.638 761.703L613.659 762.189H613.687Z" fill="black"/>
<path d="M213.073 521.774C212.644 526.266 218.426 526.266 228.816 526.266H385.844C390.081 526.266 392.485 524.921 392.485 522.146C392.485 519.084 388.621 518.34 383.898 518.34H229.646C220.544 518.34 213.417 517.911 213.044 521.774H213.073Z" fill="black"/>
<path d="M405.222 661.309C413.895 661.309 416.471 659.85 416.471 656.96C416.471 653.756 411.004 653.584 406.654 653.584H185.48C177.666 653.584 172.943 653.641 172.943 657.504C172.943 663.083 183.018 661.795 206.375 661.795L405.222 661.309Z" fill="black"/>
<path d="M212.186 750.775C123.453 732.149 131.811 641.167 131.811 604.717C131.811 597.336 131.668 591.385 136.477 591.699C141.285 592.014 139.196 599.739 139.539 609.038C139.854 618.365 135.074 673.612 156.256 704.483C171.684 726.971 221.002 757.127 313.456 762.648C345.714 764.565 350.208 765.223 354.702 765.424C359.196 765.624 361.429 766.568 361.429 768.571C361.429 770.745 359.568 772.119 354.273 772.061C348.491 772.004 289.555 769.286 265.111 764.565L212.186 750.746V750.775Z" fill="black"/>
<path d="M458.634 697.559C458.634 697.559 456.058 704.625 456.058 718.988C456.058 733.351 459.235 743.507 461.296 749.087C462.698 752.835 465.188 756.325 467.392 755.295C470.598 753.807 468.137 748.972 466.534 741.705C464.33 731.691 461.811 720.504 465.904 699.504L458.605 697.587L458.634 697.559Z" fill="black"/>
<path d="M817.143 765.424C845.05 761.218 885.782 751.748 919.844 729.46C949.211 709.547 952.846 663.255 955.737 617.592C958.428 575.191 953.82 549.928 942.227 519.257C938.678 509.873 932.896 494.251 927.543 497.027C922.191 499.802 929.518 507.212 934.985 522.462C940.452 537.711 951.644 571.386 947.522 618.536C944.145 657.104 941.254 699.991 917.153 721.192C899.635 736.584 851.033 748.944 816.685 756.583C812.591 757.499 811.532 758.185 811.962 765.052C812.391 771.918 817.143 765.395 817.143 765.395V765.424Z" fill="black"/>
<path d="M856.414 716.412C836.721 705.34 814.624 706.284 807.382 706.141C796.62 705.941 790.18 706.771 790.494 710.318C790.867 714.467 794.673 713.866 807.84 714.181C818.46 714.438 839.784 715.039 854.783 724.795C864.429 731.061 863.456 730.088 866.518 732.177C869.581 734.265 872.3 735.238 874.075 732.978C875.85 730.718 874.075 728.314 871.671 726.083C869.266 723.851 861.538 719.331 856.414 716.441V716.412Z" fill="black"/>
<path d="M735.538 123.227C711.723 123.999 702.105 148.747 672.537 148.747H428.465C403.162 148.747 397.981 145.858 383.555 133.012C372.277 122.998 357.794 123.913 350.38 123.913C342.967 123.913 334.036 124.829 334.637 128.548C335.238 132.268 342.652 131.009 349.464 131.009C356.277 131.009 368.899 128.548 379.719 138.419C390.51 148.29 400.7 155.7 417.073 155.7C429.724 155.7 459.664 156.615 459.664 156.615H641.424C679.063 156.615 692.717 155.7 711.78 142.424C725.748 132.725 725.262 130.293 736.826 130.78C748.389 131.266 760.44 133.183 760.927 128.377C761.413 123.57 745.327 122.912 735.538 123.227Z" fill="black"/>
<path d="M828.936 303.331C829.852 257.068 823.64 196.327 816.971 171.436C810.302 146.545 804.72 107.319 669.732 102.026C636.872 100.739 614.832 98.6504 561.936 98.6504C509.04 98.6504 460.981 100.739 424.973 102.026C289.956 106.833 284.975 145.601 277.733 171.436C268.746 203.566 266.799 250.487 266.799 250.487H275.157C275.157 250.487 273.869 226.712 285.433 172.724C297.112 118.306 354.874 114.358 426.232 109.751C488.431 105.746 621.215 106.547 668.387 109.751C739.745 114.615 798.595 118.192 809.672 172.724C816.971 208.716 823.268 252.748 821.637 305.763C821.322 316.206 821.322 318.781 825.186 319.096C829.05 319.411 828.735 311.371 828.878 303.36L828.936 303.331Z" fill="black"/>
<path d="M394.66 709.975C388.02 709.975 375.254 709.117 353.414 709.546C331.546 709.975 301.348 709.346 276.675 713.838C252.03 718.329 241.096 727.971 236.802 731.405C232.509 734.838 230.591 737.613 233.367 739.559C236.917 742.019 243.643 733.121 252.974 728.629C262.306 724.137 276.76 717.385 315.975 716.727C355.189 716.069 380.263 716.413 388.621 716.413C394.288 716.413 393.229 716.527 396.12 716.413C399.011 716.298 400.929 715.554 401.043 713.294C401.158 711.034 399.555 709.975 394.603 709.975H394.66Z" fill="black"/>
<path d="M662.175 114.214C659.685 111.181 655.935 118.391 649.61 120.966C642.024 124.056 633.58 123.284 623.018 123.284H467.393C456.831 123.284 448.387 124.056 440.801 120.966C434.476 118.391 430.755 111.181 428.236 114.214C425.431 117.59 430.211 121.825 432.529 123.942C434.848 126.059 439.456 130.293 454.34 130.293H636.042C650.898 130.293 655.535 126.059 657.853 123.942C660.172 121.825 664.952 117.59 662.147 114.214H662.175Z" fill="black"/>
<path d="M737.112 198.646C737.112 198.646 744.697 192.294 753.656 189.662C764.247 186.572 768.913 189.032 767.682 192.752C766.852 195.212 762.959 194.869 757.463 196.471C753.542 197.616 749.363 199.704 744.182 203.08L739.058 203.166L737.112 198.617V198.646Z" fill="black"/>
<path d="M677.89 266.538C672.709 270.257 670.619 272.002 673.338 275.808C676.058 279.613 681.353 278.897 683.7 272.718C686.047 266.538 682.956 262.875 677.89 266.538Z" fill="black"/>
<path d="M725.319 285.764C725.319 285.764 714.213 290.942 701.161 297.065C688.108 303.188 680.895 306.821 685.733 314.031C690.57 321.241 695.865 331.426 695.865 331.426C695.865 331.426 732.618 312.286 737.57 309.196C742.522 306.106 738.114 300.326 735.738 293.403C732.675 284.562 729.641 284.619 725.376 285.735L725.319 285.764Z" fill="black"/>
<path d="M723.973 277.41C723.258 284.134 717.476 292.23 706.713 290.8C695.951 289.369 691.829 281.044 693.461 272.775C695.321 263.305 704.624 259.757 711.265 261.13C713.698 261.645 713.898 262.704 713.726 263.734C713.497 265.193 712.037 265.565 709.747 265.365C705.883 265.05 699.643 267.368 698.413 274.034C697.182 280.7 701.647 284.877 707.458 285.65C713.268 286.422 717.476 282.159 718.277 278.383C719.079 274.606 717.504 271.345 716.417 269.37C715.644 267.968 716.073 266.91 717.447 266.252C719.909 265.05 724.574 271.974 723.973 277.439V277.41Z" fill="black"/>
<path d="M990 854.489C990 857.865 986.794 858.352 977.148 858.352H452.824C444.237 858.352 439.485 858.266 439.8 854.003C440.029 850.798 443.979 851.056 452.881 851.056H976.604C985.592 851.056 990 850.855 990 854.489Z" fill="black"/>
<path d="M757.463 207.256C754.2 202.678 747.817 201.477 743.638 200.819C740.804 200.39 740.146 195.182 740.432 192.15C741.72 177.358 731.788 164.769 719.852 166.429C706.027 168.346 709.576 180.448 705.683 181.22C702.878 181.764 697.783 172.494 686.591 172.208C675.085 171.922 672.194 180.219 668.587 181.678C664.122 183.509 654.934 177.015 646.232 187.944C639.448 196.47 645.173 210.804 654.504 216.269C656.136 217.213 656.68 217.814 654.905 219.873C649.724 225.882 647.406 230.374 651.47 235.953C654.733 240.416 662.318 239.3 666.641 235.581C667.156 238.499 667.585 241.904 667.442 244.393C667.242 248.398 664.98 251.174 657.882 257.354C650.783 263.533 658.311 267.11 660.057 269.17C664.437 274.262 657.596 285.163 667.528 294.633C670.047 297.037 675.485 300.041 681.668 301.328C687.851 302.587 688.28 296.236 684.673 294.691C677.861 291.772 670.104 289.483 669.617 282.045C668.931 271.258 669.618 268.998 664.981 264.993C659.943 260.615 669.875 257.268 672.623 251.717C675.886 245.08 672.222 228.314 672.222 228.314C674.255 225.996 682.927 242.276 696.037 243.277C704.395 243.907 703.193 238.957 710.492 237.812C720.768 236.21 723.973 250.916 718.85 259.986C711.322 273.29 717.132 274.434 720.138 274.434C723.143 274.434 724.059 274.434 726.836 269.713C731.072 262.532 733.19 255.351 735.938 253.176C738.657 251.002 742.865 246.996 751.051 239.901C765.535 227.341 762.157 213.865 757.463 207.285V207.256ZM694.892 217.499C692.316 220.188 687.851 215.725 682.183 210.003C678.691 206.484 671.135 199.159 674.426 196.127C677.718 193.122 681.897 198.587 687.192 204.109C692.488 209.631 697.44 214.867 694.921 217.499H694.892ZM724.374 207.685C722.829 212.034 720.51 213.779 718.793 213.35C716.016 212.664 715.673 210.575 716.875 207.256C718.048 203.937 720.625 199.417 723.63 200.075C725.548 200.504 725.662 204.052 724.374 207.685Z" fill="black"/>
<path d="M517.169 555.447L428.694 554.932V564.688H517.169V555.447Z" fill="black"/>
<path d="M804.749 497.883C800.112 497.883 801.6 507.839 798.566 519.226C794.473 534.533 784.827 552.73 750.965 556.363C737.741 557.794 731.043 556.621 731.043 556.621L546.222 555.562V564.66H731.043C731.043 564.66 763.617 566.92 782.594 555.39C801.572 543.86 805.493 522.202 806.094 517.252C806.724 512.303 809.386 497.883 804.749 497.883Z" fill="black"/>
<path d="M779.274 487.927C776.841 478.17 777.671 475.081 760.297 468.328C757.606 467.298 753.255 465.525 747.674 463.236C745.985 469.187 744.153 473.135 741.777 473.021C738.457 472.877 737.083 466.297 736.396 458.601C702.906 444.782 647.463 421.521 625.938 412.08C597.314 399.548 556.812 384.756 536.232 393.454C504.374 406.873 482.219 458.029 461.983 541.915C441.746 625.802 438.225 632.611 433.044 657.588C427.148 685.97 425.001 689.175 435.935 693.266C446.583 697.214 458.491 699.961 471.944 703.537C494.299 709.488 495.243 708.687 500.567 699.045C505.891 689.403 521.291 646.03 526.128 633.498C530.965 620.967 534.314 610.838 535.774 620.967C537.234 631.095 542.529 661.451 545.907 685.541C549.284 709.631 553.148 724.595 555.553 736.64C557.957 748.685 560.362 754.464 570.494 753.978C580.627 753.491 608.592 752.061 619.211 751.088C629.831 750.115 630.775 746.282 630.775 739.043C630.775 731.805 630.289 627.232 629.316 605.517C628.342 583.83 628.342 574.674 628.342 569.353C628.342 564.031 631.72 565.977 637.988 565.49C644.257 565.004 705.511 565.004 725.748 565.004C745.985 565.004 772.433 560.34 779.761 521.63C782.48 507.182 781.22 495.594 779.274 487.898V487.927ZM652.329 527.839C649.781 529.813 646.633 527.238 642.282 522.918C637.96 518.597 635.384 516.223 625.709 506.295C613.029 493.277 599.175 479.229 588.069 468.672C578.91 459.974 569.063 453.68 557.957 455.539C538.121 458.887 535.688 475.853 534.829 493.62C533.942 512.131 537.005 557.05 537.892 573.902C538.779 590.725 541.728 603.428 537.005 604C532.282 604.601 531.395 596.905 529.906 582.743C528.418 568.58 525.155 513.104 526.643 490.073C528.132 467.041 536.232 452.678 549.571 448.558C560.39 445.211 572.612 446.384 586.18 457.8C599.776 469.215 625.766 494.994 634.01 503.462C634.01 503.462 637.359 507.01 644.057 513.905C650.755 520.8 654.876 525.922 652.329 527.867V527.839Z" fill="black"/>
<path d="M281.512 383.127C287.494 389.707 296.654 394.657 306.242 394.657C315.23 394.657 321.527 389.106 321.527 381.467C321.527 367.992 302.035 366.332 287.952 358.092C279.708 353.286 273.125 346.104 273.125 334.288C273.125 319.754 283.601 309.883 296.51 306.278V289.055H314.486V305.22C322.586 306.107 330.372 308.968 338.158 314.661L327.681 329.625C323.474 325.734 316.432 322.73 309.563 322.73C301.92 322.73 293.39 326.02 293.39 334.117C293.39 351.054 341.793 345.79 341.793 381.153C341.793 397.032 329.656 408.705 314.515 411.709V428.332H296.539V411.566C286.206 409.62 276.617 404.528 268.374 396.889L281.569 383.098L281.512 383.127Z" fill="black"/>
</g>
<defs>
<clipPath id="clip0_2187_9834">
<rect width="990" height="957" fill="white"/>
</clipPath>
</defs>
</svg>
