<svg width="939" height="1285" viewBox="0 0 939 1285" fill="none" xmlns="http://www.w3.org/2000/svg">
<g clip-path="url(#clip0_2187_9902)">
<path d="M627.601 567.146V202.879C627.601 140.529 632.48 88.1284 591.874 63.849C565.405 48.0982 534.673 51.5941 486.576 51.5941H165.265C117.207 51.5941 86.4358 48.0982 59.9673 63.849C19.2848 88.09 24.2405 140.529 24.2405 202.879V1127.03C24.2405 1176.13 35.8037 1214.66 88.664 1228.22C93.0818 1229.33 97.6149 1228.22 98.7673 1225.95C99.8814 1223.69 98.5753 1219.62 92.736 1218.04C35.7268 1202.33 34.9969 1145.43 34.9969 1126.03V202.917C34.9969 176.333 32.9993 133.883 41.6813 105.723C50.056 78.4858 80.5582 62.005 107.334 62.3123C128.271 62.5813 168.454 62.3123 174.524 62.3123C180.593 62.3123 183.743 61.2751 183.743 65.3473V82.75C183.743 102.15 187.815 117.44 216.435 117.44H435.56C464.179 117.44 468.252 102.112 468.252 82.75V65.3473C468.252 61.2751 471.286 62.3123 477.471 62.3123C483.656 62.3123 523.724 62.5813 544.661 62.3123C571.437 61.9282 601.939 78.4474 610.314 105.723C618.957 133.883 616.998 176.295 616.998 202.917V564.457C616.998 576.981 616.691 584.242 622.184 584.242C627.447 584.242 627.562 576.02 627.562 567.108L627.601 567.146Z" fill="black"/>
<path d="M627.601 867.064V1127.03C627.601 1176.13 616.038 1214.66 563.177 1228.22C558.759 1229.33 554.226 1228.22 553.074 1225.95C551.96 1223.69 553.343 1219.61 559.105 1218.04C616.114 1202.33 616.844 1145.43 616.844 1126.03V867.064C616.844 859.611 620.417 859.227 622.799 859.227C625.257 859.227 627.601 861.954 627.601 867.064Z" fill="black"/>
<path d="M249.78 267.227C252.316 267.112 254.506 265.152 257.387 262.233C264.724 255.049 276.787 241.987 281.474 226.275C284.854 214.788 279.86 200.92 267.605 193.236C262.227 189.856 256.042 188.165 249.819 188.127C243.596 188.204 237.411 189.894 232.032 193.236C219.778 200.881 214.784 214.788 218.164 226.275C222.774 241.987 234.914 255.01 242.251 262.233C245.055 265.076 247.322 267.035 249.857 267.227H249.78Z" fill="#6B22FF"/>
<path d="M175.522 468.261C178.058 468.146 180.247 466.187 183.129 463.344C190.466 456.16 202.529 443.098 207.215 427.386C210.596 415.899 205.602 402.031 193.347 394.348C187.969 390.967 181.784 389.277 175.561 389.238C169.337 389.315 163.152 391.005 157.774 394.348C145.519 401.993 140.525 415.899 143.906 427.386C148.516 443.098 160.655 456.122 167.993 463.344C170.797 466.149 173.064 468.146 175.599 468.261H175.522Z" fill="black"/>
<path d="M445.318 374.218C447.853 374.103 450.043 372.144 452.924 369.301C460.261 362.117 472.324 349.056 477.011 333.343C480.391 321.857 475.397 307.988 463.143 300.305C457.764 296.924 451.579 295.234 445.356 295.195C439.133 295.272 432.948 297.001 427.569 300.305C415.315 307.95 410.321 321.857 413.701 333.343C418.311 349.056 430.451 362.079 437.788 369.301C440.708 372.106 442.897 374.026 445.394 374.218H445.318Z" fill="#6B22FF"/>
<path d="M375.862 668.604C378.397 668.489 380.587 666.529 383.468 663.61C390.805 656.426 402.868 643.364 407.555 627.652C410.935 616.165 405.941 602.297 393.687 594.613C388.308 591.233 382.123 589.542 375.9 589.504C369.677 589.581 363.492 591.309 358.113 594.613C345.859 602.258 340.865 616.165 344.245 627.652C348.855 643.364 360.995 656.387 368.332 663.61C371.175 666.529 373.403 668.489 375.938 668.604H375.862Z" fill="black"/>
<path d="M150.936 897.605C153.472 897.49 155.661 895.531 158.543 892.688C165.88 885.504 177.943 872.442 182.629 856.73C186.01 845.243 181.016 831.375 168.761 823.691C163.383 820.311 157.198 818.62 150.975 818.582C144.751 818.659 138.566 820.349 133.188 823.691C120.933 831.336 115.939 845.243 119.32 856.73C123.93 872.442 136.069 885.465 143.407 892.688C146.326 895.492 148.516 897.49 151.013 897.605H150.936Z" fill="#6B22FF"/>
<path d="M916.22 1228.26C916.22 1233.98 901.698 1233.71 879.455 1233.71H41.2204C6.95342 1233.71 0.153809 1234.29 0.153809 1228.8C0.153809 1222.65 13.9067 1223.69 41.5277 1223.69H879.648C899.163 1223.69 916.22 1222.65 916.22 1228.3V1228.26Z" fill="black"/>
<path d="M712.653 923.23C712.538 928.147 721.528 928.147 728.481 928.147H768.818C779.19 928.147 791.982 928.685 791.982 923.422C791.982 918.159 779.92 919.158 769.471 919.158H728.596C722.373 919.158 712.846 918.697 712.653 923.23Z" fill="black"/>
<path d="M707.544 1184.62C707.352 1189.88 716.956 1189.88 724.332 1189.88H803.623C814.648 1189.88 828.209 1190.46 828.209 1184.81C828.209 1179.16 815.378 1180.32 804.352 1180.32H724.563C717.878 1180.32 707.775 1179.74 707.583 1184.58L707.544 1184.62Z" fill="black"/>
<path d="M707.544 973.135C707.736 978.398 717.801 978.591 725.254 978.591H823.483C832.55 978.591 834.855 976.516 834.855 973.135C834.855 969.755 831.013 968.41 823.483 968.41H723.909C712.999 968.41 707.429 969.255 707.544 973.135Z" fill="black"/>
<path d="M874.385 1191.15H842C835.392 1191.15 836.238 1188.11 836.238 1185.19V1121.15C836.238 1116.74 839.273 1117.58 842.538 1117.58H862.015C868.315 1117.58 868.699 1113.82 868.699 1110.24V1017.39C868.699 1010.59 864.204 1011.09 859.287 1011.09H839.388C835.508 1011.09 836.161 1009.59 836.161 1005.83V975.862C836.161 969.754 836.545 968.909 839.349 968.909H844.036C849.875 968.909 854.6 969.216 854.6 963.799V937.407C854.6 930.223 853.371 928.533 848.108 928.533H834.355C832.089 928.533 831.551 928.725 831.551 925.805C831.551 913.204 829.669 853.466 770.585 851.93C711.501 853.505 709.619 913.243 709.619 925.805C709.619 928.648 709.158 928.533 706.814 928.533H693.062C687.76 928.533 686.569 930.223 686.569 937.407V963.799C686.569 969.331 691.371 968.909 697.134 968.909H701.82C704.625 968.909 705.009 969.677 705.009 975.862V1005.9C705.009 1009.59 705.662 1011.17 701.782 1011.17H681.883C676.888 1011.17 672.471 1010.63 672.471 1017.47V1110.32C672.471 1113.89 672.855 1117.66 679.155 1117.66H698.747C701.974 1117.66 705.047 1116.74 705.047 1121.23V1185.27C705.047 1188.19 705.969 1191.23 699.285 1191.23H666.9C662.636 1191.23 661.791 1192.92 661.791 1200.1V1223.65H879.686V1200.1C879.686 1192.95 878.918 1191.23 874.5 1191.15H874.385ZM794.48 1029.03C792.29 1034.1 779.805 1026.23 764.515 1026.5C746.613 1026.76 725.6 1042.98 725.216 1068.52C725.024 1085.66 732.169 1098.37 740.121 1105.52C745.691 1110.4 750.378 1112.01 749.994 1115.05C749.456 1118.73 742.003 1116.81 737.739 1114.74C733.398 1112.66 710.502 1096.72 715.228 1061.99C720.222 1025.53 750.724 1014.7 767.704 1016.05C784.683 1017.47 796.055 1025.38 794.48 1029.03ZM818.989 1084.58C813.88 1103.21 799.474 1107.55 797.63 1103.44C795.863 1099.37 807.157 1090.54 810.153 1081.89C813.15 1073.33 808.732 1057.8 815.877 1057.19C819.527 1056.88 823.906 1067.06 818.989 1084.58Z" fill="black"/>
<path d="M91.4299 344.022C100.458 341.294 255.888 294.925 275.865 289.278C295.841 283.631 428.76 242.909 448.314 237.262C467.829 231.538 559.835 202.764 565.098 200.92C570.361 199.076 571.782 197.155 571.052 194.812C569.823 191.124 563.792 193.198 542.625 198.576C516.348 205.338 425.994 233.497 348.279 256.624C270.563 279.866 86.8584 334.034 86.8584 334.034C73.3744 337.799 68.9566 339.988 71.0311 344.752C72.6445 348.517 78.8679 347.864 91.4683 344.022H91.4299Z" fill="black"/>
<path d="M128.233 586.737C137.26 584.009 292.691 537.64 312.667 531.993C332.644 526.346 356.923 518.509 376.438 512.862C395.953 507.138 487.959 478.363 493.222 476.519C498.485 474.675 499.907 472.755 499.177 470.411C497.947 466.723 491.916 468.798 470.749 474.176C444.472 480.937 462.72 476.174 385.043 499.339C307.404 522.504 123.661 576.749 123.661 576.749C110.177 580.513 105.759 582.703 107.834 587.505C109.409 591.193 115.632 590.502 128.194 586.737H128.233Z" fill="black"/>
<path d="M549.117 453.28C535.095 347.135 508.78 148.059 508.78 148.059C507.205 134.191 505.745 129.427 500.675 130.657C496.718 131.617 496.41 137.841 498.139 150.902C499.445 160.237 531.599 398.267 534.02 418.897C534.673 424.467 536.555 438.566 538.937 456.507L549.117 453.28Z" fill="black"/>
<path d="M374.094 687.62C293.075 687.62 101.495 687.505 101.495 687.505C87.4733 687.236 82.6329 688.081 83.2476 693.268C83.7086 697.301 89.9319 698.454 103.032 698.339C112.444 698.262 274.674 698.262 295.457 698.262H378.435C400.409 698.262 408.285 698.146 408.285 693.536C408.208 687.966 392.265 687.62 374.094 687.62Z" fill="black"/>
<path d="M159.964 132.345C162.307 141.489 201.761 298.305 206.678 318.474C211.595 338.643 308.403 695.188 313.32 714.973C318.238 734.758 343.477 827.803 345.09 833.027C346.704 838.252 348.586 839.904 350.93 839.174C354.694 838.06 354.387 833.22 348.202 810.631C341.057 784.43 256.542 470.489 236.412 392.004C216.32 313.442 169.261 127.851 169.261 127.851C166.034 114.29 163.998 109.756 159.157 111.639C155.393 113.06 156.622 119.629 159.926 132.345H159.964Z" fill="black"/>
<path d="M295.149 997.913C266.222 930.185 235.144 857.654 219.393 821.312C187.085 746.975 111.329 571.142 111.329 571.142C106.028 558.234 103.3 554.085 98.8057 556.659C95.3098 558.733 97.5763 564.957 102.839 577.02C106.604 585.664 170.451 734.259 178.403 753.429C184.358 767.72 249.588 918.813 286.045 1003.33L295.188 997.875L295.149 997.913Z" fill="black"/>
<path d="M330.761 1081.08C345.282 1114.97 356.192 1140.24 359.496 1147.66C369.1 1169.02 370.214 1173.74 366.68 1175.43C364.49 1176.47 362.416 1175.24 359.919 1170.25C358.036 1166.37 333.373 1111.85 318.852 1079.28L330.723 1081.08H330.761Z" fill="black"/>
<path d="M372.788 142.527C365.067 140.952 367.679 161.39 367.679 177.755C367.679 194.121 371.751 299.383 371.751 351.552C371.751 403.722 386.042 452.742 410.09 485.435C434.1 518.127 439.939 552.894 440.247 577.443C440.823 621.545 439.401 634.722 446.47 634.722C452.616 634.722 451.157 627.077 451.771 583.013C452.155 558.503 444.818 513.978 418.734 480.325C392.649 446.595 381.97 385.743 381.97 351.552C381.97 317.362 376.86 195.158 376.86 177.755C376.86 160.353 377.59 143.564 372.788 142.527Z" fill="black"/>
<path d="M310.401 880.664C298.415 886.619 236.105 920.156 225.233 924.958C214.323 929.684 137.337 969.253 120.972 978.166C104.607 987.04 83.4781 997.95 81.4805 992.457C79.4829 986.963 95.7712 980.202 116.17 969.291C136.607 958.381 180.594 936.599 220.431 916.084C244.94 903.484 285.162 882.009 297.109 876.246C309.056 870.484 324.346 860.226 327.073 864.298C329.801 868.371 322.003 874.863 310.401 880.664Z" fill="black"/>
<path d="M813.534 732.069C805.082 728.612 781.764 778.63 802.432 782.472C821.563 786.045 830.322 760.152 845.381 766.952C860.363 773.751 874.769 775.173 891.749 750.74C906.731 729.073 907 720.89 902.39 720.198C898.126 719.545 893.516 736.103 883.336 749.51C875.614 759.691 866.97 769.756 844.459 759.96C827.863 752.776 818.758 777.017 806.312 775.48C799.32 774.558 801.318 762.303 806.312 751.393C810.73 741.673 816.646 733.375 813.495 732.069H813.534Z" fill="black"/>
<path d="M754.258 332.765C750.493 327.31 738.046 339.066 738.046 353.203C738.046 362.077 737.393 362.73 730.21 365.804C723.026 368.877 716.073 372.757 715.727 380.978C715.343 389.161 721.681 388.316 720.644 399.533C719.607 410.751 716.38 431.842 736.779 438.411C755.218 444.327 757.6 445.826 759.944 455.007C761.288 460.77 767.473 459.617 766.551 451.55C765.514 442.906 760.059 436.029 743.847 432.226C727.482 428.384 726.214 417.436 728.135 404.528C730.863 386.51 724.063 387.278 725.1 380.44C726.137 373.602 742.541 374.601 744.884 362.346C746.383 354.509 742.272 348.9 749.149 341.793C753.951 336.684 755.564 334.724 754.22 332.765H754.258Z" fill="black"/>
<path d="M450.964 1085.7C441.245 1086.08 446.585 1142.78 403.329 1167.64C372.135 1185.54 333.834 1192.99 330.185 1211.55C329.147 1216.81 335.832 1220.69 339.52 1212.78C344.053 1202.98 360.917 1199.29 379.588 1190.07C400.947 1179.51 418.849 1176.7 434.83 1153.85C450.811 1130.99 459.685 1085.31 451.003 1085.73L450.964 1085.7Z" fill="black"/>
<path d="M501.251 1135.25C503.249 1158.23 505.976 1169.83 508.051 1184.62C510.125 1199.41 511.086 1221.92 506.476 1221.38C501.866 1220.85 502.404 1211.13 500.329 1191.73C498.255 1172.32 492.915 1160.76 491.954 1141.82C490.264 1108.59 489.419 1081.28 497.064 1081.28C502.519 1081.39 498.869 1109.36 501.213 1135.18L501.251 1135.25Z" fill="black"/>
<path d="M353.042 910.245C343.707 905.558 337.676 964.489 302.871 987.654C268.028 1010.82 199.148 1017.77 193.808 1029.22C186.624 1044.55 225.54 1056.84 247.322 1064.33C269.103 1071.83 346.511 1099.68 359.419 1089.57C373.71 1078.36 366.219 1041.51 377.129 1005.36C388.039 969.214 400.678 951.158 393.148 947.778C385.696 944.32 366.68 996.336 362.454 1026.3C359.073 1050.16 362.339 1074.17 351.544 1079.62C336.485 1087.23 212.248 1047.32 208.445 1036.02C204.373 1024.07 292.921 1017.54 321.925 986.655C337.945 969.598 351.275 934.793 353.35 924.958C355.424 914.97 355.731 911.589 353.042 910.245Z" fill="black"/>
<path d="M803.354 412.481C803.354 412.481 800.357 425.197 802.701 435.185C804.967 445.173 810.883 447.901 812.689 445.442C814.494 442.907 808.847 437.528 809.692 426.58C810.614 415.669 809.039 410.867 803.354 412.519V412.481Z" fill="black"/>
<path d="M759.06 395.423C757.485 392.695 752.914 393.848 745.423 398.611C737.931 403.375 736.549 405.872 738.431 410.405C740.313 414.938 748.419 416.321 755.027 408.139C761.596 399.956 759.713 396.46 759.06 395.423Z" fill="black"/>
<path d="M880.762 526.577C877.074 518.932 874.999 515.474 871.926 516.703C868.814 517.933 870.236 523.119 873.04 529.804C877.727 540.944 913.262 626.268 921.367 664.147C929.012 699.874 946.875 774.748 878.995 797.145C820.679 816.431 786.143 811.821 773.85 768.333C770.278 756.078 773.85 749.47 782.033 735.102C789.025 722.847 809.654 696.033 831.666 623.118C841.385 626.69 852.103 627.19 857.751 609.826C863.398 592.423 873.463 547.629 860.785 502.451C848.723 459.386 833.664 454.238 831.666 459.501C829.515 465.033 845.726 475.867 851.566 506.024C862.284 561.574 854.37 597.11 846.84 611.593C845.342 614.397 842.768 617.317 834.778 614.589C825.366 611.362 807.771 604.524 793.442 599.607C774.119 592.922 759.367 586.891 757.754 591.424C756.525 594.92 759.828 597.148 765.207 599.607C770.009 601.796 806.196 615.165 821.832 620.16C817.952 634.105 788.794 731.875 753.067 747.895C724.447 760.688 686.838 742.44 646.233 702.41C607.894 664.569 565.482 617.547 550.078 565.377C544.968 547.975 543.009 523.465 537.285 524.003C529.948 524.656 536.171 559.961 544.93 582.78C547.926 590.502 550.462 596.802 552.575 601.72C535.364 598.685 491.647 594.075 469.788 621.619C442.167 656.31 399.218 738.214 373.633 807.672C337.907 901.754 335.563 907.593 352.159 917.044C366.45 925.227 417.62 950.774 427.8 954.884C438.057 958.956 439.094 961.031 439.094 974.285V1060.18C439.094 1069.4 442.129 1073.48 462.643 1076.55C483.08 1079.58 538.284 1079.58 561.756 1078.62C585.305 1077.59 593.411 1075.59 593.411 1055.08C593.411 1034.56 587.956 867.64 587.956 853.387C587.956 839.135 593.411 840.403 601.055 843.015C608.7 845.55 764.093 883.89 815.186 823.115C818.758 820.08 823.023 819.926 830.168 819.043C848.07 816.853 926.054 810.86 936.811 748.471C948.873 678.668 900.047 567.337 880.646 526.615L880.762 526.577ZM414.7 906.748C411.78 916.813 354.963 890.844 359.496 880.202C361.263 875.976 365.643 880.778 387.194 891.343C403.79 899.372 416.505 901.063 414.7 906.71V906.748ZM523.033 922.192C531.062 821.886 530.639 808.286 538.284 809.131C543.854 809.708 539.59 827.687 534.212 900.409C528.449 980.124 532.214 993.186 526.567 993.186C520.075 993.186 518.346 981.2 523.071 922.23L523.033 922.192ZM440.439 933.14C430.374 932.295 436.866 870.329 443.358 816.354C451.157 751.468 484.54 710.593 492.992 717.085C494.951 718.583 496.026 720.927 488.305 728.648C476.511 740.135 459.839 778.398 455.997 806.289C440.093 921.769 448.544 933.755 440.439 933.102V933.14ZM561.487 1053.04C550.577 1054.38 511.738 1055.42 495.066 1054.38C478.393 1053.42 445.817 1048.47 447.392 1039.4C448.314 1034.21 455.113 1036.02 463.219 1038.94C470.288 1041.48 492.876 1044.24 505.515 1044.86C530.754 1046.01 546.044 1044.13 556.647 1043.51C567.211 1042.78 578.198 1040.05 578.582 1044.16C578.89 1048.31 572.436 1051.69 561.526 1053.04H561.487ZM694.137 823.653C691.487 827.917 672.163 816.892 654.031 805.098C643.082 797.914 601.171 771.291 595.178 766.835C588.839 762.109 577.353 754.426 566.251 746.589C550.039 735.102 534.711 723.116 537.247 718.622C540.089 713.512 549.885 721.08 569.439 735.755C578.505 742.555 589.761 750.853 603.437 760.073C613.349 766.758 652.917 791.268 659.87 795.878C694.521 818.697 696.135 818.697 694.137 823.653Z" fill="black"/>
<path d="M710.733 427.388C698.017 424.392 676.927 478.828 667.208 518.666C660.792 544.943 651.265 588.2 649.191 610.981C648.077 622.775 650.535 625.272 653.263 625.272C658.449 625.272 657.527 613.287 660.062 601.07C663.443 584.858 666.631 565.342 669.282 549.284C673.892 521.125 695.635 452.628 704.394 439.912C710.041 431.729 708.466 451.591 707.852 462.04C707.083 473.45 718.954 471.567 715.842 486.934C712.807 502.262 696.98 522.662 692.831 539.104C688.759 555.469 692.754 579.979 693.369 602.991C694.406 644.903 692.332 673.562 699.016 673.063C705.7 672.563 701.091 652.126 701.091 583.091C701.091 558.581 699.016 553.971 701.091 543.253C703.165 532.535 722.45 507.295 724.64 488.048C727.252 464.614 715.689 470.722 716.342 456.969C716.918 442.486 718.877 429.347 710.81 427.388H710.733Z" fill="black"/>
<path d="M583 535.796C572.051 537.602 576.853 595.073 584.345 595.073C591.836 595.073 581.617 551.47 586.611 550.126C592.834 548.435 605.473 604.639 610.89 622.387C614.347 632.645 621.147 630.57 617.69 616.932C614.232 603.294 608.162 576.057 599.98 556.925C591.874 537.794 587.149 535.143 583 535.758V535.796Z" fill="black"/>
<path d="M801.817 450.628C799.473 448.86 791.252 454.392 783.377 460.155C773.773 467.224 763.9 475.675 756.14 483.704C744.347 495.844 725.139 513.669 717.609 553.892C711.77 585.24 712.884 607.752 718.262 606.062C723.909 604.294 721.758 575.943 725.062 559.04C732.246 522.275 740.236 512.325 759.751 491.58C770.969 479.632 787.449 468.03 793.826 462.652C800.242 457.197 805.044 453.048 801.817 450.666V450.628Z" fill="black"/>
<path d="M615.039 629.226C622.491 638.831 690.68 676.248 711.194 687.159C731.708 698.069 730.248 683.701 737.086 664.647C743.886 645.592 752.183 614.09 754.796 599.914C756.14 592.462 750.071 592.462 748.303 597.533C746.613 602.604 729.672 666.875 722.757 677.247C719.299 682.357 710.156 674.865 690.372 664.647C668.59 653.429 632.748 632.607 624.258 628.497C615.769 624.348 612.695 626.115 615.039 629.226Z" fill="black"/>
<path d="M884.45 314.441C878.726 303.339 863.744 289.739 851.489 300.611C841.386 309.639 835.854 303.608 830.13 310.868C826.365 315.786 828.785 326.12 825.981 323.2C820.526 317.284 811.921 318.936 813.726 316.4C815.493 313.942 819.104 308.025 818.451 302.57C817.529 295.386 814.994 293.927 811.191 289.854C807.349 285.782 811.921 284.86 809.616 273.95C807.349 263.04 785.529 262.156 773.044 269.878C762.095 276.639 761.25 284.169 766.244 293.043C770.278 300.112 761.98 296.232 759.905 305.567C757.447 316.669 768.088 316.938 764.9 321.932C764.9 321.932 750.839 335.301 764.439 352.358C778.076 369.415 803.315 357.66 800.588 381.67C799.09 394.655 794.633 415.4 806.888 421.047C811.421 424.159 815.532 412.865 821.678 406.756C827.786 400.648 819.22 420.51 829.592 423.314C840.733 426.31 845.15 416.514 848.723 417.014C852.296 417.513 854.293 429.345 867.585 423.698C880.954 418.051 885.026 397.613 874.27 385.358C863.552 373.026 849.415 375.831 839.042 380.249C837.698 380.787 844.497 372.143 843.729 359.888C843.652 358.928 844.651 358.198 845.535 358.543C850.413 360.311 862.86 363.422 869.545 354.049C877.919 342.178 873.194 344.06 880.647 341.064C888.099 338.067 890.174 325.543 884.488 314.479L884.45 314.441ZM794.595 329.616C792.905 333.38 775.272 326.427 779.613 321.126C785.759 313.596 796.285 325.851 794.595 329.616ZM870.966 324.16C867.201 328.233 859.672 333.035 857.981 327.58C856.291 322.124 871.427 309.869 874.346 313.942C876.114 316.285 874.731 320.05 870.966 324.122V324.16Z" fill="black"/>
<path d="M559.643 450.82C540.781 450.82 527.643 450.935 526.029 458.81C524.685 465.418 530.755 485.548 534.865 498.303C538.937 511.096 544.546 527.96 549.156 543.788C553.766 559.616 558.299 572.908 563.946 570.91C568.671 569.22 554.419 525.579 546.736 502.068C540.973 484.434 539.014 473.908 537.593 468.799C535.787 462.191 538.707 459.463 551.422 459.463C564.138 459.463 554.726 459.463 561.334 459.463C567.941 459.463 572.052 460.001 575.624 468.683C579.197 477.366 587.879 502.413 590.415 513.17C592.95 523.927 599.634 547.86 603.706 547.86C607.778 547.86 603.706 528.998 598.597 511.595C593.488 494.192 587.38 473.754 583.807 465.072C580.35 456.39 578.045 450.781 559.682 450.781L559.643 450.82Z" fill="black"/>
</g>
<defs>
<clipPath id="clip0_2187_9902">
<rect width="939" height="1285" fill="white"/>
</clipPath>
</defs>
</svg>
