<svg width="27" height="20" viewBox="0 0 27 20" fill="none" xmlns="http://www.w3.org/2000/svg">
<path d="M5.66732 11.6667C5.66732 12.219 6.11503 12.6667 6.66732 12.6667H8.00065C8.55294 12.6667 9.00065 12.219 9.00065 11.6667C9.00065 11.1144 8.55294 10.6667 8.00065 10.6667H6.66732C6.11503 10.6667 5.66732 11.1144 5.66732 11.6667Z" fill="#00034A"/>
<path d="M18.6673 12.6667C18.115 12.6667 17.6673 12.219 17.6673 11.6667C17.6673 11.1144 18.115 10.6667 18.6673 10.6667H20.0007C20.5529 10.6667 21.0007 11.1144 21.0007 11.6667C21.0007 12.219 20.5529 12.6667 20.0007 12.6667H18.6673Z" fill="#00034A"/>
<path fill-rule="evenodd" clip-rule="evenodd" d="M8.53512 0C6.99327 0 5.61613 0.964579 5.08921 2.41361L3.34926 7.19848C2.17172 7.64173 1.33398 8.77859 1.33398 10.1111C1.33398 10.8312 1.45629 11.5226 1.68127 12.1659C1.67209 12.2204 1.66732 12.2763 1.66732 12.3333V17.6667C1.66732 18.9553 2.71199 20 4.00065 20H5.33398C6.62265 20 7.66732 18.9553 7.66732 17.6667V16.3333L19.0007 16.3333V17.6667C19.0007 18.9553 20.0453 20 21.334 20H22.6673C23.956 20 25.0007 18.9553 25.0007 17.6667V12.3333C25.0007 12.2763 24.9959 12.2204 24.9867 12.1659C25.2117 11.5227 25.334 10.8312 25.334 10.1111C25.334 8.77859 24.4962 7.64173 23.3187 7.19848L21.5788 2.41361C21.0518 0.964582 19.6747 0 18.1328 0H8.53512ZM23.0007 14.9686C22.4016 15.4488 21.7118 15.8205 20.9611 16.0539C20.9868 16.1426 21.0007 16.2363 21.0007 16.3333V17.6667C21.0007 17.8508 21.1499 18 21.334 18H22.6673C22.8514 18 23.0007 17.8508 23.0007 17.6667V14.9686ZM3.66732 17.6667V14.9686C4.25583 15.4404 4.93192 15.8074 5.66732 16.0415V17.6667C5.66732 17.8508 5.51808 18 5.33398 18H4.00065C3.81656 18 3.66732 17.8508 3.66732 17.6667ZM21.1184 7L19.6992 3.09709C19.4597 2.43845 18.8337 2 18.1328 2H8.53512C7.83428 2 7.20831 2.43845 6.9688 3.09709L5.54956 7L21.1184 7ZM19.1118 14.3333L7.55621 14.3333C5.22434 14.3333 3.33398 12.443 3.33398 10.1111C3.33398 9.49746 3.83145 9 4.4451 9L22.2229 9C22.8365 9 23.334 9.49746 23.334 10.1111C23.334 12.443 21.4436 14.3333 19.1118 14.3333Z" fill="#00034A"/>
<path d="M0.333984 5.66667C0.333984 6.21895 0.7817 6.66667 1.33398 6.66667H2.66732C3.2196 6.66667 3.66732 6.21895 3.66732 5.66667C3.66732 5.11438 3.2196 4.66667 2.66732 4.66667H1.33398C0.7817 4.66667 0.333984 5.11438 0.333984 5.66667Z" fill="#00034A"/>
<path d="M24.0007 6.66667C23.4484 6.66667 23.0007 6.21895 23.0007 5.66667C23.0007 5.11438 23.4484 4.66667 24.0007 4.66667H25.334C25.8863 4.66667 26.334 5.11438 26.334 5.66667C26.334 6.21895 25.8863 6.66667 25.334 6.66667H24.0007Z" fill="#00034A"/>
</svg>
